%TF.GenerationSoftware,KiCad,Pcbnew,9.0.7*%
%TF.CreationDate,2026-08-17T15:29:24+03:00*%
%TF.ProjectId,testing,74657374-696e-4672-9e6b-696361645f70,rev?*%
%TF.SameCoordinates,Original*%
%TF.FileFunction,Copper,L2,Bot*%
%TF.FilePolarity,Positive*%
%FSLAX46Y46*%
G04 Gerber Fmt 4.6, Leading zero omitted, Abs format (unit mm)*
G04 Created by KiCad (PCBNEW 9.0.7) date 2026-08-17 15:29:24*
%MOMM*%
%LPD*%
G01*
G04 APERTURE LIST*
G04 Aperture macros list*
%AMRoundRect*
0 Rectangle with rounded corners*
0 $1 Rounding radius*
0 $2 $3 $4 $5 $6 $7 $8 $9 X,Y pos of 4 corners*
0 Add a 4 corners polygon primitive as box body*
4,1,4,$2,$3,$4,$5,$6,$7,$8,$9,$2,$3,0*
0 Add four circle primitives for the rounded corners*
1,1,$1+$1,$2,$3*
1,1,$1+$1,$4,$5*
1,1,$1+$1,$6,$7*
1,1,$1+$1,$8,$9*
0 Add four rect primitives between the rounded corners*
20,1,$1+$1,$2,$3,$4,$5,0*
20,1,$1+$1,$4,$5,$6,$7,0*
20,1,$1+$1,$6,$7,$8,$9,0*
20,1,$1+$1,$8,$9,$2,$3,0*%
G04 Aperture macros list end*
%TA.AperFunction,ComponentPad*%
%ADD10R,1.800000X1.800000*%
%TD*%
%TA.AperFunction,ComponentPad*%
%ADD11C,1.800000*%
%TD*%
%TA.AperFunction,ComponentPad*%
%ADD12C,1.400000*%
%TD*%
%TA.AperFunction,ComponentPad*%
%ADD13R,1.700000X1.700000*%
%TD*%
%TA.AperFunction,ComponentPad*%
%ADD14C,1.700000*%
%TD*%
%TA.AperFunction,ComponentPad*%
%ADD15C,1.600000*%
%TD*%
%TA.AperFunction,SMDPad,CuDef*%
%ADD16RoundRect,0.600000X-1.400000X2.400000X-1.400000X-2.400000X1.400000X-2.400000X1.400000X2.400000X0*%
%TD*%
%TA.AperFunction,ComponentPad*%
%ADD17RoundRect,0.250000X-0.550000X-0.550000X0.550000X-0.550000X0.550000X0.550000X-0.550000X0.550000X0*%
%TD*%
%TA.AperFunction,ComponentPad*%
%ADD18RoundRect,0.250000X-0.350000X0.350000X-0.350000X-0.350000X0.350000X-0.350000X0.350000X0.350000X0*%
%TD*%
%TA.AperFunction,ComponentPad*%
%ADD19C,1.200000*%
%TD*%
%TA.AperFunction,SMDPad,CuDef*%
%ADD20RoundRect,0.600000X2.400000X1.400000X-2.400000X1.400000X-2.400000X-1.400000X2.400000X-1.400000X0*%
%TD*%
%TA.AperFunction,SMDPad,CuDef*%
%ADD21RoundRect,0.600000X-2.400000X-1.400000X2.400000X-1.400000X2.400000X1.400000X-2.400000X1.400000X0*%
%TD*%
%TA.AperFunction,SMDPad,CuDef*%
%ADD22RoundRect,0.600000X1.400000X-2.400000X1.400000X2.400000X-1.400000X2.400000X-1.400000X-2.400000X0*%
%TD*%
%TA.AperFunction,ViaPad*%
%ADD23C,0.600000*%
%TD*%
%TA.AperFunction,Conductor*%
%ADD24C,0.500000*%
%TD*%
%TA.AperFunction,Conductor*%
%ADD25C,0.750000*%
%TD*%
%TA.AperFunction,Conductor*%
%ADD26C,1.500000*%
%TD*%
G04 APERTURE END LIST*
D10*
%TO.P,D1,1,K*%
%TO.N,Net-(D1-K)*%
X83500000Y-103340000D03*
D11*
%TO.P,D1,2,A*%
%TO.N,Net-(D1-A)*%
X83500000Y-100800000D03*
%TD*%
D12*
%TO.P,R4,1*%
%TO.N,Net-(R2-Pad1)*%
X105620000Y-106300000D03*
%TO.P,R4,2*%
%TO.N,Net-(C3-Pad1)*%
X110700000Y-106300000D03*
%TD*%
D13*
%TO.P,J4,1,Pin_1*%
%TO.N,Net-(J3-Pin_1)*%
X120000000Y-70000000D03*
D14*
%TO.P,J4,2,Pin_2*%
%TO.N,Net-(J4-Pin_2)*%
X122540000Y-70000000D03*
%TO.P,J4,3,Pin_3*%
%TO.N,Net-(J4-Pin_3)*%
X125080000Y-70000000D03*
%TD*%
D15*
%TO.P,C3,1*%
%TO.N,Net-(C3-Pad1)*%
X115200000Y-109700000D03*
%TO.P,C3,2*%
%TO.N,GND*%
X120200000Y-109700000D03*
%TD*%
D13*
%TO.P,J3,1,Pin_1*%
%TO.N,Net-(J2-Pin_1)*%
X90000000Y-120000000D03*
D14*
%TO.P,J3,2,Pin_2*%
%TO.N,GND*%
X90000000Y-122540000D03*
%TD*%
D13*
%TO.P,J1,1,IO*%
%TO.N,Net-(J1-IO)*%
X34000000Y-60470000D03*
D14*
%TO.P,J1,3,GND1*%
%TO.N,GND*%
X34000000Y-55390000D03*
%TO.P,J1,5,+5V*%
%TO.N,unconnected-(J1-+5V-Pad5)*%
X34000000Y-50310000D03*
%TO.P,J1,6,-10V_b*%
%TO.N,unconnected-(J1--10V_b-Pad6)*%
X34000000Y-47770000D03*
%TO.P,J1,7,0V_b*%
%TO.N,unconnected-(J1-0V_b-Pad7)*%
X34000000Y-45230000D03*
%TO.P,J1,8,+10V_b*%
%TO.N,unconnected-(J1-+10V_b-Pad8)*%
X34000000Y-42690000D03*
%TO.P,J1,9,Diag*%
%TO.N,unconnected-(J1-Diag-Pad9)*%
X34000000Y-40150000D03*
%TO.P,J1,11,+24VDC*%
%TO.N,Net-(D3-A)*%
X34000000Y-35070000D03*
%TO.P,J1,12,GND_24V*%
%TO.N,GND1*%
X34000000Y-32530000D03*
%TD*%
D12*
%TO.P,R9,1*%
%TO.N,Net-(J2-Pin_1)*%
X114500000Y-124180000D03*
%TO.P,R9,2*%
%TO.N,GND*%
X114500000Y-119100000D03*
%TD*%
%TO.P,R7,1*%
%TO.N,Net-(R6-Pad2)*%
X105860000Y-114700000D03*
%TO.P,R7,2*%
%TO.N,Net-(U3B-+)*%
X110940000Y-114700000D03*
%TD*%
%TO.P,R1,1*%
%TO.N,Net-(J1-IO)*%
X119180000Y-99800000D03*
%TO.P,R1,2*%
%TO.N,Net-(D1-A)*%
X114100000Y-99800000D03*
%TD*%
%TO.P,R8,1*%
%TO.N,Net-(R8-Pad1)*%
X111900000Y-119120000D03*
%TO.P,R8,2*%
%TO.N,Net-(J2-Pin_1)*%
X111900000Y-124200000D03*
%TD*%
D16*
%TO.P,J3,2,Pin_2*%
%TO.N,Net-(J2-Pin_2)*%
X128000000Y-65000000D03*
%TD*%
D15*
%TO.P,C1,1*%
%TO.N,+24V*%
X122300000Y-122400000D03*
%TO.P,C1,2*%
%TO.N,GND*%
X117300000Y-122400000D03*
%TD*%
D13*
%TO.P,J1,1,IO*%
%TO.N,Net-(J1-IO)*%
X126000000Y-99530000D03*
D14*
%TO.P,J1,3,GND1*%
%TO.N,Net-(J1-GND1)*%
X126000000Y-104610000D03*
%TO.P,J1,5,+5V*%
%TO.N,unconnected-(J1-+5V-Pad5)*%
X126000000Y-109690000D03*
%TO.P,J1,6,-10V_b*%
%TO.N,unconnected-(J1--10V_b-Pad6)*%
X126000000Y-112230000D03*
%TO.P,J1,7,0V_b*%
%TO.N,unconnected-(J1-0V_b-Pad7)*%
X126000000Y-114770000D03*
%TO.P,J1,8,+10V_b*%
%TO.N,unconnected-(J1-+10V_b-Pad8)*%
X126000000Y-117310000D03*
%TO.P,J1,9,Diag*%
%TO.N,unconnected-(J1-Diag-Pad9)*%
X126000000Y-119850000D03*
%TO.P,J1,11,+24VDC*%
%TO.N,+24V*%
X126000000Y-124930000D03*
%TO.P,J1,12,GND_24V*%
%TO.N,GND*%
X126000000Y-127470000D03*
%TD*%
D13*
%TO.P,J5,1,Pin_1*%
%TO.N,GND*%
X119500000Y-53220000D03*
D14*
%TO.P,J5,2,Pin_2*%
%TO.N,Net-(J4-Pin_2)*%
X119500000Y-55760000D03*
%TO.P,J5,3,Pin_3*%
%TO.N,Net-(J1-0V_b)*%
X119500000Y-58300000D03*
%TD*%
D17*
%TO.P,U3,1*%
%TO.N,Net-(R6-Pad2)*%
X101095000Y-118190000D03*
D15*
%TO.P,U3,2,-*%
%TO.N,Net-(U3A--)*%
X101095000Y-120730000D03*
%TO.P,U3,3,+*%
%TO.N,Net-(U3A-+)*%
X101095000Y-123270000D03*
%TO.P,U3,4,V-*%
%TO.N,GND*%
X101095000Y-125810000D03*
%TO.P,U3,5,+*%
%TO.N,Net-(U3B-+)*%
X108715000Y-125810000D03*
%TO.P,U3,6,-*%
%TO.N,Net-(J2-Pin_1)*%
X108715000Y-123270000D03*
%TO.P,U3,7*%
%TO.N,Net-(R8-Pad1)*%
X108715000Y-120730000D03*
%TO.P,U3,8,V+*%
%TO.N,+24V*%
X108715000Y-118190000D03*
%TD*%
D11*
%TO.P,RV1,1,1*%
%TO.N,Net-(U3A--)*%
X93575000Y-108960000D03*
%TO.P,RV1,2,2*%
X93575000Y-111500000D03*
%TO.P,RV1,3,3*%
%TO.N,GND*%
X93575000Y-114040000D03*
%TD*%
D13*
%TO.P,J4,1,Pin_1*%
%TO.N,Net-(D2-A1)*%
X70000000Y-40000000D03*
D14*
%TO.P,J4,2,Pin_2*%
%TO.N,GND1*%
X70000000Y-37460000D03*
%TD*%
D13*
%TO.P,J1,1,IO*%
%TO.N,Net-(D3-K)*%
X99530000Y-34000000D03*
D14*
%TO.P,J1,2,A_Ref*%
%TO.N,unconnected-(J1-A_Ref-Pad2)*%
X102070000Y-34000000D03*
%TO.P,J1,3,GND1*%
%TO.N,GND1*%
X104610000Y-34000000D03*
%TO.P,J1,5,+5V*%
%TO.N,unconnected-(J1-+5V-Pad5)*%
X109690000Y-34000000D03*
%TO.P,J1,6,-10V_b*%
%TO.N,unconnected-(J1--10V_b-Pad6)*%
X112230000Y-34000000D03*
%TO.P,J1,7,0V_b*%
%TO.N,Net-(J1-0V_b)*%
X114770000Y-34000000D03*
%TO.P,J1,8,+10V_b*%
%TO.N,Net-(J1-+10V_b)*%
X117310000Y-34000000D03*
%TO.P,J1,9,Diag*%
%TO.N,unconnected-(J1-Diag-Pad9)*%
X119850000Y-34000000D03*
%TO.P,J1,11,+24VDC*%
%TO.N,Net-(J1-+24VDC)*%
X124930000Y-34000000D03*
%TO.P,J1,12,GND_24V*%
%TO.N,GND*%
X127470000Y-34000000D03*
%TD*%
D12*
%TO.P,R6,1*%
%TO.N,Net-(U3A--)*%
X98720000Y-114800000D03*
%TO.P,R6,2*%
%TO.N,Net-(R6-Pad2)*%
X103800000Y-114800000D03*
%TD*%
D18*
%TO.P,C2,1*%
%TO.N,+24V*%
X121700000Y-125600000D03*
D19*
%TO.P,C2,2*%
%TO.N,GND*%
X121700000Y-127600000D03*
%TD*%
D12*
%TO.P,R5,1*%
%TO.N,Net-(C3-Pad1)*%
X108840000Y-109600000D03*
%TO.P,R5,2*%
%TO.N,Net-(U3A-+)*%
X103760000Y-109600000D03*
%TD*%
%TO.P,R3,1*%
%TO.N,Net-(R2-Pad1)*%
X103080000Y-103700000D03*
%TO.P,R3,2*%
%TO.N,GND*%
X98000000Y-103700000D03*
%TD*%
D20*
%TO.P,J2,2,Pin_2*%
%TO.N,GND*%
X95000000Y-128000000D03*
%TD*%
D21*
%TO.P,J3,2,Pin_2*%
%TO.N,GND1*%
X65000000Y-32000000D03*
%TD*%
D13*
%TO.P,J2,1,Pin_1*%
%TO.N,GND*%
X119415000Y-37660000D03*
D14*
%TO.P,J2,2,Pin_2*%
%TO.N,Net-(J2-Pin_2)*%
X119415000Y-40200000D03*
%TO.P,J2,3,Pin_3*%
%TO.N,Net-(D2-K)*%
X119415000Y-42740000D03*
%TD*%
D13*
%TO.P,J6,1,Pin_1*%
%TO.N,Net-(D2-K)*%
X119415000Y-45560000D03*
D14*
%TO.P,J6,2,Pin_2*%
%TO.N,Net-(J4-Pin_3)*%
X119415000Y-48100000D03*
%TO.P,J6,3,Pin_3*%
%TO.N,Net-(J1-+10V_b)*%
X119415000Y-50640000D03*
%TD*%
D12*
%TO.P,R2,1*%
%TO.N,Net-(R2-Pad1)*%
X105720000Y-103600000D03*
%TO.P,R2,2*%
%TO.N,Net-(R2-Pad2)*%
X110800000Y-103600000D03*
%TD*%
D15*
%TO.P,C4,1*%
%TO.N,Net-(U3A-+)*%
X115200000Y-112800000D03*
%TO.P,C4,2*%
%TO.N,GND*%
X120200000Y-112800000D03*
%TD*%
D13*
%TO.P,J4,1,Pin_1*%
%TO.N,Net-(J3-Pin_1)*%
X40240000Y-90300000D03*
D14*
%TO.P,J4,2,Pin_2*%
%TO.N,Net-(J2-Pin_2)*%
X37700000Y-90300000D03*
%TD*%
D13*
%TO.P,J1,1,IO*%
%TO.N,O*%
X60460000Y-126000000D03*
D14*
%TO.P,J1,3,GND1*%
%TO.N,GND1*%
X55380000Y-126000000D03*
%TO.P,J1,5,+5V*%
%TO.N,+5V*%
X50300000Y-126000000D03*
%TO.P,J1,6,-10V_b*%
%TO.N,unconnected-(J1--10V_b-Pad6)*%
X47760000Y-126000000D03*
%TO.P,J1,7,0V_b*%
%TO.N,unconnected-(J1-0V_b-Pad7)*%
X45220000Y-126000000D03*
%TO.P,J1,8,+10V_b*%
%TO.N,unconnected-(J1-+10V_b-Pad8)*%
X42680000Y-126000000D03*
%TO.P,J1,9,Diag*%
%TO.N,unconnected-(J1-Diag-Pad9)*%
X40140000Y-126000000D03*
%TO.P,J1,11,+24VDC*%
%TO.N,/+24V*%
X35060000Y-126000000D03*
%TO.P,J1,12,GND_24V*%
%TO.N,/GND*%
X32520000Y-126000000D03*
%TD*%
D13*
%TO.P,J2,1,Pin_1*%
%TO.N,/GND*%
X40185000Y-116240000D03*
D14*
%TO.P,J2,2,Pin_2*%
%TO.N,Net-(J2-Pin_2)*%
X40185000Y-113700000D03*
%TO.P,J2,3,Pin_3*%
%TO.N,/+24V*%
X40185000Y-111160000D03*
%TD*%
D22*
%TO.P,J3,2,Pin_2*%
%TO.N,Net-(J2-Pin_2)*%
X32000000Y-95000000D03*
%TD*%
D23*
%TO.N,GND*%
X112600000Y-56800000D03*
X126200000Y-57100000D03*
%TO.N,GND1*%
X60200000Y-107400000D03*
%TD*%
D24*
%TO.N,Net-(J2-Pin_2)*%
X126300000Y-40200000D02*
X128000000Y-41900000D01*
X128000000Y-41900000D02*
X128000000Y-65000000D01*
X119415000Y-40200000D02*
X126300000Y-40200000D01*
D25*
%TO.N,Net-(U3B-+)*%
X107710000Y-125810000D02*
X106300000Y-124400000D01*
X109000000Y-114700000D02*
X110940000Y-114700000D01*
X106300000Y-117400000D02*
X109000000Y-114700000D01*
X108715000Y-125810000D02*
X107710000Y-125810000D01*
X106300000Y-124400000D02*
X106300000Y-117400000D01*
D24*
%TO.N,Net-(J1-+10V_b)*%
X119415000Y-50640000D02*
X118140000Y-50640000D01*
X117310000Y-49790000D02*
X117310000Y-34000000D01*
X118140000Y-50640000D02*
X117300000Y-49800000D01*
X117300000Y-49800000D02*
X117310000Y-49790000D01*
%TO.N,Net-(J1-0V_b)*%
X115700000Y-34930000D02*
X114770000Y-34000000D01*
X115700000Y-54500000D02*
X115700000Y-34930000D01*
X119500000Y-58300000D02*
X115700000Y-54500000D01*
D26*
%TO.N,Net-(J2-Pin_2)*%
X37700000Y-90300000D02*
X37350000Y-90300000D01*
X32750000Y-94900000D02*
X32100000Y-94900000D01*
X32850000Y-109450000D02*
X37100000Y-113700000D01*
X32100000Y-94900000D02*
X32850000Y-95650000D01*
X32850000Y-95650000D02*
X32850000Y-109450000D01*
X37100000Y-113700000D02*
X40185000Y-113700000D01*
X37350000Y-90300000D02*
X32750000Y-94900000D01*
D24*
%TO.N,GND1*%
X60200000Y-113200000D02*
X56400000Y-117000000D01*
X56400000Y-117000000D02*
X56400000Y-124980000D01*
X60200000Y-107400000D02*
X60200000Y-113200000D01*
X56400000Y-124980000D02*
X55380000Y-126000000D01*
%TD*%
%TA.AperFunction,Conductor*%
%TO.N,GND*%
G36*
X113571444Y-34653999D02*
G01*
X113610486Y-34699056D01*
X113614951Y-34707820D01*
X113739890Y-34879786D01*
X113890213Y-35030109D01*
X114062179Y-35155048D01*
X114062181Y-35155049D01*
X114062184Y-35155051D01*
X114251588Y-35251557D01*
X114453757Y-35317246D01*
X114663713Y-35350500D01*
X114663714Y-35350500D01*
X114825500Y-35350500D01*
X114892539Y-35370185D01*
X114938294Y-35422989D01*
X114949500Y-35474500D01*
X114949500Y-54573918D01*
X114949500Y-54573920D01*
X114949499Y-54573920D01*
X114978340Y-54718907D01*
X114978343Y-54718917D01*
X115034913Y-54855490D01*
X115034916Y-54855495D01*
X115051429Y-54880210D01*
X115117046Y-54978414D01*
X115117052Y-54978421D01*
X118129824Y-57991191D01*
X118163309Y-58052514D01*
X118164616Y-58098270D01*
X118149500Y-58193707D01*
X118149500Y-58406286D01*
X118182753Y-58616239D01*
X118248444Y-58818414D01*
X118344951Y-59007820D01*
X118469890Y-59179786D01*
X118620213Y-59330109D01*
X118792179Y-59455048D01*
X118792181Y-59455049D01*
X118792184Y-59455051D01*
X118981588Y-59551557D01*
X119183757Y-59617246D01*
X119393713Y-59650500D01*
X119393714Y-59650500D01*
X119606286Y-59650500D01*
X119606287Y-59650500D01*
X119816243Y-59617246D01*
X120018412Y-59551557D01*
X120207816Y-59455051D01*
X120229789Y-59439086D01*
X120379786Y-59330109D01*
X120379788Y-59330106D01*
X120379792Y-59330104D01*
X120530104Y-59179792D01*
X120530106Y-59179788D01*
X120530109Y-59179786D01*
X120655048Y-59007820D01*
X120655047Y-59007820D01*
X120655051Y-59007816D01*
X120751557Y-58818412D01*
X120817246Y-58616243D01*
X120850500Y-58406287D01*
X120850500Y-58193713D01*
X120817246Y-57983757D01*
X120751557Y-57781588D01*
X120655051Y-57592184D01*
X120655049Y-57592181D01*
X120655048Y-57592179D01*
X120530109Y-57420213D01*
X120379786Y-57269890D01*
X120207820Y-57144951D01*
X120207115Y-57144591D01*
X120199054Y-57140485D01*
X120148259Y-57092512D01*
X120131463Y-57024692D01*
X120153999Y-56958556D01*
X120199054Y-56919515D01*
X120207816Y-56915051D01*
X120229789Y-56899086D01*
X120379786Y-56790109D01*
X120379788Y-56790106D01*
X120379792Y-56790104D01*
X120530104Y-56639792D01*
X120530106Y-56639788D01*
X120530109Y-56639786D01*
X120655048Y-56467820D01*
X120655047Y-56467820D01*
X120655051Y-56467816D01*
X120751557Y-56278412D01*
X120817246Y-56076243D01*
X120850500Y-55866287D01*
X120850500Y-55653713D01*
X120817246Y-55443757D01*
X120751557Y-55241588D01*
X120655051Y-55052184D01*
X120655049Y-55052181D01*
X120655048Y-55052179D01*
X120530106Y-54880210D01*
X120416181Y-54766285D01*
X120382696Y-54704962D01*
X120387680Y-54635270D01*
X120429552Y-54579337D01*
X120460529Y-54562422D01*
X120592086Y-54513354D01*
X120592093Y-54513350D01*
X120707187Y-54427190D01*
X120707190Y-54427187D01*
X120793350Y-54312093D01*
X120793354Y-54312086D01*
X120843596Y-54177379D01*
X120843598Y-54177372D01*
X120849999Y-54117844D01*
X120850000Y-54117827D01*
X120850000Y-53470000D01*
X119933012Y-53470000D01*
X119965925Y-53412993D01*
X120000000Y-53285826D01*
X120000000Y-53154174D01*
X119965925Y-53027007D01*
X119933012Y-52970000D01*
X120850000Y-52970000D01*
X120850000Y-52322172D01*
X120849999Y-52322155D01*
X120843598Y-52262627D01*
X120843596Y-52262620D01*
X120793354Y-52127913D01*
X120793350Y-52127906D01*
X120707190Y-52012812D01*
X120707187Y-52012809D01*
X120592093Y-51926649D01*
X120592086Y-51926645D01*
X120457379Y-51876403D01*
X120457372Y-51876401D01*
X120397844Y-51870000D01*
X120394258Y-51870000D01*
X120327219Y-51850315D01*
X120281464Y-51797511D01*
X120271520Y-51728353D01*
X120300545Y-51664797D01*
X120306577Y-51658319D01*
X120445104Y-51519792D01*
X120445106Y-51519788D01*
X120445109Y-51519786D01*
X120570048Y-51347820D01*
X120570047Y-51347820D01*
X120570051Y-51347816D01*
X120666557Y-51158412D01*
X120732246Y-50956243D01*
X120765500Y-50746287D01*
X120765500Y-50533713D01*
X120732246Y-50323757D01*
X120666557Y-50121588D01*
X120570051Y-49932184D01*
X120570049Y-49932181D01*
X120570048Y-49932179D01*
X120445109Y-49760213D01*
X120294786Y-49609890D01*
X120122820Y-49484951D01*
X120122115Y-49484591D01*
X120114054Y-49480485D01*
X120063259Y-49432512D01*
X120046463Y-49364692D01*
X120068999Y-49298556D01*
X120114054Y-49259515D01*
X120122816Y-49255051D01*
X120144789Y-49239086D01*
X120294786Y-49130109D01*
X120294788Y-49130106D01*
X120294792Y-49130104D01*
X120445104Y-48979792D01*
X120445106Y-48979788D01*
X120445109Y-48979786D01*
X120570048Y-48807820D01*
X120570047Y-48807820D01*
X120570051Y-48807816D01*
X120666557Y-48618412D01*
X120732246Y-48416243D01*
X120765500Y-48206287D01*
X120765500Y-47993713D01*
X120732246Y-47783757D01*
X120666557Y-47581588D01*
X120570051Y-47392184D01*
X120570049Y-47392181D01*
X120570048Y-47392179D01*
X120445109Y-47220213D01*
X120331569Y-47106673D01*
X120298084Y-47045350D01*
X120303068Y-46975658D01*
X120344940Y-46919725D01*
X120375915Y-46902810D01*
X120507331Y-46853796D01*
X120622546Y-46767546D01*
X120708796Y-46652331D01*
X120759091Y-46517483D01*
X120765500Y-46457873D01*
X120765499Y-44662128D01*
X120759091Y-44602517D01*
X120708796Y-44467669D01*
X120708795Y-44467668D01*
X120708793Y-44467664D01*
X120622547Y-44352455D01*
X120622544Y-44352452D01*
X120507335Y-44266206D01*
X120507328Y-44266202D01*
X120372482Y-44215908D01*
X120372483Y-44215908D01*
X120312883Y-44209501D01*
X120312881Y-44209500D01*
X120312873Y-44209500D01*
X120312865Y-44209500D01*
X120022172Y-44209500D01*
X119955133Y-44189815D01*
X119909378Y-44137011D01*
X119899434Y-44067853D01*
X119928459Y-44004297D01*
X119965875Y-43975015D01*
X120122816Y-43895051D01*
X120144789Y-43879086D01*
X120294786Y-43770109D01*
X120294788Y-43770106D01*
X120294792Y-43770104D01*
X120445104Y-43619792D01*
X120445106Y-43619788D01*
X120445109Y-43619786D01*
X120570048Y-43447820D01*
X120570047Y-43447820D01*
X120570051Y-43447816D01*
X120666557Y-43258412D01*
X120732246Y-43056243D01*
X120765500Y-42846287D01*
X120765500Y-42633713D01*
X120732246Y-42423757D01*
X120666557Y-42221588D01*
X120570051Y-42032184D01*
X120570049Y-42032181D01*
X120570048Y-42032179D01*
X120445109Y-41860213D01*
X120294786Y-41709890D01*
X120122820Y-41584951D01*
X120122115Y-41584591D01*
X120114054Y-41580485D01*
X120063259Y-41532512D01*
X120046463Y-41464692D01*
X120068999Y-41398556D01*
X120114054Y-41359515D01*
X120122816Y-41355051D01*
X120144789Y-41339086D01*
X120294786Y-41230109D01*
X120294788Y-41230106D01*
X120294792Y-41230104D01*
X120445104Y-41079792D01*
X120492228Y-41014931D01*
X120501903Y-41001615D01*
X120557233Y-40958949D01*
X120602221Y-40950500D01*
X125937770Y-40950500D01*
X126004809Y-40970185D01*
X126025451Y-40986819D01*
X127213181Y-42174549D01*
X127246666Y-42235872D01*
X127249500Y-42262230D01*
X127249500Y-61375500D01*
X127229815Y-61442539D01*
X127177011Y-61488294D01*
X127125500Y-61499500D01*
X126515962Y-61499500D01*
X126485416Y-61501319D01*
X126468749Y-61502312D01*
X126263397Y-61546984D01*
X126263386Y-61546987D01*
X126070191Y-61629718D01*
X125896137Y-61747521D01*
X125896132Y-61747525D01*
X125747525Y-61896132D01*
X125747521Y-61896137D01*
X125629718Y-62070191D01*
X125546987Y-62263386D01*
X125546984Y-62263397D01*
X125502312Y-62468749D01*
X125502312Y-62468755D01*
X125499500Y-62515962D01*
X125499500Y-67484038D01*
X125501484Y-67517360D01*
X125502312Y-67531250D01*
X125546984Y-67736602D01*
X125546987Y-67736613D01*
X125629718Y-67929808D01*
X125629720Y-67929811D01*
X125629721Y-67929813D01*
X125747523Y-68103865D01*
X125896135Y-68252477D01*
X126070187Y-68370279D01*
X126070189Y-68370280D01*
X126070191Y-68370281D01*
X126198987Y-68425435D01*
X126263388Y-68453013D01*
X126263396Y-68453014D01*
X126263397Y-68453015D01*
X126468749Y-68497687D01*
X126468750Y-68497687D01*
X126468755Y-68497688D01*
X126515962Y-68500500D01*
X126515973Y-68500500D01*
X129375500Y-68500500D01*
X129442539Y-68520185D01*
X129488294Y-68572989D01*
X129499500Y-68624500D01*
X129499500Y-79995684D01*
X129479815Y-80062723D01*
X129427011Y-80108478D01*
X129357853Y-80118422D01*
X129313500Y-80103071D01*
X129193189Y-80033609D01*
X129193186Y-80033608D01*
X129065892Y-79999500D01*
X121934108Y-79999500D01*
X121806812Y-80033608D01*
X121692686Y-80099500D01*
X121692683Y-80099502D01*
X121599502Y-80192683D01*
X121599500Y-80192686D01*
X121533608Y-80306812D01*
X121499500Y-80434108D01*
X121499500Y-80565891D01*
X121531554Y-80685520D01*
X121529891Y-80755370D01*
X121490728Y-80813232D01*
X121426500Y-80840736D01*
X121412323Y-80841612D01*
X120587795Y-80845228D01*
X120520670Y-80825837D01*
X120474684Y-80773235D01*
X120464437Y-80704120D01*
X120467471Y-80689157D01*
X120500500Y-80565892D01*
X120500500Y-80434108D01*
X120466392Y-80306814D01*
X120400500Y-80192686D01*
X120307314Y-80099500D01*
X120243615Y-80062723D01*
X120193187Y-80033608D01*
X120129539Y-80016554D01*
X120065892Y-79999500D01*
X108231392Y-79999500D01*
X108164353Y-79979815D01*
X108118598Y-79927011D01*
X108107395Y-79874606D01*
X108154849Y-73294146D01*
X108185080Y-69102135D01*
X118649500Y-69102135D01*
X118649500Y-70897870D01*
X118649501Y-70897876D01*
X118655908Y-70957483D01*
X118706202Y-71092328D01*
X118706206Y-71092335D01*
X118792452Y-71207544D01*
X118792455Y-71207547D01*
X118907664Y-71293793D01*
X118907671Y-71293797D01*
X119042517Y-71344091D01*
X119042516Y-71344091D01*
X119049444Y-71344835D01*
X119102127Y-71350500D01*
X120897872Y-71350499D01*
X120957483Y-71344091D01*
X121092331Y-71293796D01*
X121207546Y-71207546D01*
X121293796Y-71092331D01*
X121342810Y-70960916D01*
X121384681Y-70904984D01*
X121450145Y-70880566D01*
X121518418Y-70895417D01*
X121546673Y-70916569D01*
X121660213Y-71030109D01*
X121832179Y-71155048D01*
X121832181Y-71155049D01*
X121832184Y-71155051D01*
X122021588Y-71251557D01*
X122223757Y-71317246D01*
X122433713Y-71350500D01*
X122433714Y-71350500D01*
X122646286Y-71350500D01*
X122646287Y-71350500D01*
X122856243Y-71317246D01*
X123058412Y-71251557D01*
X123247816Y-71155051D01*
X123334138Y-71092335D01*
X123419786Y-71030109D01*
X123419788Y-71030106D01*
X123419792Y-71030104D01*
X123570104Y-70879792D01*
X123570106Y-70879788D01*
X123570109Y-70879786D01*
X123695048Y-70707820D01*
X123695047Y-70707820D01*
X123695051Y-70707816D01*
X123699514Y-70699054D01*
X123747488Y-70648259D01*
X123815308Y-70631463D01*
X123881444Y-70653999D01*
X123920486Y-70699056D01*
X123924951Y-70707820D01*
X124049890Y-70879786D01*
X124200213Y-71030109D01*
X124372179Y-71155048D01*
X124372181Y-71155049D01*
X124372184Y-71155051D01*
X124561588Y-71251557D01*
X124763757Y-71317246D01*
X124973713Y-71350500D01*
X124973714Y-71350500D01*
X125186286Y-71350500D01*
X125186287Y-71350500D01*
X125396243Y-71317246D01*
X125598412Y-71251557D01*
X125787816Y-71155051D01*
X125874138Y-71092335D01*
X125959786Y-71030109D01*
X125959788Y-71030106D01*
X125959792Y-71030104D01*
X126110104Y-70879792D01*
X126110106Y-70879788D01*
X126110109Y-70879786D01*
X126235048Y-70707820D01*
X126235047Y-70707820D01*
X126235051Y-70707816D01*
X126331557Y-70518412D01*
X126397246Y-70316243D01*
X126430500Y-70106287D01*
X126430500Y-69893713D01*
X126397246Y-69683757D01*
X126331557Y-69481588D01*
X126235051Y-69292184D01*
X126235049Y-69292181D01*
X126235048Y-69292179D01*
X126110109Y-69120213D01*
X125959786Y-68969890D01*
X125787820Y-68844951D01*
X125598414Y-68748444D01*
X125598413Y-68748443D01*
X125598412Y-68748443D01*
X125396243Y-68682754D01*
X125396241Y-68682753D01*
X125396240Y-68682753D01*
X125234957Y-68657208D01*
X125186287Y-68649500D01*
X124973713Y-68649500D01*
X124925042Y-68657208D01*
X124763760Y-68682753D01*
X124561585Y-68748444D01*
X124372179Y-68844951D01*
X124200213Y-68969890D01*
X124049890Y-69120213D01*
X123924949Y-69292182D01*
X123920484Y-69300946D01*
X123872509Y-69351742D01*
X123804688Y-69368536D01*
X123738553Y-69345998D01*
X123699516Y-69300946D01*
X123695050Y-69292182D01*
X123570109Y-69120213D01*
X123419786Y-68969890D01*
X123247820Y-68844951D01*
X123058414Y-68748444D01*
X123058413Y-68748443D01*
X123058412Y-68748443D01*
X122856243Y-68682754D01*
X122856241Y-68682753D01*
X122856240Y-68682753D01*
X122694957Y-68657208D01*
X122646287Y-68649500D01*
X122433713Y-68649500D01*
X122385042Y-68657208D01*
X122223760Y-68682753D01*
X122021585Y-68748444D01*
X121832179Y-68844951D01*
X121660215Y-68969889D01*
X121546673Y-69083431D01*
X121485350Y-69116915D01*
X121415658Y-69111931D01*
X121359725Y-69070059D01*
X121342810Y-69039082D01*
X121293797Y-68907671D01*
X121293793Y-68907664D01*
X121207547Y-68792455D01*
X121207544Y-68792452D01*
X121092335Y-68706206D01*
X121092328Y-68706202D01*
X120957482Y-68655908D01*
X120957483Y-68655908D01*
X120897883Y-68649501D01*
X120897881Y-68649500D01*
X120897873Y-68649500D01*
X120897864Y-68649500D01*
X119102129Y-68649500D01*
X119102123Y-68649501D01*
X119042516Y-68655908D01*
X118907671Y-68706202D01*
X118907664Y-68706206D01*
X118792455Y-68792452D01*
X118792452Y-68792455D01*
X118706206Y-68907664D01*
X118706202Y-68907671D01*
X118655908Y-69042517D01*
X118649501Y-69102116D01*
X118649500Y-69102135D01*
X108185080Y-69102135D01*
X108399686Y-39343519D01*
X108419854Y-39276624D01*
X108427445Y-39266221D01*
X108499100Y-39178031D01*
X111000000Y-36100000D01*
X111000000Y-34979258D01*
X111019685Y-34912219D01*
X111072489Y-34866464D01*
X111141647Y-34856520D01*
X111205203Y-34885545D01*
X111211681Y-34891577D01*
X111350213Y-35030109D01*
X111522179Y-35155048D01*
X111522181Y-35155049D01*
X111522184Y-35155051D01*
X111711588Y-35251557D01*
X111913757Y-35317246D01*
X112123713Y-35350500D01*
X112123714Y-35350500D01*
X112336286Y-35350500D01*
X112336287Y-35350500D01*
X112546243Y-35317246D01*
X112748412Y-35251557D01*
X112937816Y-35155051D01*
X112992572Y-35115269D01*
X113109786Y-35030109D01*
X113109788Y-35030106D01*
X113109792Y-35030104D01*
X113260104Y-34879792D01*
X113260106Y-34879788D01*
X113260109Y-34879786D01*
X113385048Y-34707820D01*
X113385047Y-34707820D01*
X113385051Y-34707816D01*
X113389514Y-34699054D01*
X113437488Y-34648259D01*
X113505308Y-34631463D01*
X113571444Y-34653999D01*
G37*
%TD.AperFunction*%
%TA.AperFunction,Conductor*%
G36*
X129442539Y-30520185D02*
G01*
X129488294Y-30572989D01*
X129499500Y-30624500D01*
X129499500Y-61375500D01*
X129479815Y-61442539D01*
X129427011Y-61488294D01*
X129375500Y-61499500D01*
X128874500Y-61499500D01*
X128807461Y-61479815D01*
X128761706Y-61427011D01*
X128750500Y-61375500D01*
X128750500Y-41826079D01*
X128721659Y-41681092D01*
X128721658Y-41681091D01*
X128721658Y-41681087D01*
X128665084Y-41544505D01*
X128627625Y-41488443D01*
X128627625Y-41488442D01*
X128582950Y-41421581D01*
X128582947Y-41421578D01*
X126778415Y-39617047D01*
X126778413Y-39617045D01*
X126729179Y-39584150D01*
X126696355Y-39562218D01*
X126655495Y-39534916D01*
X126655494Y-39534915D01*
X126655492Y-39534914D01*
X126655490Y-39534913D01*
X126518917Y-39478343D01*
X126518907Y-39478340D01*
X126373920Y-39449500D01*
X126373918Y-39449500D01*
X120602221Y-39449500D01*
X120535182Y-39429815D01*
X120501903Y-39398385D01*
X120445107Y-39320211D01*
X120331181Y-39206285D01*
X120297696Y-39144962D01*
X120302680Y-39075270D01*
X120344552Y-39019337D01*
X120375529Y-39002422D01*
X120507086Y-38953354D01*
X120507093Y-38953350D01*
X120622187Y-38867190D01*
X120622190Y-38867187D01*
X120708350Y-38752093D01*
X120708354Y-38752086D01*
X120758596Y-38617379D01*
X120758598Y-38617372D01*
X120764999Y-38557844D01*
X120765000Y-38557827D01*
X120765000Y-37910000D01*
X119848012Y-37910000D01*
X119880925Y-37852993D01*
X119915000Y-37725826D01*
X119915000Y-37594174D01*
X119880925Y-37467007D01*
X119848012Y-37410000D01*
X120765000Y-37410000D01*
X120765000Y-36762172D01*
X120764999Y-36762155D01*
X120758598Y-36702627D01*
X120758596Y-36702620D01*
X120708354Y-36567913D01*
X120708350Y-36567906D01*
X120622190Y-36452812D01*
X120622187Y-36452809D01*
X120507093Y-36366649D01*
X120507086Y-36366645D01*
X120372379Y-36316403D01*
X120372372Y-36316401D01*
X120312844Y-36310000D01*
X119665000Y-36310000D01*
X119665000Y-37226988D01*
X119607993Y-37194075D01*
X119480826Y-37160000D01*
X119349174Y-37160000D01*
X119222007Y-37194075D01*
X119165000Y-37226988D01*
X119165000Y-36310000D01*
X118517155Y-36310000D01*
X118457627Y-36316401D01*
X118457620Y-36316403D01*
X118322913Y-36366645D01*
X118322910Y-36366647D01*
X118258811Y-36414632D01*
X118193346Y-36439049D01*
X118125073Y-36424197D01*
X118075668Y-36374792D01*
X118060500Y-36315365D01*
X118060500Y-35187220D01*
X118080185Y-35120181D01*
X118111614Y-35086902D01*
X118189792Y-35030104D01*
X118340104Y-34879792D01*
X118340106Y-34879788D01*
X118340109Y-34879786D01*
X118465048Y-34707820D01*
X118465047Y-34707820D01*
X118465051Y-34707816D01*
X118469514Y-34699054D01*
X118517488Y-34648259D01*
X118585308Y-34631463D01*
X118651444Y-34653999D01*
X118690486Y-34699056D01*
X118694951Y-34707820D01*
X118819890Y-34879786D01*
X118970213Y-35030109D01*
X119142179Y-35155048D01*
X119142181Y-35155049D01*
X119142184Y-35155051D01*
X119331588Y-35251557D01*
X119533757Y-35317246D01*
X119743713Y-35350500D01*
X119743714Y-35350500D01*
X119956286Y-35350500D01*
X119956287Y-35350500D01*
X120166243Y-35317246D01*
X120368412Y-35251557D01*
X120557816Y-35155051D01*
X120612572Y-35115269D01*
X120729786Y-35030109D01*
X120729788Y-35030106D01*
X120729792Y-35030104D01*
X120880104Y-34879792D01*
X120880106Y-34879788D01*
X120880109Y-34879786D01*
X121005048Y-34707820D01*
X121005047Y-34707820D01*
X121005051Y-34707816D01*
X121101557Y-34518412D01*
X121167246Y-34316243D01*
X121200500Y-34106287D01*
X121200500Y-33893713D01*
X123579500Y-33893713D01*
X123579500Y-34106286D01*
X123612753Y-34316239D01*
X123678444Y-34518414D01*
X123774951Y-34707820D01*
X123899890Y-34879786D01*
X124050213Y-35030109D01*
X124222179Y-35155048D01*
X124222181Y-35155049D01*
X124222184Y-35155051D01*
X124411588Y-35251557D01*
X124613757Y-35317246D01*
X124823713Y-35350500D01*
X124823714Y-35350500D01*
X125036286Y-35350500D01*
X125036287Y-35350500D01*
X125246243Y-35317246D01*
X125448412Y-35251557D01*
X125637816Y-35155051D01*
X125692572Y-35115269D01*
X125809786Y-35030109D01*
X125809788Y-35030106D01*
X125809792Y-35030104D01*
X125960104Y-34879792D01*
X125960106Y-34879788D01*
X125960109Y-34879786D01*
X126045890Y-34761717D01*
X126085051Y-34707816D01*
X126089793Y-34698508D01*
X126137763Y-34647711D01*
X126205583Y-34630911D01*
X126271719Y-34653445D01*
X126310763Y-34698500D01*
X126315373Y-34707547D01*
X126354728Y-34761716D01*
X126987037Y-34129408D01*
X127004075Y-34192993D01*
X127069901Y-34307007D01*
X127162993Y-34400099D01*
X127277007Y-34465925D01*
X127340590Y-34482962D01*
X126708282Y-35115269D01*
X126708282Y-35115270D01*
X126762449Y-35154624D01*
X126951782Y-35251095D01*
X127153870Y-35316757D01*
X127363754Y-35350000D01*
X127576246Y-35350000D01*
X127786127Y-35316757D01*
X127786130Y-35316757D01*
X127988217Y-35251095D01*
X128177554Y-35154622D01*
X128231716Y-35115270D01*
X128231717Y-35115270D01*
X127599408Y-34482962D01*
X127662993Y-34465925D01*
X127777007Y-34400099D01*
X127870099Y-34307007D01*
X127935925Y-34192993D01*
X127952962Y-34129408D01*
X128585270Y-34761717D01*
X128585270Y-34761716D01*
X128624622Y-34707554D01*
X128721095Y-34518217D01*
X128786757Y-34316130D01*
X128786757Y-34316127D01*
X128820000Y-34106246D01*
X128820000Y-33893753D01*
X128786757Y-33683872D01*
X128786757Y-33683869D01*
X128721095Y-33481782D01*
X128624624Y-33292449D01*
X128585270Y-33238282D01*
X128585269Y-33238282D01*
X127952962Y-33870590D01*
X127935925Y-33807007D01*
X127870099Y-33692993D01*
X127777007Y-33599901D01*
X127662993Y-33534075D01*
X127599409Y-33517037D01*
X128231716Y-32884728D01*
X128177550Y-32845375D01*
X127988217Y-32748904D01*
X127786129Y-32683242D01*
X127576246Y-32650000D01*
X127363754Y-32650000D01*
X127153872Y-32683242D01*
X127153869Y-32683242D01*
X126951782Y-32748904D01*
X126762439Y-32845380D01*
X126708282Y-32884727D01*
X126708282Y-32884728D01*
X127340591Y-33517037D01*
X127277007Y-33534075D01*
X127162993Y-33599901D01*
X127069901Y-33692993D01*
X127004075Y-33807007D01*
X126987037Y-33870591D01*
X126354728Y-33238282D01*
X126354727Y-33238282D01*
X126315380Y-33292440D01*
X126315376Y-33292446D01*
X126310760Y-33301505D01*
X126262781Y-33352297D01*
X126194959Y-33369087D01*
X126128826Y-33346543D01*
X126089794Y-33301493D01*
X126085051Y-33292184D01*
X126085049Y-33292181D01*
X126085048Y-33292179D01*
X125960109Y-33120213D01*
X125809786Y-32969890D01*
X125637820Y-32844951D01*
X125448414Y-32748444D01*
X125448413Y-32748443D01*
X125448412Y-32748443D01*
X125246243Y-32682754D01*
X125246241Y-32682753D01*
X125246240Y-32682753D01*
X125084957Y-32657208D01*
X125036287Y-32649500D01*
X124823713Y-32649500D01*
X124775042Y-32657208D01*
X124613760Y-32682753D01*
X124411585Y-32748444D01*
X124222179Y-32844951D01*
X124050213Y-32969890D01*
X123899890Y-33120213D01*
X123774951Y-33292179D01*
X123678444Y-33481585D01*
X123612753Y-33683760D01*
X123579500Y-33893713D01*
X121200500Y-33893713D01*
X121167246Y-33683757D01*
X121101557Y-33481588D01*
X121005051Y-33292184D01*
X121005049Y-33292181D01*
X121005048Y-33292179D01*
X120880109Y-33120213D01*
X120729786Y-32969890D01*
X120557820Y-32844951D01*
X120368414Y-32748444D01*
X120368413Y-32748443D01*
X120368412Y-32748443D01*
X120166243Y-32682754D01*
X120166241Y-32682753D01*
X120166240Y-32682753D01*
X120004957Y-32657208D01*
X119956287Y-32649500D01*
X119743713Y-32649500D01*
X119695042Y-32657208D01*
X119533760Y-32682753D01*
X119331585Y-32748444D01*
X119142179Y-32844951D01*
X118970213Y-32969890D01*
X118819890Y-33120213D01*
X118694949Y-33292182D01*
X118690484Y-33300946D01*
X118642509Y-33351742D01*
X118574688Y-33368536D01*
X118508553Y-33345998D01*
X118469516Y-33300946D01*
X118465050Y-33292182D01*
X118340109Y-33120213D01*
X118189786Y-32969890D01*
X118017820Y-32844951D01*
X117828414Y-32748444D01*
X117828413Y-32748443D01*
X117828412Y-32748443D01*
X117626243Y-32682754D01*
X117626241Y-32682753D01*
X117626240Y-32682753D01*
X117464957Y-32657208D01*
X117416287Y-32649500D01*
X117203713Y-32649500D01*
X117155042Y-32657208D01*
X116993760Y-32682753D01*
X116791585Y-32748444D01*
X116602179Y-32844951D01*
X116430213Y-32969890D01*
X116279890Y-33120213D01*
X116154949Y-33292182D01*
X116150484Y-33300946D01*
X116102509Y-33351742D01*
X116034688Y-33368536D01*
X115968553Y-33345998D01*
X115929516Y-33300946D01*
X115925050Y-33292182D01*
X115800109Y-33120213D01*
X115649786Y-32969890D01*
X115477820Y-32844951D01*
X115288414Y-32748444D01*
X115288413Y-32748443D01*
X115288412Y-32748443D01*
X115086243Y-32682754D01*
X115086241Y-32682753D01*
X115086240Y-32682753D01*
X114924957Y-32657208D01*
X114876287Y-32649500D01*
X114663713Y-32649500D01*
X114615042Y-32657208D01*
X114453760Y-32682753D01*
X114251585Y-32748444D01*
X114062179Y-32844951D01*
X113890213Y-32969890D01*
X113739890Y-33120213D01*
X113614949Y-33292182D01*
X113610484Y-33300946D01*
X113562509Y-33351742D01*
X113494688Y-33368536D01*
X113428553Y-33345998D01*
X113389516Y-33300946D01*
X113385050Y-33292182D01*
X113260109Y-33120213D01*
X113109786Y-32969890D01*
X112937820Y-32844951D01*
X112748414Y-32748444D01*
X112748413Y-32748443D01*
X112748412Y-32748443D01*
X112546243Y-32682754D01*
X112546241Y-32682753D01*
X112546240Y-32682753D01*
X112384957Y-32657208D01*
X112336287Y-32649500D01*
X112123713Y-32649500D01*
X112075042Y-32657208D01*
X111913760Y-32682753D01*
X111711585Y-32748444D01*
X111522179Y-32844951D01*
X111350213Y-32969890D01*
X111350209Y-32969894D01*
X111211681Y-33108423D01*
X111150358Y-33141908D01*
X111080666Y-33136924D01*
X111024733Y-33095052D01*
X111000316Y-33029588D01*
X111000000Y-33020742D01*
X111000000Y-30624500D01*
X111019685Y-30557461D01*
X111072489Y-30511706D01*
X111124000Y-30500500D01*
X129375500Y-30500500D01*
X129442539Y-30520185D01*
G37*
%TD.AperFunction*%
%TA.AperFunction,Conductor*%
G36*
X116655703Y-50194557D02*
G01*
X116677600Y-50219376D01*
X116717048Y-50278416D01*
X116717051Y-50278419D01*
X116717052Y-50278420D01*
X116717052Y-50278421D01*
X117661580Y-51222948D01*
X117661584Y-51222951D01*
X117784498Y-51305080D01*
X117784511Y-51305087D01*
X117887669Y-51347816D01*
X117921087Y-51361658D01*
X117921091Y-51361658D01*
X117921092Y-51361659D01*
X118066079Y-51390500D01*
X118066082Y-51390500D01*
X118213917Y-51390500D01*
X118227779Y-51390500D01*
X118294818Y-51410185D01*
X118328097Y-51441615D01*
X118384892Y-51519788D01*
X118384896Y-51519792D01*
X118535208Y-51670104D01*
X118535209Y-51670105D01*
X118535208Y-51670105D01*
X118538463Y-51672469D01*
X118581132Y-51727797D01*
X118587114Y-51797410D01*
X118554512Y-51859207D01*
X118508917Y-51888973D01*
X118407912Y-51926646D01*
X118407906Y-51926649D01*
X118292812Y-52012809D01*
X118292809Y-52012812D01*
X118206649Y-52127906D01*
X118206645Y-52127913D01*
X118156403Y-52262620D01*
X118156401Y-52262627D01*
X118150000Y-52322155D01*
X118150000Y-52970000D01*
X119066988Y-52970000D01*
X119034075Y-53027007D01*
X119000000Y-53154174D01*
X119000000Y-53285826D01*
X119034075Y-53412993D01*
X119066988Y-53470000D01*
X118150000Y-53470000D01*
X118150000Y-54117844D01*
X118156401Y-54177372D01*
X118156403Y-54177379D01*
X118206645Y-54312086D01*
X118206649Y-54312093D01*
X118292809Y-54427187D01*
X118292812Y-54427190D01*
X118407906Y-54513350D01*
X118407913Y-54513354D01*
X118539470Y-54562422D01*
X118595404Y-54604293D01*
X118619821Y-54669758D01*
X118604969Y-54738031D01*
X118583819Y-54766285D01*
X118469889Y-54880215D01*
X118344951Y-55052179D01*
X118248444Y-55241585D01*
X118182753Y-55443760D01*
X118155518Y-55615713D01*
X118125589Y-55678848D01*
X118066277Y-55715779D01*
X117996414Y-55714781D01*
X117945364Y-55683996D01*
X116486819Y-54225451D01*
X116453334Y-54164128D01*
X116450500Y-54137770D01*
X116450500Y-50288270D01*
X116470185Y-50221231D01*
X116522989Y-50175476D01*
X116592147Y-50165532D01*
X116655703Y-50194557D01*
G37*
%TD.AperFunction*%
%TD*%
%TA.AperFunction,Conductor*%
%TO.N,GND*%
G36*
X52338192Y-51199264D02*
G01*
X52404992Y-51219745D01*
X52436617Y-51249799D01*
X54660828Y-54274727D01*
X54900000Y-54600000D01*
X79876984Y-54898529D01*
X79943781Y-54919013D01*
X79988902Y-54972360D01*
X79999500Y-55022520D01*
X79999500Y-62875500D01*
X79979815Y-62942539D01*
X79927011Y-62988294D01*
X79875500Y-62999500D01*
X69934108Y-62999500D01*
X69806812Y-63033608D01*
X69692686Y-63099500D01*
X69692683Y-63099502D01*
X69599502Y-63192683D01*
X69599500Y-63192686D01*
X69533608Y-63306812D01*
X69499500Y-63434108D01*
X69499500Y-63439725D01*
X69479815Y-63506764D01*
X69427011Y-63552519D01*
X69376237Y-63563723D01*
X68625237Y-63568186D01*
X68558082Y-63548900D01*
X68512014Y-63496369D01*
X68500500Y-63444188D01*
X68500500Y-63434110D01*
X68500500Y-63434108D01*
X68466392Y-63306814D01*
X68400500Y-63192686D01*
X68307314Y-63099500D01*
X68250250Y-63066554D01*
X68193187Y-63033608D01*
X68129539Y-63016554D01*
X68065892Y-62999500D01*
X41934108Y-62999500D01*
X41806812Y-63033608D01*
X41692686Y-63099500D01*
X41692683Y-63099502D01*
X41599502Y-63192683D01*
X41599500Y-63192686D01*
X41533608Y-63306812D01*
X41499500Y-63434108D01*
X41499500Y-63565896D01*
X41501668Y-63573986D01*
X41500002Y-63643836D01*
X41460837Y-63701697D01*
X41396607Y-63729198D01*
X41382629Y-63730072D01*
X40617626Y-63734617D01*
X40550470Y-63715331D01*
X40504403Y-63662800D01*
X40494048Y-63593701D01*
X40497115Y-63578524D01*
X40498331Y-63573986D01*
X40500500Y-63565892D01*
X40500500Y-63434108D01*
X40466392Y-63306814D01*
X40400500Y-63192686D01*
X40307314Y-63099500D01*
X40250250Y-63066554D01*
X40193187Y-63033608D01*
X40129539Y-63016554D01*
X40065892Y-62999500D01*
X30934108Y-62999500D01*
X30806814Y-63033608D01*
X30806813Y-63033608D01*
X30806811Y-63033609D01*
X30806810Y-63033609D01*
X30686500Y-63103071D01*
X30618600Y-63119544D01*
X30552573Y-63096692D01*
X30509382Y-63041770D01*
X30500500Y-62995684D01*
X30500500Y-59572135D01*
X32649500Y-59572135D01*
X32649500Y-61367870D01*
X32649501Y-61367876D01*
X32655908Y-61427483D01*
X32706202Y-61562328D01*
X32706206Y-61562335D01*
X32792452Y-61677544D01*
X32792455Y-61677547D01*
X32907664Y-61763793D01*
X32907671Y-61763797D01*
X33042517Y-61814091D01*
X33042516Y-61814091D01*
X33049444Y-61814835D01*
X33102127Y-61820500D01*
X34897872Y-61820499D01*
X34957483Y-61814091D01*
X35092331Y-61763796D01*
X35207546Y-61677546D01*
X35293796Y-61562331D01*
X35344091Y-61427483D01*
X35350500Y-61367873D01*
X35350499Y-59572128D01*
X35344091Y-59512517D01*
X35293796Y-59377669D01*
X35293795Y-59377668D01*
X35293793Y-59377664D01*
X35207547Y-59262455D01*
X35207544Y-59262452D01*
X35092335Y-59176206D01*
X35092328Y-59176202D01*
X34957482Y-59125908D01*
X34957483Y-59125908D01*
X34897883Y-59119501D01*
X34897881Y-59119500D01*
X34897873Y-59119500D01*
X34897864Y-59119500D01*
X33102129Y-59119500D01*
X33102123Y-59119501D01*
X33042516Y-59125908D01*
X32907671Y-59176202D01*
X32907664Y-59176206D01*
X32792455Y-59262452D01*
X32792452Y-59262455D01*
X32706206Y-59377664D01*
X32706202Y-59377671D01*
X32655908Y-59512517D01*
X32649501Y-59572116D01*
X32649501Y-59572123D01*
X32649500Y-59572135D01*
X30500500Y-59572135D01*
X30500500Y-55283753D01*
X32650000Y-55283753D01*
X32650000Y-55496246D01*
X32683242Y-55706127D01*
X32683242Y-55706130D01*
X32748904Y-55908217D01*
X32845375Y-56097550D01*
X32884728Y-56151716D01*
X33517037Y-55519408D01*
X33534075Y-55582993D01*
X33599901Y-55697007D01*
X33692993Y-55790099D01*
X33807007Y-55855925D01*
X33870590Y-55872962D01*
X33238282Y-56505269D01*
X33238282Y-56505270D01*
X33292449Y-56544624D01*
X33481782Y-56641095D01*
X33683870Y-56706757D01*
X33893754Y-56740000D01*
X34106246Y-56740000D01*
X34316127Y-56706757D01*
X34316130Y-56706757D01*
X34518217Y-56641095D01*
X34707554Y-56544622D01*
X34761716Y-56505270D01*
X34761717Y-56505270D01*
X34129408Y-55872962D01*
X34192993Y-55855925D01*
X34307007Y-55790099D01*
X34400099Y-55697007D01*
X34465925Y-55582993D01*
X34482962Y-55519409D01*
X35115270Y-56151717D01*
X35115270Y-56151716D01*
X35154622Y-56097554D01*
X35251095Y-55908217D01*
X35316757Y-55706130D01*
X35316757Y-55706127D01*
X35350000Y-55496246D01*
X35350000Y-55283753D01*
X35316757Y-55073872D01*
X35316757Y-55073869D01*
X35251095Y-54871782D01*
X35154624Y-54682449D01*
X35115270Y-54628282D01*
X35115269Y-54628282D01*
X34482962Y-55260590D01*
X34465925Y-55197007D01*
X34400099Y-55082993D01*
X34307007Y-54989901D01*
X34192993Y-54924075D01*
X34129409Y-54907037D01*
X34761716Y-54274728D01*
X34707550Y-54235375D01*
X34518217Y-54138904D01*
X34316129Y-54073242D01*
X34106246Y-54040000D01*
X33893754Y-54040000D01*
X33683872Y-54073242D01*
X33683869Y-54073242D01*
X33481782Y-54138904D01*
X33292439Y-54235380D01*
X33238282Y-54274727D01*
X33238282Y-54274728D01*
X33870591Y-54907037D01*
X33807007Y-54924075D01*
X33692993Y-54989901D01*
X33599901Y-55082993D01*
X33534075Y-55197007D01*
X33517037Y-55260591D01*
X32884728Y-54628282D01*
X32884727Y-54628282D01*
X32845380Y-54682439D01*
X32748904Y-54871782D01*
X32683242Y-55073869D01*
X32683242Y-55073872D01*
X32650000Y-55283753D01*
X30500500Y-55283753D01*
X30500500Y-53824000D01*
X30520185Y-53756961D01*
X30572989Y-53711206D01*
X30624500Y-53700000D01*
X40200001Y-53700000D01*
X41888956Y-52544398D01*
X43967673Y-51122118D01*
X44034115Y-51100509D01*
X44039154Y-51100466D01*
X52338192Y-51199264D01*
G37*
%TD.AperFunction*%
%TD*%
%TA.AperFunction,Conductor*%
%TO.N,GND1*%
G36*
X61443039Y-30520185D02*
G01*
X61488794Y-30572989D01*
X61500000Y-30624500D01*
X61500000Y-31750000D01*
X68499999Y-31750000D01*
X68499999Y-30624500D01*
X68519684Y-30557461D01*
X68572488Y-30511706D01*
X68623999Y-30500500D01*
X79995685Y-30500500D01*
X80062724Y-30520185D01*
X80108479Y-30572989D01*
X80118423Y-30642147D01*
X80103072Y-30686501D01*
X80099502Y-30692683D01*
X80099500Y-30692686D01*
X80069509Y-30744630D01*
X80033608Y-30806812D01*
X79999500Y-30934108D01*
X79999500Y-38065891D01*
X80033608Y-38193187D01*
X80037542Y-38200000D01*
X80099500Y-38307314D01*
X80192686Y-38400500D01*
X80306814Y-38466392D01*
X80434108Y-38500500D01*
X80434110Y-38500500D01*
X80494888Y-38500500D01*
X80561927Y-38520185D01*
X80607682Y-38572989D01*
X80618883Y-38625602D01*
X80612208Y-39376602D01*
X80591928Y-39443464D01*
X80538720Y-39488748D01*
X80488213Y-39499500D01*
X80434108Y-39499500D01*
X80306812Y-39533608D01*
X80192686Y-39599500D01*
X80192683Y-39599502D01*
X80099502Y-39692683D01*
X80099500Y-39692686D01*
X80033608Y-39806812D01*
X79999500Y-39934108D01*
X79999500Y-51846250D01*
X79979815Y-51913289D01*
X79927011Y-51959044D01*
X79869627Y-51970111D01*
X57359023Y-50902798D01*
X57292991Y-50879960D01*
X57264995Y-50852393D01*
X54800000Y-47500000D01*
X46706306Y-47500000D01*
X46693718Y-47499359D01*
X37014139Y-46511646D01*
X36949444Y-46485258D01*
X36909286Y-46428082D01*
X36902763Y-46385304D01*
X37078262Y-39102135D01*
X68649500Y-39102135D01*
X68649500Y-40897870D01*
X68649501Y-40897876D01*
X68655908Y-40957483D01*
X68706202Y-41092328D01*
X68706206Y-41092335D01*
X68792452Y-41207544D01*
X68792455Y-41207547D01*
X68907664Y-41293793D01*
X68907671Y-41293797D01*
X69042517Y-41344091D01*
X69042516Y-41344091D01*
X69049444Y-41344835D01*
X69102127Y-41350500D01*
X70897872Y-41350499D01*
X70957483Y-41344091D01*
X71092331Y-41293796D01*
X71207546Y-41207546D01*
X71293796Y-41092331D01*
X71344091Y-40957483D01*
X71350500Y-40897873D01*
X71350499Y-39102128D01*
X71344091Y-39042517D01*
X71326349Y-38994949D01*
X71293797Y-38907671D01*
X71293793Y-38907664D01*
X71207547Y-38792455D01*
X71207544Y-38792452D01*
X71092335Y-38706206D01*
X71092328Y-38706202D01*
X70957482Y-38655908D01*
X70957483Y-38655908D01*
X70897883Y-38649501D01*
X70897881Y-38649500D01*
X70897873Y-38649500D01*
X70897865Y-38649500D01*
X70887309Y-38649500D01*
X70820270Y-38629815D01*
X70799628Y-38613181D01*
X70129408Y-37942962D01*
X70192993Y-37925925D01*
X70307007Y-37860099D01*
X70400099Y-37767007D01*
X70465925Y-37652993D01*
X70482962Y-37589408D01*
X71115270Y-38221717D01*
X71115270Y-38221716D01*
X71154622Y-38167554D01*
X71251095Y-37978217D01*
X71316757Y-37776130D01*
X71316757Y-37776127D01*
X71350000Y-37566246D01*
X71350000Y-37353753D01*
X71316757Y-37143872D01*
X71316757Y-37143869D01*
X71251095Y-36941782D01*
X71154624Y-36752449D01*
X71115270Y-36698282D01*
X71115269Y-36698282D01*
X70482962Y-37330590D01*
X70465925Y-37267007D01*
X70400099Y-37152993D01*
X70307007Y-37059901D01*
X70192993Y-36994075D01*
X70129409Y-36977037D01*
X70761716Y-36344728D01*
X70707550Y-36305375D01*
X70518217Y-36208904D01*
X70316129Y-36143242D01*
X70106246Y-36110000D01*
X69893754Y-36110000D01*
X69683872Y-36143242D01*
X69683869Y-36143242D01*
X69481782Y-36208904D01*
X69292439Y-36305380D01*
X69238282Y-36344727D01*
X69238282Y-36344728D01*
X69870591Y-36977037D01*
X69807007Y-36994075D01*
X69692993Y-37059901D01*
X69599901Y-37152993D01*
X69534075Y-37267007D01*
X69517037Y-37330591D01*
X68884728Y-36698282D01*
X68884727Y-36698282D01*
X68845380Y-36752439D01*
X68748904Y-36941782D01*
X68683242Y-37143869D01*
X68683242Y-37143872D01*
X68650000Y-37353753D01*
X68650000Y-37566246D01*
X68683242Y-37776127D01*
X68683242Y-37776130D01*
X68748904Y-37978217D01*
X68845375Y-38167550D01*
X68884728Y-38221716D01*
X69517037Y-37589408D01*
X69534075Y-37652993D01*
X69599901Y-37767007D01*
X69692993Y-37860099D01*
X69807007Y-37925925D01*
X69870590Y-37942962D01*
X69200370Y-38613181D01*
X69139047Y-38646666D01*
X69112698Y-38649500D01*
X69102134Y-38649500D01*
X69102123Y-38649501D01*
X69042516Y-38655908D01*
X68907671Y-38706202D01*
X68907664Y-38706206D01*
X68792455Y-38792452D01*
X68792452Y-38792455D01*
X68706206Y-38907664D01*
X68706202Y-38907671D01*
X68655908Y-39042517D01*
X68649501Y-39102116D01*
X68649501Y-39102123D01*
X68649500Y-39102135D01*
X37078262Y-39102135D01*
X37100000Y-38200000D01*
X36930016Y-38193187D01*
X30619534Y-37940260D01*
X30553337Y-37917906D01*
X30509733Y-37863312D01*
X30500500Y-37816359D01*
X30500500Y-34963713D01*
X32649500Y-34963713D01*
X32649500Y-35176286D01*
X32682753Y-35386239D01*
X32748444Y-35588414D01*
X32844951Y-35777820D01*
X32969890Y-35949786D01*
X33120213Y-36100109D01*
X33292179Y-36225048D01*
X33292181Y-36225049D01*
X33292184Y-36225051D01*
X33481588Y-36321557D01*
X33683757Y-36387246D01*
X33893713Y-36420500D01*
X33893714Y-36420500D01*
X34106286Y-36420500D01*
X34106287Y-36420500D01*
X34316243Y-36387246D01*
X34518412Y-36321557D01*
X34580630Y-36289855D01*
X34597025Y-36281502D01*
X34613579Y-36273066D01*
X34707816Y-36225051D01*
X34820417Y-36143242D01*
X34879786Y-36100109D01*
X34879788Y-36100106D01*
X34879792Y-36100104D01*
X35030104Y-35949792D01*
X35030106Y-35949788D01*
X35030109Y-35949786D01*
X35155048Y-35777820D01*
X35155047Y-35777820D01*
X35155051Y-35777816D01*
X35251557Y-35588412D01*
X35317246Y-35386243D01*
X35350500Y-35176287D01*
X35350500Y-34963713D01*
X35317246Y-34753757D01*
X35251557Y-34551588D01*
X35155051Y-34362184D01*
X35155049Y-34362181D01*
X35155048Y-34362179D01*
X35030109Y-34190213D01*
X34879786Y-34039890D01*
X34707817Y-33914949D01*
X34698504Y-33910204D01*
X34647707Y-33862230D01*
X34630912Y-33794409D01*
X34653449Y-33728274D01*
X34698507Y-33689232D01*
X34707555Y-33684622D01*
X34761716Y-33645270D01*
X34761717Y-33645270D01*
X34600435Y-33483988D01*
X61500001Y-33483988D01*
X61502812Y-33531191D01*
X61547463Y-33736454D01*
X61547465Y-33736462D01*
X61630158Y-33929566D01*
X61747910Y-34103546D01*
X61896453Y-34252089D01*
X62070433Y-34369841D01*
X62263537Y-34452534D01*
X62263545Y-34452536D01*
X62468807Y-34497187D01*
X62468810Y-34497188D01*
X62516013Y-34499999D01*
X64749999Y-34499999D01*
X65250000Y-34499999D01*
X67483986Y-34499999D01*
X67483988Y-34499998D01*
X67531191Y-34497187D01*
X67736454Y-34452536D01*
X67736462Y-34452534D01*
X67929566Y-34369841D01*
X68103546Y-34252089D01*
X68252089Y-34103546D01*
X68369841Y-33929566D01*
X68452534Y-33736462D01*
X68452536Y-33736454D01*
X68497187Y-33531192D01*
X68497188Y-33531189D01*
X68500000Y-33483987D01*
X68500000Y-32250000D01*
X65250000Y-32250000D01*
X65250000Y-34499999D01*
X64749999Y-34499999D01*
X64750000Y-34499998D01*
X64750000Y-32250000D01*
X61500001Y-32250000D01*
X61500001Y-33483988D01*
X34600435Y-33483988D01*
X34129408Y-33012962D01*
X34192993Y-32995925D01*
X34307007Y-32930099D01*
X34400099Y-32837007D01*
X34465925Y-32722993D01*
X34482962Y-32659409D01*
X35115270Y-33291717D01*
X35115270Y-33291716D01*
X35154622Y-33237554D01*
X35251095Y-33048217D01*
X35316757Y-32846130D01*
X35316757Y-32846127D01*
X35350000Y-32636246D01*
X35350000Y-32423753D01*
X35317417Y-32218036D01*
X35317417Y-32218034D01*
X35317416Y-32218031D01*
X35316756Y-32213868D01*
X35251095Y-32011782D01*
X35154624Y-31822449D01*
X35115270Y-31768282D01*
X35115269Y-31768282D01*
X34482962Y-32400590D01*
X34465925Y-32337007D01*
X34400099Y-32222993D01*
X34307007Y-32129901D01*
X34192993Y-32064075D01*
X34129409Y-32047037D01*
X34761716Y-31414728D01*
X34707550Y-31375375D01*
X34518217Y-31278904D01*
X34316129Y-31213242D01*
X34106246Y-31180000D01*
X33893754Y-31180000D01*
X33683872Y-31213242D01*
X33683869Y-31213242D01*
X33481782Y-31278904D01*
X33292439Y-31375380D01*
X33238282Y-31414727D01*
X33238282Y-31414728D01*
X33870591Y-32047037D01*
X33807007Y-32064075D01*
X33692993Y-32129901D01*
X33599901Y-32222993D01*
X33534075Y-32337007D01*
X33517037Y-32400591D01*
X32884728Y-31768282D01*
X32884727Y-31768282D01*
X32845380Y-31822439D01*
X32748904Y-32011782D01*
X32683242Y-32213869D01*
X32683242Y-32213872D01*
X32650000Y-32423753D01*
X32650000Y-32636246D01*
X32683242Y-32846127D01*
X32683242Y-32846130D01*
X32748904Y-33048217D01*
X32845375Y-33237550D01*
X32884728Y-33291716D01*
X33517037Y-32659408D01*
X33534075Y-32722993D01*
X33599901Y-32837007D01*
X33692993Y-32930099D01*
X33807007Y-32995925D01*
X33870590Y-33012962D01*
X33238282Y-33645269D01*
X33238282Y-33645270D01*
X33292452Y-33684626D01*
X33292451Y-33684626D01*
X33301495Y-33689234D01*
X33352292Y-33737208D01*
X33369087Y-33805029D01*
X33346550Y-33871164D01*
X33301499Y-33910202D01*
X33292182Y-33914949D01*
X33120213Y-34039890D01*
X32969890Y-34190213D01*
X32844951Y-34362179D01*
X32748444Y-34551585D01*
X32682753Y-34753760D01*
X32649500Y-34963713D01*
X30500500Y-34963713D01*
X30500500Y-30624500D01*
X30520185Y-30557461D01*
X30572989Y-30511706D01*
X30624500Y-30500500D01*
X61376000Y-30500500D01*
X61443039Y-30520185D01*
G37*
%TD.AperFunction*%
%TD*%
%TA.AperFunction,Conductor*%
%TO.N,GND*%
G36*
X129376202Y-95286331D02*
G01*
X129443127Y-95306393D01*
X129488583Y-95359454D01*
X129499500Y-95410329D01*
X129499500Y-95995684D01*
X129479815Y-96062723D01*
X129427011Y-96108478D01*
X129357853Y-96118422D01*
X129313500Y-96103071D01*
X129193189Y-96033609D01*
X129193186Y-96033608D01*
X129065892Y-95999500D01*
X119934108Y-95999500D01*
X119806812Y-96033608D01*
X119692686Y-96099500D01*
X119692683Y-96099502D01*
X119599502Y-96192683D01*
X119599500Y-96192686D01*
X119533608Y-96306812D01*
X119499500Y-96434108D01*
X119499500Y-96565891D01*
X119533608Y-96693187D01*
X119566554Y-96750250D01*
X119599500Y-96807314D01*
X119692686Y-96900500D01*
X119806814Y-96966392D01*
X119934108Y-97000500D01*
X119934110Y-97000500D01*
X129065890Y-97000500D01*
X129065892Y-97000500D01*
X129193186Y-96966392D01*
X129307314Y-96900500D01*
X129307316Y-96900497D01*
X129313499Y-96896928D01*
X129381399Y-96880455D01*
X129447426Y-96903307D01*
X129490617Y-96958228D01*
X129499500Y-97004315D01*
X129499500Y-129375500D01*
X129479815Y-129442539D01*
X129427011Y-129488294D01*
X129375500Y-129499500D01*
X98624000Y-129499500D01*
X98556961Y-129479815D01*
X98511206Y-129427011D01*
X98500000Y-129375500D01*
X98500000Y-128536289D01*
X121117261Y-128536289D01*
X121117262Y-128536290D01*
X121123471Y-128540801D01*
X121277742Y-128619408D01*
X121442415Y-128672914D01*
X121613429Y-128700000D01*
X121786571Y-128700000D01*
X121957584Y-128672914D01*
X122122257Y-128619408D01*
X122276525Y-128540803D01*
X122282737Y-128536289D01*
X121700001Y-127953553D01*
X121700000Y-127953553D01*
X121117261Y-128536289D01*
X98500000Y-128536289D01*
X98500000Y-128250000D01*
X95250000Y-128250000D01*
X95250000Y-129375500D01*
X95230315Y-129442539D01*
X95177511Y-129488294D01*
X95126000Y-129499500D01*
X94874000Y-129499500D01*
X94806961Y-129479815D01*
X94761206Y-129427011D01*
X94750000Y-129375500D01*
X94750000Y-128250000D01*
X91500001Y-128250000D01*
X91500001Y-129375500D01*
X91480316Y-129442539D01*
X91427512Y-129488294D01*
X91376001Y-129499500D01*
X80004315Y-129499500D01*
X79937276Y-129479815D01*
X79891521Y-129427011D01*
X79881577Y-129357853D01*
X79896928Y-129313499D01*
X79900497Y-129307316D01*
X79900500Y-129307314D01*
X79966392Y-129193186D01*
X80000500Y-129065892D01*
X80000500Y-126516012D01*
X91500000Y-126516012D01*
X91500000Y-127750000D01*
X94750000Y-127750000D01*
X95250000Y-127750000D01*
X98499999Y-127750000D01*
X98499999Y-127513428D01*
X120600000Y-127513428D01*
X120600000Y-127686571D01*
X120627085Y-127857584D01*
X120680592Y-128022259D01*
X120759196Y-128176525D01*
X120763709Y-128182736D01*
X120763709Y-128182737D01*
X121346446Y-127600001D01*
X121346446Y-127599999D01*
X121306951Y-127560504D01*
X121400000Y-127560504D01*
X121400000Y-127639496D01*
X121420444Y-127715796D01*
X121459940Y-127784205D01*
X121515795Y-127840060D01*
X121584204Y-127879556D01*
X121660504Y-127900000D01*
X121739496Y-127900000D01*
X121815796Y-127879556D01*
X121884205Y-127840060D01*
X121940060Y-127784205D01*
X121979556Y-127715796D01*
X122000000Y-127639496D01*
X122000000Y-127599999D01*
X122053553Y-127599999D01*
X122053553Y-127600000D01*
X122636289Y-128182736D01*
X122640803Y-128176525D01*
X122719408Y-128022257D01*
X122772914Y-127857584D01*
X122800000Y-127686571D01*
X122800000Y-127513428D01*
X122778594Y-127378279D01*
X122778594Y-127378278D01*
X122772914Y-127342415D01*
X122719408Y-127177742D01*
X122640801Y-127023471D01*
X122636290Y-127017262D01*
X122636289Y-127017261D01*
X122053553Y-127599999D01*
X122000000Y-127599999D01*
X122000000Y-127560504D01*
X121979556Y-127484204D01*
X121940060Y-127415795D01*
X121884205Y-127359940D01*
X121815796Y-127320444D01*
X121739496Y-127300000D01*
X121660504Y-127300000D01*
X121584204Y-127320444D01*
X121515795Y-127359940D01*
X121459940Y-127415795D01*
X121420444Y-127484204D01*
X121400000Y-127560504D01*
X121306951Y-127560504D01*
X120763709Y-127017261D01*
X120763708Y-127017261D01*
X120759203Y-127023463D01*
X120759193Y-127023480D01*
X120680592Y-127177740D01*
X120627085Y-127342415D01*
X120600000Y-127513428D01*
X98499999Y-127513428D01*
X98499999Y-126516014D01*
X98499998Y-126516011D01*
X98497187Y-126468808D01*
X98452536Y-126263545D01*
X98452534Y-126263537D01*
X98369841Y-126070433D01*
X98252089Y-125896453D01*
X98103546Y-125747910D01*
X97929566Y-125630158D01*
X97736462Y-125547465D01*
X97736454Y-125547463D01*
X97531192Y-125502812D01*
X97531189Y-125502811D01*
X97483988Y-125500000D01*
X95250000Y-125500000D01*
X95250000Y-127750000D01*
X94750000Y-127750000D01*
X94750000Y-125500000D01*
X92516014Y-125500000D01*
X92516011Y-125500001D01*
X92468808Y-125502812D01*
X92263545Y-125547463D01*
X92263537Y-125547465D01*
X92070433Y-125630158D01*
X91896453Y-125747910D01*
X91747910Y-125896453D01*
X91630158Y-126070433D01*
X91547465Y-126263537D01*
X91547463Y-126263545D01*
X91502812Y-126468807D01*
X91502811Y-126468810D01*
X91500000Y-126516012D01*
X80000500Y-126516012D01*
X80000500Y-121934108D01*
X79966392Y-121806814D01*
X79900500Y-121692686D01*
X79807314Y-121599500D01*
X79750250Y-121566554D01*
X79693187Y-121533608D01*
X79629539Y-121516554D01*
X79565892Y-121499500D01*
X79434108Y-121499500D01*
X79306812Y-121533608D01*
X79192686Y-121599500D01*
X79192683Y-121599502D01*
X79099502Y-121692683D01*
X79099500Y-121692686D01*
X79033608Y-121806812D01*
X78999500Y-121934108D01*
X78999500Y-129065891D01*
X79033608Y-129193187D01*
X79057814Y-129235112D01*
X79099500Y-129307314D01*
X79099502Y-129307316D01*
X79103072Y-129313499D01*
X79119545Y-129381399D01*
X79096693Y-129447426D01*
X79041772Y-129490617D01*
X78995685Y-129499500D01*
X78629822Y-129499500D01*
X78562783Y-129479815D01*
X78517028Y-129427011D01*
X78505822Y-129375160D01*
X78567304Y-106934108D01*
X78999500Y-106934108D01*
X78999500Y-120065891D01*
X79033608Y-120193187D01*
X79056332Y-120232545D01*
X79099500Y-120307314D01*
X79192686Y-120400500D01*
X79306814Y-120466392D01*
X79434108Y-120500500D01*
X79434110Y-120500500D01*
X79565890Y-120500500D01*
X79565892Y-120500500D01*
X79693186Y-120466392D01*
X79807314Y-120400500D01*
X79900500Y-120307314D01*
X79966392Y-120193186D01*
X80000500Y-120065892D01*
X80000500Y-119102135D01*
X88649500Y-119102135D01*
X88649500Y-120897870D01*
X88649501Y-120897876D01*
X88655908Y-120957483D01*
X88706202Y-121092328D01*
X88706206Y-121092335D01*
X88792452Y-121207544D01*
X88792455Y-121207547D01*
X88907664Y-121293793D01*
X88907671Y-121293797D01*
X88952618Y-121310561D01*
X89042517Y-121344091D01*
X89102127Y-121350500D01*
X89112685Y-121350499D01*
X89179723Y-121370179D01*
X89200372Y-121386818D01*
X89870591Y-122057037D01*
X89807007Y-122074075D01*
X89692993Y-122139901D01*
X89599901Y-122232993D01*
X89534075Y-122347007D01*
X89517037Y-122410591D01*
X88884728Y-121778282D01*
X88884727Y-121778282D01*
X88845380Y-121832439D01*
X88748904Y-122021782D01*
X88683242Y-122223869D01*
X88683242Y-122223872D01*
X88650000Y-122433753D01*
X88650000Y-122646246D01*
X88683242Y-122856127D01*
X88683242Y-122856130D01*
X88748904Y-123058217D01*
X88845375Y-123247550D01*
X88884728Y-123301716D01*
X89517037Y-122669408D01*
X89534075Y-122732993D01*
X89599901Y-122847007D01*
X89692993Y-122940099D01*
X89807007Y-123005925D01*
X89870590Y-123022962D01*
X89238282Y-123655269D01*
X89238282Y-123655270D01*
X89292449Y-123694624D01*
X89481782Y-123791095D01*
X89683870Y-123856757D01*
X89893754Y-123890000D01*
X90106246Y-123890000D01*
X90316127Y-123856757D01*
X90316130Y-123856757D01*
X90518217Y-123791095D01*
X90707554Y-123694622D01*
X90761716Y-123655270D01*
X90761717Y-123655270D01*
X90129408Y-123022962D01*
X90192993Y-123005925D01*
X90307007Y-122940099D01*
X90400099Y-122847007D01*
X90465925Y-122732993D01*
X90482962Y-122669408D01*
X91115270Y-123301717D01*
X91115270Y-123301716D01*
X91154622Y-123247554D01*
X91251095Y-123058217D01*
X91316757Y-122856130D01*
X91316757Y-122856127D01*
X91350000Y-122646246D01*
X91350000Y-122433753D01*
X91316757Y-122223872D01*
X91316757Y-122223869D01*
X91251095Y-122021782D01*
X91154624Y-121832449D01*
X91115270Y-121778282D01*
X91115269Y-121778282D01*
X90482962Y-122410590D01*
X90465925Y-122347007D01*
X90400099Y-122232993D01*
X90307007Y-122139901D01*
X90192993Y-122074075D01*
X90129409Y-122057037D01*
X90799627Y-121386818D01*
X90860950Y-121353333D01*
X90887307Y-121350499D01*
X90897872Y-121350499D01*
X90957483Y-121344091D01*
X91092331Y-121293796D01*
X91207546Y-121207546D01*
X91293796Y-121092331D01*
X91344091Y-120957483D01*
X91350500Y-120897873D01*
X91350499Y-119102128D01*
X91344091Y-119042517D01*
X91342114Y-119037217D01*
X91293797Y-118907671D01*
X91293793Y-118907664D01*
X91207547Y-118792455D01*
X91207544Y-118792452D01*
X91092335Y-118706206D01*
X91092328Y-118706202D01*
X90957482Y-118655908D01*
X90957483Y-118655908D01*
X90897883Y-118649501D01*
X90897881Y-118649500D01*
X90897873Y-118649500D01*
X90897864Y-118649500D01*
X89102129Y-118649500D01*
X89102123Y-118649501D01*
X89042516Y-118655908D01*
X88907671Y-118706202D01*
X88907664Y-118706206D01*
X88792455Y-118792452D01*
X88792452Y-118792455D01*
X88706206Y-118907664D01*
X88706202Y-118907671D01*
X88655908Y-119042517D01*
X88649501Y-119102116D01*
X88649501Y-119102123D01*
X88649500Y-119102135D01*
X80000500Y-119102135D01*
X80000500Y-117589983D01*
X99794500Y-117589983D01*
X99794500Y-118790001D01*
X99794501Y-118790018D01*
X99805000Y-118892796D01*
X99805001Y-118892799D01*
X99842364Y-119005552D01*
X99860186Y-119059334D01*
X99952288Y-119208656D01*
X100076344Y-119332712D01*
X100225666Y-119424814D01*
X100307570Y-119451954D01*
X100365015Y-119491727D01*
X100391838Y-119556243D01*
X100379523Y-119625018D01*
X100341451Y-119669978D01*
X100247787Y-119738028D01*
X100247782Y-119738032D01*
X100103028Y-119882786D01*
X99982715Y-120048386D01*
X99889781Y-120230776D01*
X99826522Y-120425465D01*
X99794500Y-120627648D01*
X99794500Y-120832351D01*
X99826522Y-121034534D01*
X99889781Y-121229223D01*
X99982715Y-121411613D01*
X100103028Y-121577213D01*
X100247786Y-121721971D01*
X100364562Y-121806812D01*
X100413390Y-121842287D01*
X100504840Y-121888883D01*
X100506080Y-121889515D01*
X100556876Y-121937490D01*
X100573671Y-122005311D01*
X100551134Y-122071446D01*
X100506080Y-122110485D01*
X100413386Y-122157715D01*
X100247786Y-122278028D01*
X100103028Y-122422786D01*
X99982715Y-122588386D01*
X99889781Y-122770776D01*
X99826522Y-122965465D01*
X99794500Y-123167648D01*
X99794500Y-123372351D01*
X99826522Y-123574534D01*
X99889781Y-123769223D01*
X99900926Y-123791095D01*
X99982712Y-123951609D01*
X99982715Y-123951613D01*
X100103028Y-124117213D01*
X100247786Y-124261971D01*
X100413385Y-124382284D01*
X100413387Y-124382285D01*
X100413390Y-124382287D01*
X100506630Y-124429795D01*
X100557426Y-124477770D01*
X100574221Y-124545591D01*
X100551684Y-124611725D01*
X100506630Y-124650765D01*
X100413644Y-124698143D01*
X100369077Y-124730523D01*
X100369077Y-124730524D01*
X101048554Y-125410000D01*
X101042339Y-125410000D01*
X100940606Y-125437259D01*
X100849394Y-125489920D01*
X100774920Y-125564394D01*
X100722259Y-125655606D01*
X100695000Y-125757339D01*
X100695000Y-125763553D01*
X100015524Y-125084077D01*
X100015523Y-125084077D01*
X99983143Y-125128644D01*
X99890244Y-125310968D01*
X99827009Y-125505582D01*
X99795000Y-125707682D01*
X99795000Y-125912317D01*
X99827009Y-126114417D01*
X99890244Y-126309031D01*
X99983141Y-126491350D01*
X99983147Y-126491359D01*
X100015523Y-126535921D01*
X100015524Y-126535922D01*
X100695000Y-125856446D01*
X100695000Y-125862661D01*
X100722259Y-125964394D01*
X100774920Y-126055606D01*
X100849394Y-126130080D01*
X100940606Y-126182741D01*
X101042339Y-126210000D01*
X101048553Y-126210000D01*
X100369076Y-126889474D01*
X100413650Y-126921859D01*
X100595968Y-127014755D01*
X100790582Y-127077990D01*
X100992683Y-127110000D01*
X101197317Y-127110000D01*
X101399417Y-127077990D01*
X101594031Y-127014755D01*
X101776349Y-126921859D01*
X101820921Y-126889474D01*
X101141447Y-126210000D01*
X101147661Y-126210000D01*
X101249394Y-126182741D01*
X101340606Y-126130080D01*
X101415080Y-126055606D01*
X101467741Y-125964394D01*
X101495000Y-125862661D01*
X101495000Y-125856448D01*
X102174474Y-126535922D01*
X102174474Y-126535921D01*
X102206859Y-126491349D01*
X102299755Y-126309031D01*
X102362990Y-126114417D01*
X102395000Y-125912317D01*
X102395000Y-125707682D01*
X102362990Y-125505582D01*
X102299755Y-125310968D01*
X102206859Y-125128650D01*
X102174474Y-125084077D01*
X102174474Y-125084076D01*
X101495000Y-125763551D01*
X101495000Y-125757339D01*
X101467741Y-125655606D01*
X101415080Y-125564394D01*
X101340606Y-125489920D01*
X101249394Y-125437259D01*
X101147661Y-125410000D01*
X101141446Y-125410000D01*
X101820922Y-124730524D01*
X101820921Y-124730523D01*
X101776359Y-124698147D01*
X101776350Y-124698141D01*
X101683369Y-124650765D01*
X101632573Y-124602790D01*
X101615778Y-124534969D01*
X101638315Y-124468835D01*
X101683370Y-124429795D01*
X101776610Y-124382287D01*
X101924987Y-124274486D01*
X101942213Y-124261971D01*
X101942215Y-124261968D01*
X101942219Y-124261966D01*
X102086966Y-124117219D01*
X102086968Y-124117215D01*
X102086971Y-124117213D01*
X102144989Y-124037356D01*
X102207287Y-123951610D01*
X102300220Y-123769219D01*
X102363477Y-123574534D01*
X102395500Y-123372352D01*
X102395500Y-123167648D01*
X102375282Y-123040000D01*
X102363477Y-122965465D01*
X102309714Y-122800000D01*
X102300220Y-122770781D01*
X102300218Y-122770778D01*
X102300218Y-122770776D01*
X102236440Y-122645606D01*
X102207287Y-122588390D01*
X102172130Y-122540000D01*
X102086971Y-122422786D01*
X101942213Y-122278028D01*
X101776614Y-122157715D01*
X101741652Y-122139901D01*
X101683917Y-122110483D01*
X101633123Y-122062511D01*
X101616328Y-121994690D01*
X101638865Y-121928555D01*
X101683917Y-121889516D01*
X101776610Y-121842287D01*
X101864706Y-121778282D01*
X101942213Y-121721971D01*
X101942215Y-121721968D01*
X101942219Y-121721966D01*
X102086966Y-121577219D01*
X102086968Y-121577215D01*
X102086971Y-121577213D01*
X102143432Y-121499500D01*
X102207287Y-121411610D01*
X102300220Y-121229219D01*
X102363477Y-121034534D01*
X102395500Y-120832352D01*
X102395500Y-120627648D01*
X102384440Y-120557816D01*
X102363477Y-120425465D01*
X102325087Y-120307313D01*
X102300220Y-120230781D01*
X102300218Y-120230778D01*
X102300218Y-120230776D01*
X102257409Y-120146760D01*
X102207287Y-120048390D01*
X102198058Y-120035687D01*
X102086971Y-119882786D01*
X101942219Y-119738034D01*
X101929692Y-119728933D01*
X101848547Y-119669978D01*
X101805882Y-119614649D01*
X101799903Y-119545036D01*
X101832508Y-119483240D01*
X101882426Y-119451955D01*
X101964334Y-119424814D01*
X102113656Y-119332712D01*
X102237712Y-119208656D01*
X102329814Y-119059334D01*
X102384999Y-118892797D01*
X102395500Y-118790009D01*
X102395499Y-117589992D01*
X102384999Y-117487203D01*
X102329814Y-117320666D01*
X102237712Y-117171344D01*
X102113656Y-117047288D01*
X102020888Y-116990069D01*
X101964336Y-116955187D01*
X101964331Y-116955185D01*
X101953138Y-116951476D01*
X101797797Y-116900001D01*
X101797795Y-116900000D01*
X101695010Y-116889500D01*
X100494998Y-116889500D01*
X100494981Y-116889501D01*
X100392203Y-116900000D01*
X100392200Y-116900001D01*
X100225668Y-116955185D01*
X100225663Y-116955187D01*
X100076342Y-117047289D01*
X99952289Y-117171342D01*
X99860187Y-117320663D01*
X99860186Y-117320666D01*
X99805001Y-117487203D01*
X99805001Y-117487204D01*
X99805000Y-117487204D01*
X99794500Y-117589983D01*
X80000500Y-117589983D01*
X80000500Y-108849778D01*
X92174500Y-108849778D01*
X92174500Y-109070221D01*
X92208985Y-109287952D01*
X92277103Y-109497603D01*
X92277104Y-109497606D01*
X92377187Y-109694025D01*
X92506752Y-109872358D01*
X92506756Y-109872363D01*
X92662636Y-110028243D01*
X92662641Y-110028247D01*
X92802254Y-110129682D01*
X92844920Y-110185012D01*
X92850899Y-110254625D01*
X92818293Y-110316420D01*
X92802254Y-110330318D01*
X92662641Y-110431752D01*
X92662636Y-110431756D01*
X92506756Y-110587636D01*
X92506752Y-110587641D01*
X92377187Y-110765974D01*
X92277104Y-110962393D01*
X92277103Y-110962396D01*
X92208985Y-111172047D01*
X92174500Y-111389778D01*
X92174500Y-111610221D01*
X92208985Y-111827952D01*
X92277103Y-112037603D01*
X92277104Y-112037606D01*
X92377187Y-112234025D01*
X92506752Y-112412358D01*
X92506756Y-112412363D01*
X92662640Y-112568247D01*
X92802679Y-112669990D01*
X92845345Y-112725319D01*
X92851324Y-112794933D01*
X92818719Y-112856728D01*
X92802679Y-112870626D01*
X92777485Y-112888930D01*
X92777485Y-112888932D01*
X93445590Y-113557037D01*
X93382007Y-113574075D01*
X93267993Y-113639901D01*
X93174901Y-113732993D01*
X93109075Y-113847007D01*
X93092037Y-113910590D01*
X92423932Y-113242485D01*
X92423931Y-113242485D01*
X92377616Y-113306233D01*
X92277567Y-113502589D01*
X92209473Y-113712164D01*
X92175000Y-113929818D01*
X92175000Y-114150181D01*
X92209473Y-114367835D01*
X92277567Y-114577410D01*
X92377611Y-114773756D01*
X92423932Y-114837513D01*
X93092037Y-114169408D01*
X93109075Y-114232993D01*
X93174901Y-114347007D01*
X93267993Y-114440099D01*
X93382007Y-114505925D01*
X93445590Y-114522962D01*
X92777485Y-115191065D01*
X92777485Y-115191066D01*
X92841243Y-115237388D01*
X93037589Y-115337432D01*
X93247164Y-115405526D01*
X93464819Y-115440000D01*
X93685181Y-115440000D01*
X93902835Y-115405526D01*
X94112410Y-115337432D01*
X94308760Y-115237386D01*
X94372513Y-115191066D01*
X94372514Y-115191066D01*
X93704409Y-114522962D01*
X93767993Y-114505925D01*
X93882007Y-114440099D01*
X93975099Y-114347007D01*
X94040925Y-114232993D01*
X94057962Y-114169410D01*
X94726066Y-114837514D01*
X94726066Y-114837513D01*
X94772386Y-114773760D01*
X94807160Y-114705513D01*
X97519500Y-114705513D01*
X97519500Y-114894486D01*
X97549059Y-115081118D01*
X97607454Y-115260836D01*
X97660619Y-115365177D01*
X97693240Y-115429199D01*
X97804310Y-115582073D01*
X97937927Y-115715690D01*
X98090801Y-115826760D01*
X98132762Y-115848140D01*
X98259163Y-115912545D01*
X98259165Y-115912545D01*
X98259168Y-115912547D01*
X98311387Y-115929514D01*
X98438881Y-115970940D01*
X98625514Y-116000500D01*
X98625519Y-116000500D01*
X98814486Y-116000500D01*
X99001118Y-115970940D01*
X99008455Y-115968556D01*
X99180832Y-115912547D01*
X99349199Y-115826760D01*
X99502073Y-115715690D01*
X99635690Y-115582073D01*
X99746760Y-115429199D01*
X99832547Y-115260832D01*
X99890940Y-115081118D01*
X99920500Y-114894486D01*
X99920500Y-114705513D01*
X102599500Y-114705513D01*
X102599500Y-114894486D01*
X102629059Y-115081118D01*
X102687454Y-115260836D01*
X102740619Y-115365177D01*
X102773240Y-115429199D01*
X102884310Y-115582073D01*
X103017927Y-115715690D01*
X103170801Y-115826760D01*
X103212762Y-115848140D01*
X103339163Y-115912545D01*
X103339165Y-115912545D01*
X103339168Y-115912547D01*
X103391387Y-115929514D01*
X103518881Y-115970940D01*
X103705514Y-116000500D01*
X103705519Y-116000500D01*
X103894486Y-116000500D01*
X104081118Y-115970940D01*
X104088455Y-115968556D01*
X104260832Y-115912547D01*
X104429199Y-115826760D01*
X104582073Y-115715690D01*
X104715690Y-115582073D01*
X104768639Y-115509195D01*
X104823968Y-115466530D01*
X104893581Y-115460551D01*
X104955376Y-115493156D01*
X104956637Y-115494400D01*
X105077927Y-115615690D01*
X105230801Y-115726760D01*
X105310347Y-115767290D01*
X105399163Y-115812545D01*
X105399165Y-115812545D01*
X105399168Y-115812547D01*
X105442908Y-115826759D01*
X105578881Y-115870940D01*
X105765514Y-115900500D01*
X105765519Y-115900500D01*
X105954486Y-115900500D01*
X106141118Y-115870940D01*
X106316191Y-115814054D01*
X106386029Y-115812060D01*
X106445862Y-115848140D01*
X106476691Y-115910840D01*
X106468727Y-115980255D01*
X106442188Y-116019667D01*
X106031648Y-116430208D01*
X105741901Y-116719955D01*
X105680927Y-116780929D01*
X105619953Y-116841902D01*
X105524145Y-116985288D01*
X105524138Y-116985301D01*
X105458146Y-117144621D01*
X105458143Y-117144633D01*
X105424500Y-117313766D01*
X105424500Y-124486233D01*
X105458143Y-124655366D01*
X105458146Y-124655378D01*
X105524138Y-124814698D01*
X105524145Y-124814711D01*
X105619954Y-124958098D01*
X105619957Y-124958102D01*
X107029955Y-126368099D01*
X107130663Y-126468807D01*
X107151902Y-126490046D01*
X107295288Y-126585854D01*
X107295301Y-126585861D01*
X107454621Y-126651853D01*
X107454626Y-126651855D01*
X107617185Y-126684190D01*
X107623766Y-126685499D01*
X107623769Y-126685500D01*
X107623771Y-126685500D01*
X107699953Y-126685500D01*
X107766992Y-126705185D01*
X107787634Y-126721819D01*
X107867786Y-126801971D01*
X107988226Y-126889474D01*
X108033390Y-126922287D01*
X108127032Y-126970000D01*
X108215776Y-127015218D01*
X108215778Y-127015218D01*
X108215781Y-127015220D01*
X108320137Y-127049127D01*
X108410465Y-127078477D01*
X108511557Y-127094488D01*
X108612648Y-127110500D01*
X108612649Y-127110500D01*
X108817351Y-127110500D01*
X108817352Y-127110500D01*
X109019534Y-127078477D01*
X109214219Y-127015220D01*
X109396610Y-126922287D01*
X109489590Y-126854732D01*
X109562213Y-126801971D01*
X109562215Y-126801968D01*
X109562219Y-126801966D01*
X109706966Y-126657219D01*
X109706968Y-126657215D01*
X109706971Y-126657213D01*
X109759732Y-126584590D01*
X109827287Y-126491610D01*
X109920220Y-126309219D01*
X109983477Y-126114534D01*
X110015500Y-125912352D01*
X110015500Y-125707648D01*
X110003227Y-125630158D01*
X109983477Y-125505465D01*
X109933268Y-125350940D01*
X109920220Y-125310781D01*
X109920218Y-125310778D01*
X109920218Y-125310776D01*
X109877409Y-125226760D01*
X109827287Y-125128390D01*
X109804629Y-125097203D01*
X109706971Y-124962786D01*
X109562213Y-124818028D01*
X109396614Y-124697715D01*
X109390006Y-124694348D01*
X109303917Y-124650483D01*
X109253123Y-124602511D01*
X109236328Y-124534690D01*
X109258865Y-124468555D01*
X109303917Y-124429516D01*
X109396610Y-124382287D01*
X109544987Y-124274486D01*
X109562213Y-124261971D01*
X109562215Y-124261968D01*
X109562219Y-124261966D01*
X109706966Y-124117219D01*
X109715471Y-124105513D01*
X110699500Y-124105513D01*
X110699500Y-124294486D01*
X110729059Y-124481118D01*
X110787454Y-124660836D01*
X110865851Y-124814698D01*
X110873240Y-124829199D01*
X110984310Y-124982073D01*
X111117927Y-125115690D01*
X111270801Y-125226760D01*
X111309031Y-125246239D01*
X111439163Y-125312545D01*
X111439165Y-125312545D01*
X111439168Y-125312547D01*
X111535497Y-125343846D01*
X111618881Y-125370940D01*
X111805514Y-125400500D01*
X111805519Y-125400500D01*
X111994486Y-125400500D01*
X112181118Y-125370940D01*
X112242671Y-125350940D01*
X112360832Y-125312547D01*
X112529199Y-125226760D01*
X112682073Y-125115690D01*
X112815690Y-124982073D01*
X112926760Y-124829199D01*
X113012547Y-124660832D01*
X113070940Y-124481118D01*
X113079110Y-124429527D01*
X113109038Y-124366397D01*
X113168349Y-124329465D01*
X113238211Y-124330461D01*
X113296445Y-124369070D01*
X113324056Y-124429527D01*
X113329060Y-124461121D01*
X113387454Y-124640836D01*
X113433153Y-124730524D01*
X113473240Y-124809199D01*
X113584310Y-124962073D01*
X113717927Y-125095690D01*
X113870801Y-125206760D01*
X113948283Y-125246239D01*
X114039163Y-125292545D01*
X114039165Y-125292545D01*
X114039168Y-125292547D01*
X114135497Y-125323846D01*
X114218881Y-125350940D01*
X114405514Y-125380500D01*
X114405519Y-125380500D01*
X114594486Y-125380500D01*
X114781118Y-125350940D01*
X114960832Y-125292547D01*
X115129199Y-125206760D01*
X115138527Y-125199983D01*
X120599500Y-125199983D01*
X120599500Y-126000001D01*
X120599501Y-126000019D01*
X120610000Y-126102796D01*
X120610001Y-126102799D01*
X120657867Y-126247246D01*
X120665186Y-126269334D01*
X120757288Y-126418656D01*
X120881344Y-126542712D01*
X121030666Y-126634814D01*
X121089066Y-126654166D01*
X121137743Y-126684190D01*
X121700000Y-127246446D01*
X121700001Y-127246446D01*
X122262254Y-126684191D01*
X122310930Y-126654167D01*
X122369334Y-126634814D01*
X122518656Y-126542712D01*
X122642712Y-126418656D01*
X122734814Y-126269334D01*
X122789999Y-126102797D01*
X122800500Y-126000009D01*
X122800499Y-125199992D01*
X122791887Y-125115690D01*
X122789999Y-125097203D01*
X122789998Y-125097200D01*
X122751849Y-124982075D01*
X122734814Y-124930666D01*
X122668845Y-124823713D01*
X124649500Y-124823713D01*
X124649500Y-125036286D01*
X124675428Y-125199992D01*
X124682754Y-125246243D01*
X124744819Y-125437259D01*
X124748444Y-125448414D01*
X124844951Y-125637820D01*
X124969890Y-125809786D01*
X125120213Y-125960109D01*
X125292179Y-126085048D01*
X125292181Y-126085049D01*
X125292184Y-126085051D01*
X125301493Y-126089794D01*
X125352290Y-126137766D01*
X125369087Y-126205587D01*
X125346552Y-126271722D01*
X125301505Y-126310760D01*
X125292446Y-126315376D01*
X125292440Y-126315380D01*
X125238282Y-126354727D01*
X125238282Y-126354728D01*
X125870591Y-126987037D01*
X125807007Y-127004075D01*
X125692993Y-127069901D01*
X125599901Y-127162993D01*
X125534075Y-127277007D01*
X125517037Y-127340591D01*
X124884728Y-126708282D01*
X124884727Y-126708282D01*
X124845380Y-126762439D01*
X124748904Y-126951782D01*
X124683242Y-127153869D01*
X124683242Y-127153872D01*
X124650000Y-127363753D01*
X124650000Y-127576246D01*
X124683242Y-127786127D01*
X124683242Y-127786130D01*
X124748904Y-127988217D01*
X124845375Y-128177550D01*
X124884728Y-128231716D01*
X125517037Y-127599408D01*
X125534075Y-127662993D01*
X125599901Y-127777007D01*
X125692993Y-127870099D01*
X125807007Y-127935925D01*
X125870590Y-127952962D01*
X125238282Y-128585269D01*
X125238282Y-128585270D01*
X125292449Y-128624624D01*
X125481782Y-128721095D01*
X125683870Y-128786757D01*
X125893754Y-128820000D01*
X126106246Y-128820000D01*
X126316127Y-128786757D01*
X126316130Y-128786757D01*
X126518217Y-128721095D01*
X126707554Y-128624622D01*
X126761716Y-128585270D01*
X126761717Y-128585270D01*
X126129408Y-127952962D01*
X126192993Y-127935925D01*
X126307007Y-127870099D01*
X126400099Y-127777007D01*
X126465925Y-127662993D01*
X126482962Y-127599408D01*
X127115270Y-128231717D01*
X127115270Y-128231716D01*
X127154622Y-128177554D01*
X127251095Y-127988217D01*
X127316757Y-127786130D01*
X127316757Y-127786127D01*
X127350000Y-127576246D01*
X127350000Y-127363753D01*
X127316757Y-127153872D01*
X127316757Y-127153869D01*
X127251095Y-126951782D01*
X127154624Y-126762449D01*
X127115270Y-126708282D01*
X127115269Y-126708282D01*
X126482962Y-127340590D01*
X126465925Y-127277007D01*
X126400099Y-127162993D01*
X126307007Y-127069901D01*
X126192993Y-127004075D01*
X126129409Y-126987037D01*
X126761716Y-126354728D01*
X126707547Y-126315373D01*
X126707547Y-126315372D01*
X126698500Y-126310763D01*
X126647706Y-126262788D01*
X126630912Y-126194966D01*
X126653451Y-126128832D01*
X126698508Y-126089793D01*
X126707816Y-126085051D01*
X126787007Y-126027515D01*
X126879786Y-125960109D01*
X126879788Y-125960106D01*
X126879792Y-125960104D01*
X127030104Y-125809792D01*
X127030106Y-125809788D01*
X127030109Y-125809786D01*
X127155048Y-125637820D01*
X127155047Y-125637820D01*
X127155051Y-125637816D01*
X127251557Y-125448412D01*
X127317246Y-125246243D01*
X127350500Y-125036287D01*
X127350500Y-124823713D01*
X127317246Y-124613757D01*
X127251557Y-124411588D01*
X127155051Y-124222184D01*
X127155049Y-124222181D01*
X127155048Y-124222179D01*
X127030109Y-124050213D01*
X126879786Y-123899890D01*
X126707820Y-123774951D01*
X126518414Y-123678444D01*
X126518413Y-123678443D01*
X126518412Y-123678443D01*
X126316243Y-123612754D01*
X126316241Y-123612753D01*
X126316240Y-123612753D01*
X126154957Y-123587208D01*
X126106287Y-123579500D01*
X125893713Y-123579500D01*
X125845042Y-123587208D01*
X125683760Y-123612753D01*
X125481585Y-123678444D01*
X125292179Y-123774951D01*
X125120213Y-123899890D01*
X124969890Y-124050213D01*
X124844951Y-124222179D01*
X124748444Y-124411585D01*
X124682753Y-124613760D01*
X124649500Y-124823713D01*
X122668845Y-124823713D01*
X122642712Y-124781344D01*
X122518656Y-124657288D01*
X122404924Y-124587138D01*
X122369336Y-124565187D01*
X122369331Y-124565185D01*
X122366977Y-124564405D01*
X122202797Y-124510001D01*
X122202795Y-124510000D01*
X122100010Y-124499500D01*
X121299998Y-124499500D01*
X121299980Y-124499501D01*
X121197203Y-124510000D01*
X121197200Y-124510001D01*
X121030668Y-124565185D01*
X121030663Y-124565187D01*
X120881342Y-124657289D01*
X120757289Y-124781342D01*
X120665187Y-124930663D01*
X120665185Y-124930668D01*
X120654779Y-124962073D01*
X120610001Y-125097203D01*
X120610001Y-125097204D01*
X120610000Y-125097204D01*
X120599500Y-125199983D01*
X115138527Y-125199983D01*
X115282073Y-125095690D01*
X115415690Y-124962073D01*
X115526760Y-124809199D01*
X115612547Y-124640832D01*
X115670940Y-124461118D01*
X115675943Y-124429532D01*
X115700500Y-124274486D01*
X115700500Y-124085513D01*
X115670940Y-123898881D01*
X115628811Y-123769223D01*
X115612547Y-123719168D01*
X115612545Y-123719165D01*
X115612545Y-123719163D01*
X115579989Y-123655269D01*
X115526760Y-123550801D01*
X115498467Y-123511859D01*
X115493559Y-123505103D01*
X115493557Y-123505101D01*
X115445481Y-123438931D01*
X115415690Y-123397927D01*
X115282073Y-123264310D01*
X115129199Y-123153240D01*
X114960836Y-123067454D01*
X114781118Y-123009059D01*
X114594486Y-122979500D01*
X114594481Y-122979500D01*
X114405519Y-122979500D01*
X114405514Y-122979500D01*
X114218881Y-123009059D01*
X114039163Y-123067454D01*
X113870800Y-123153240D01*
X113783579Y-123216610D01*
X113717927Y-123264310D01*
X113717925Y-123264312D01*
X113717924Y-123264312D01*
X113584312Y-123397924D01*
X113584312Y-123397925D01*
X113584310Y-123397927D01*
X113554519Y-123438931D01*
X113473240Y-123550800D01*
X113387454Y-123719163D01*
X113329059Y-123898881D01*
X113320889Y-123950469D01*
X113290959Y-124013604D01*
X113231648Y-124050535D01*
X113161785Y-124049537D01*
X113103553Y-124010927D01*
X113075943Y-123950469D01*
X113070940Y-123918881D01*
X113029419Y-123791095D01*
X113012547Y-123739168D01*
X113012545Y-123739165D01*
X113012545Y-123739163D01*
X112948136Y-123612754D01*
X112926760Y-123570801D01*
X112815690Y-123417927D01*
X112682073Y-123284310D01*
X112529199Y-123173240D01*
X112489947Y-123153240D01*
X112360836Y-123087454D01*
X112181118Y-123029059D01*
X111994486Y-122999500D01*
X111994481Y-122999500D01*
X111805519Y-122999500D01*
X111805514Y-122999500D01*
X111618881Y-123029059D01*
X111439163Y-123087454D01*
X111270800Y-123173240D01*
X111256540Y-123183601D01*
X111117927Y-123284310D01*
X111117925Y-123284312D01*
X111117924Y-123284312D01*
X110984312Y-123417924D01*
X110984312Y-123417925D01*
X110984310Y-123417927D01*
X110969050Y-123438931D01*
X110873240Y-123570800D01*
X110787454Y-123739163D01*
X110729059Y-123918881D01*
X110699500Y-124105513D01*
X109715471Y-124105513D01*
X109738602Y-124073675D01*
X109771958Y-124027765D01*
X109771960Y-124027762D01*
X109784605Y-124010356D01*
X109827287Y-123951610D01*
X109920220Y-123769219D01*
X109983477Y-123574534D01*
X110015500Y-123372352D01*
X110015500Y-123167648D01*
X109995282Y-123040000D01*
X109983477Y-122965465D01*
X109929714Y-122800000D01*
X109920220Y-122770781D01*
X109920218Y-122770778D01*
X109920218Y-122770776D01*
X109856440Y-122645606D01*
X109827287Y-122588390D01*
X109792130Y-122540000D01*
X109706971Y-122422786D01*
X109581867Y-122297682D01*
X116000000Y-122297682D01*
X116000000Y-122502317D01*
X116032009Y-122704417D01*
X116095244Y-122899031D01*
X116188141Y-123081350D01*
X116188147Y-123081359D01*
X116220523Y-123125921D01*
X116220524Y-123125922D01*
X116900000Y-122446446D01*
X116900000Y-122452661D01*
X116927259Y-122554394D01*
X116979920Y-122645606D01*
X117054394Y-122720080D01*
X117145606Y-122772741D01*
X117247339Y-122800000D01*
X117253553Y-122800000D01*
X116574076Y-123479474D01*
X116618650Y-123511859D01*
X116800968Y-123604755D01*
X116995582Y-123667990D01*
X117197683Y-123700000D01*
X117402317Y-123700000D01*
X117604417Y-123667990D01*
X117799031Y-123604755D01*
X117981349Y-123511859D01*
X118025921Y-123479474D01*
X117346447Y-122800000D01*
X117352661Y-122800000D01*
X117454394Y-122772741D01*
X117545606Y-122720080D01*
X117620080Y-122645606D01*
X117672741Y-122554394D01*
X117700000Y-122452661D01*
X117700000Y-122446447D01*
X118379474Y-123125921D01*
X118411859Y-123081349D01*
X118504755Y-122899031D01*
X118567990Y-122704417D01*
X118600000Y-122502317D01*
X118600000Y-122297682D01*
X118599995Y-122297648D01*
X120999500Y-122297648D01*
X120999500Y-122502351D01*
X121031522Y-122704534D01*
X121094781Y-122899223D01*
X121150746Y-123009059D01*
X121187585Y-123081359D01*
X121187715Y-123081613D01*
X121308028Y-123247213D01*
X121452786Y-123391971D01*
X121573226Y-123479474D01*
X121618390Y-123512287D01*
X121733228Y-123570800D01*
X121800776Y-123605218D01*
X121800778Y-123605218D01*
X121800781Y-123605220D01*
X121905137Y-123639127D01*
X121995465Y-123668477D01*
X122058394Y-123678444D01*
X122197648Y-123700500D01*
X122197649Y-123700500D01*
X122402351Y-123700500D01*
X122402352Y-123700500D01*
X122604534Y-123668477D01*
X122799219Y-123605220D01*
X122981610Y-123512287D01*
X123109276Y-123419533D01*
X123147213Y-123391971D01*
X123147215Y-123391968D01*
X123147219Y-123391966D01*
X123291966Y-123247219D01*
X123291968Y-123247215D01*
X123291971Y-123247213D01*
X123360245Y-123153240D01*
X123412287Y-123081610D01*
X123505220Y-122899219D01*
X123568477Y-122704534D01*
X123600500Y-122502352D01*
X123600500Y-122297648D01*
X123592257Y-122245606D01*
X123568477Y-122095465D01*
X123516049Y-121934110D01*
X123505220Y-121900781D01*
X123505218Y-121900778D01*
X123505218Y-121900776D01*
X123457340Y-121806812D01*
X123412287Y-121718390D01*
X123380092Y-121674077D01*
X123291971Y-121552786D01*
X123147213Y-121408028D01*
X122981613Y-121287715D01*
X122981612Y-121287714D01*
X122981610Y-121287713D01*
X122924653Y-121258691D01*
X122799223Y-121194781D01*
X122604534Y-121131522D01*
X122415339Y-121101557D01*
X122402352Y-121099500D01*
X122197648Y-121099500D01*
X122184661Y-121101557D01*
X121995465Y-121131522D01*
X121800776Y-121194781D01*
X121618386Y-121287715D01*
X121452786Y-121408028D01*
X121308028Y-121552786D01*
X121187715Y-121718386D01*
X121094781Y-121900776D01*
X121031522Y-122095465D01*
X120999500Y-122297648D01*
X118599995Y-122297648D01*
X118567990Y-122095582D01*
X118504755Y-121900968D01*
X118411859Y-121718650D01*
X118379474Y-121674077D01*
X118379474Y-121674076D01*
X117700000Y-122353551D01*
X117700000Y-122347339D01*
X117672741Y-122245606D01*
X117620080Y-122154394D01*
X117545606Y-122079920D01*
X117454394Y-122027259D01*
X117352661Y-122000000D01*
X117346446Y-122000000D01*
X118025922Y-121320524D01*
X118025921Y-121320523D01*
X117981359Y-121288147D01*
X117981350Y-121288141D01*
X117799031Y-121195244D01*
X117604417Y-121132009D01*
X117402317Y-121100000D01*
X117197683Y-121100000D01*
X116995582Y-121132009D01*
X116800968Y-121195244D01*
X116618644Y-121288143D01*
X116574077Y-121320523D01*
X116574077Y-121320524D01*
X117253554Y-122000000D01*
X117247339Y-122000000D01*
X117145606Y-122027259D01*
X117054394Y-122079920D01*
X116979920Y-122154394D01*
X116927259Y-122245606D01*
X116900000Y-122347339D01*
X116900000Y-122353553D01*
X116220524Y-121674077D01*
X116220523Y-121674077D01*
X116188143Y-121718644D01*
X116095244Y-121900968D01*
X116032009Y-122095582D01*
X116000000Y-122297682D01*
X109581867Y-122297682D01*
X109562213Y-122278028D01*
X109396614Y-122157715D01*
X109361652Y-122139901D01*
X109303917Y-122110483D01*
X109253123Y-122062511D01*
X109236328Y-121994690D01*
X109258865Y-121928555D01*
X109303917Y-121889516D01*
X109396610Y-121842287D01*
X109484706Y-121778282D01*
X109562213Y-121721971D01*
X109562215Y-121721968D01*
X109562219Y-121721966D01*
X109706966Y-121577219D01*
X109706968Y-121577215D01*
X109706971Y-121577213D01*
X109763432Y-121499500D01*
X109827287Y-121411610D01*
X109887317Y-121293796D01*
X109920218Y-121229223D01*
X109920218Y-121229222D01*
X109920220Y-121229219D01*
X109983477Y-121034534D01*
X110015500Y-120832352D01*
X110015500Y-120627648D01*
X110004440Y-120557816D01*
X109983477Y-120425465D01*
X109945087Y-120307313D01*
X109920220Y-120230781D01*
X109920218Y-120230778D01*
X109920218Y-120230776D01*
X109877409Y-120146760D01*
X109827287Y-120048390D01*
X109818058Y-120035687D01*
X109706971Y-119882786D01*
X109562213Y-119738028D01*
X109396614Y-119617715D01*
X109390006Y-119614348D01*
X109303917Y-119570483D01*
X109253123Y-119522511D01*
X109236328Y-119454690D01*
X109258865Y-119388555D01*
X109303917Y-119349516D01*
X109396610Y-119302287D01*
X109420683Y-119284797D01*
X109562213Y-119181971D01*
X109562215Y-119181968D01*
X109562219Y-119181966D01*
X109706966Y-119037219D01*
X109715471Y-119025513D01*
X110699500Y-119025513D01*
X110699500Y-119214486D01*
X110729059Y-119401118D01*
X110787454Y-119580836D01*
X110862914Y-119728933D01*
X110873240Y-119749199D01*
X110984310Y-119902073D01*
X111117927Y-120035690D01*
X111270801Y-120146760D01*
X111309031Y-120166239D01*
X111439163Y-120232545D01*
X111439165Y-120232545D01*
X111439168Y-120232547D01*
X111535497Y-120263846D01*
X111618881Y-120290940D01*
X111805514Y-120320500D01*
X111805519Y-120320500D01*
X111994486Y-120320500D01*
X112181118Y-120290940D01*
X112360832Y-120232547D01*
X112529199Y-120146760D01*
X112582710Y-120107882D01*
X113845669Y-120107882D01*
X113845670Y-120107883D01*
X113871059Y-120126329D01*
X114039362Y-120212085D01*
X114218997Y-120270451D01*
X114405553Y-120300000D01*
X114594447Y-120300000D01*
X114781002Y-120270451D01*
X114960637Y-120212085D01*
X115128937Y-120126331D01*
X115154328Y-120107883D01*
X115154328Y-120107882D01*
X114500001Y-119453554D01*
X114500000Y-119453554D01*
X113845669Y-120107882D01*
X112582710Y-120107882D01*
X112682073Y-120035690D01*
X112815690Y-119902073D01*
X112926760Y-119749199D01*
X113012547Y-119580832D01*
X113070940Y-119401118D01*
X113079364Y-119347931D01*
X113109293Y-119284797D01*
X113168604Y-119247865D01*
X113238467Y-119248863D01*
X113296700Y-119287472D01*
X113324310Y-119347931D01*
X113329548Y-119381002D01*
X113387914Y-119560637D01*
X113473666Y-119728933D01*
X113492116Y-119754328D01*
X114146446Y-119100000D01*
X114146446Y-119099999D01*
X114100369Y-119053922D01*
X114150000Y-119053922D01*
X114150000Y-119146078D01*
X114173852Y-119235095D01*
X114219930Y-119314905D01*
X114285095Y-119380070D01*
X114364905Y-119426148D01*
X114453922Y-119450000D01*
X114546078Y-119450000D01*
X114635095Y-119426148D01*
X114714905Y-119380070D01*
X114780070Y-119314905D01*
X114826148Y-119235095D01*
X114850000Y-119146078D01*
X114850000Y-119099999D01*
X114853554Y-119099999D01*
X114853554Y-119100000D01*
X115507882Y-119754328D01*
X115507883Y-119754328D01*
X115526331Y-119728937D01*
X115612085Y-119560637D01*
X115670451Y-119381002D01*
X115700000Y-119194447D01*
X115700000Y-119005552D01*
X115670451Y-118818997D01*
X115612085Y-118639362D01*
X115526329Y-118471059D01*
X115507883Y-118445670D01*
X115507882Y-118445669D01*
X114853554Y-119099999D01*
X114850000Y-119099999D01*
X114850000Y-119053922D01*
X114826148Y-118964905D01*
X114780070Y-118885095D01*
X114714905Y-118819930D01*
X114635095Y-118773852D01*
X114546078Y-118750000D01*
X114453922Y-118750000D01*
X114364905Y-118773852D01*
X114285095Y-118819930D01*
X114219930Y-118885095D01*
X114173852Y-118964905D01*
X114150000Y-119053922D01*
X114100369Y-119053922D01*
X113492116Y-118445669D01*
X113492116Y-118445670D01*
X113473669Y-118471060D01*
X113387914Y-118639362D01*
X113329548Y-118818997D01*
X113321142Y-118872069D01*
X113291212Y-118935203D01*
X113231900Y-118972134D01*
X113162038Y-118971136D01*
X113103805Y-118932525D01*
X113076196Y-118872067D01*
X113070940Y-118838881D01*
X113042060Y-118750000D01*
X113012547Y-118659168D01*
X113012545Y-118659165D01*
X113012545Y-118659163D01*
X112940359Y-118517491D01*
X112926760Y-118490801D01*
X112815690Y-118337927D01*
X112682073Y-118204310D01*
X112529199Y-118093240D01*
X112526993Y-118092116D01*
X113845669Y-118092116D01*
X114500000Y-118746446D01*
X114500001Y-118746446D01*
X115154328Y-118092116D01*
X115128933Y-118073666D01*
X114960637Y-117987914D01*
X114781002Y-117929548D01*
X114594447Y-117900000D01*
X114405553Y-117900000D01*
X114218997Y-117929548D01*
X114039362Y-117987914D01*
X113871060Y-118073669D01*
X113845670Y-118092116D01*
X113845669Y-118092116D01*
X112526993Y-118092116D01*
X112490783Y-118073666D01*
X112360836Y-118007454D01*
X112181118Y-117949059D01*
X111994486Y-117919500D01*
X111994481Y-117919500D01*
X111805519Y-117919500D01*
X111805514Y-117919500D01*
X111618881Y-117949059D01*
X111439163Y-118007454D01*
X111270800Y-118093240D01*
X111256540Y-118103601D01*
X111117927Y-118204310D01*
X111117925Y-118204312D01*
X111117924Y-118204312D01*
X110984312Y-118337924D01*
X110984312Y-118337925D01*
X110984310Y-118337927D01*
X110982725Y-118340109D01*
X110873240Y-118490800D01*
X110787454Y-118659163D01*
X110729059Y-118838881D01*
X110699500Y-119025513D01*
X109715471Y-119025513D01*
X109754978Y-118971136D01*
X109771958Y-118947765D01*
X109771960Y-118947762D01*
X109811892Y-118892799D01*
X109827287Y-118871610D01*
X109920220Y-118689219D01*
X109983477Y-118494534D01*
X110015500Y-118292352D01*
X110015500Y-118087648D01*
X110002798Y-118007453D01*
X109983477Y-117885465D01*
X109920218Y-117690776D01*
X109868865Y-117589991D01*
X109827287Y-117508390D01*
X109811892Y-117487200D01*
X109706971Y-117342786D01*
X109562213Y-117198028D01*
X109396613Y-117077715D01*
X109396612Y-117077714D01*
X109396610Y-117077713D01*
X109336898Y-117047288D01*
X109214223Y-116984781D01*
X109019534Y-116921522D01*
X108844995Y-116893878D01*
X108817352Y-116889500D01*
X108612648Y-116889500D01*
X108546355Y-116900000D01*
X108410464Y-116921523D01*
X108410461Y-116921523D01*
X108318278Y-116951476D01*
X108248437Y-116953471D01*
X108188604Y-116917391D01*
X108157776Y-116854690D01*
X108165741Y-116785275D01*
X108192276Y-116745867D01*
X109326325Y-115611819D01*
X109387648Y-115578334D01*
X109414006Y-115575500D01*
X110066375Y-115575500D01*
X110133414Y-115595185D01*
X110154056Y-115611819D01*
X110157927Y-115615690D01*
X110310801Y-115726760D01*
X110390347Y-115767290D01*
X110479163Y-115812545D01*
X110479165Y-115812545D01*
X110479168Y-115812547D01*
X110522908Y-115826759D01*
X110658881Y-115870940D01*
X110845514Y-115900500D01*
X110845519Y-115900500D01*
X111034486Y-115900500D01*
X111221118Y-115870940D01*
X111400832Y-115812547D01*
X111569199Y-115726760D01*
X111722073Y-115615690D01*
X111855690Y-115482073D01*
X111966760Y-115329199D01*
X112052547Y-115160832D01*
X112110940Y-114981118D01*
X112124662Y-114894481D01*
X112140500Y-114794486D01*
X112140500Y-114605513D01*
X112110940Y-114418881D01*
X112083846Y-114335497D01*
X112052547Y-114239168D01*
X112052545Y-114239165D01*
X112052545Y-114239163D01*
X111981892Y-114100500D01*
X111966760Y-114070801D01*
X111855690Y-113917927D01*
X111722073Y-113784310D01*
X111569199Y-113673240D01*
X111518126Y-113647217D01*
X111400836Y-113587454D01*
X111221118Y-113529059D01*
X111034486Y-113499500D01*
X111034481Y-113499500D01*
X110845519Y-113499500D01*
X110845514Y-113499500D01*
X110658881Y-113529059D01*
X110479163Y-113587454D01*
X110310800Y-113673240D01*
X110257227Y-113712164D01*
X110157927Y-113784310D01*
X110157925Y-113784312D01*
X110157924Y-113784312D01*
X110154056Y-113788181D01*
X110092733Y-113821666D01*
X110066375Y-113824500D01*
X108913768Y-113824500D01*
X108744633Y-113858143D01*
X108744621Y-113858146D01*
X108585301Y-113924138D01*
X108585288Y-113924145D01*
X108444940Y-114017922D01*
X108444941Y-114017923D01*
X108441906Y-114019950D01*
X108441898Y-114019957D01*
X107179667Y-115282188D01*
X107118344Y-115315673D01*
X107048652Y-115310689D01*
X106992719Y-115268817D01*
X106968302Y-115203353D01*
X106974054Y-115156192D01*
X107030940Y-114981118D01*
X107044662Y-114894481D01*
X107060500Y-114794486D01*
X107060500Y-114605513D01*
X107030940Y-114418881D01*
X107003846Y-114335497D01*
X106972547Y-114239168D01*
X106972545Y-114239165D01*
X106972545Y-114239163D01*
X106901892Y-114100500D01*
X106886760Y-114070801D01*
X106775690Y-113917927D01*
X106642073Y-113784310D01*
X106489199Y-113673240D01*
X106438126Y-113647217D01*
X106320836Y-113587454D01*
X106141118Y-113529059D01*
X105954486Y-113499500D01*
X105954481Y-113499500D01*
X105765519Y-113499500D01*
X105765514Y-113499500D01*
X105578881Y-113529059D01*
X105399163Y-113587454D01*
X105230800Y-113673240D01*
X105177227Y-113712164D01*
X105077927Y-113784310D01*
X105077925Y-113784312D01*
X105077924Y-113784312D01*
X104944309Y-113917927D01*
X104891360Y-113990805D01*
X104836030Y-114033470D01*
X104766416Y-114039448D01*
X104704622Y-114006841D01*
X104703362Y-114005599D01*
X104582075Y-113884312D01*
X104582073Y-113884310D01*
X104429199Y-113773240D01*
X104260836Y-113687454D01*
X104081118Y-113629059D01*
X103894486Y-113599500D01*
X103894481Y-113599500D01*
X103705519Y-113599500D01*
X103705514Y-113599500D01*
X103518881Y-113629059D01*
X103339163Y-113687454D01*
X103170800Y-113773240D01*
X103100248Y-113824500D01*
X103017927Y-113884310D01*
X103017925Y-113884312D01*
X103017924Y-113884312D01*
X102928063Y-113974174D01*
X102884310Y-114017927D01*
X102845895Y-114070801D01*
X102773240Y-114170800D01*
X102687454Y-114339163D01*
X102629059Y-114518881D01*
X102599500Y-114705513D01*
X99920500Y-114705513D01*
X99890940Y-114518881D01*
X99850218Y-114393553D01*
X99832547Y-114339168D01*
X99832545Y-114339165D01*
X99832545Y-114339163D01*
X99746759Y-114170800D01*
X99635690Y-114017927D01*
X99502073Y-113884310D01*
X99349199Y-113773240D01*
X99180836Y-113687454D01*
X99001118Y-113629059D01*
X98814486Y-113599500D01*
X98814481Y-113599500D01*
X98625519Y-113599500D01*
X98625514Y-113599500D01*
X98438881Y-113629059D01*
X98259163Y-113687454D01*
X98090800Y-113773240D01*
X98020248Y-113824500D01*
X97937927Y-113884310D01*
X97937925Y-113884312D01*
X97937924Y-113884312D01*
X97848063Y-113974174D01*
X97804310Y-114017927D01*
X97765895Y-114070801D01*
X97693240Y-114170800D01*
X97607454Y-114339163D01*
X97549059Y-114518881D01*
X97519500Y-114705513D01*
X94807160Y-114705513D01*
X94838324Y-114644352D01*
X94872432Y-114577410D01*
X94940526Y-114367835D01*
X94975000Y-114150181D01*
X94975000Y-113929818D01*
X94940526Y-113712164D01*
X94872432Y-113502589D01*
X94772388Y-113306243D01*
X94726066Y-113242485D01*
X94726065Y-113242485D01*
X94057962Y-113910589D01*
X94040925Y-113847007D01*
X93975099Y-113732993D01*
X93882007Y-113639901D01*
X93767993Y-113574075D01*
X93704407Y-113557037D01*
X94372513Y-112888932D01*
X94347319Y-112870628D01*
X94330136Y-112848345D01*
X94310534Y-112828175D01*
X94309090Y-112821053D01*
X94304653Y-112815298D01*
X94302245Y-112787268D01*
X94296659Y-112759697D01*
X94299295Y-112752924D01*
X94298674Y-112745685D01*
X94311799Y-112720807D01*
X94320817Y-112697648D01*
X113899500Y-112697648D01*
X113899500Y-112902351D01*
X113931522Y-113104534D01*
X113994781Y-113299223D01*
X114058691Y-113424653D01*
X114087585Y-113481359D01*
X114087715Y-113481613D01*
X114208028Y-113647213D01*
X114352786Y-113791971D01*
X114488007Y-113890213D01*
X114518390Y-113912287D01*
X114634607Y-113971503D01*
X114700776Y-114005218D01*
X114700778Y-114005218D01*
X114700781Y-114005220D01*
X114746131Y-114019955D01*
X114895465Y-114068477D01*
X114996557Y-114084488D01*
X115097648Y-114100500D01*
X115097649Y-114100500D01*
X115302351Y-114100500D01*
X115302352Y-114100500D01*
X115504534Y-114068477D01*
X115699219Y-114005220D01*
X115881610Y-113912287D01*
X115974590Y-113844732D01*
X116047213Y-113791971D01*
X116047215Y-113791968D01*
X116047219Y-113791966D01*
X116191966Y-113647219D01*
X116191968Y-113647215D01*
X116191971Y-113647213D01*
X116253509Y-113562512D01*
X116312287Y-113481610D01*
X116405220Y-113299219D01*
X116468477Y-113104534D01*
X116500500Y-112902352D01*
X116500500Y-112697682D01*
X118900000Y-112697682D01*
X118900000Y-112902317D01*
X118932009Y-113104417D01*
X118995244Y-113299031D01*
X119088141Y-113481350D01*
X119088147Y-113481359D01*
X119120523Y-113525921D01*
X119120524Y-113525922D01*
X119800000Y-112846446D01*
X119800000Y-112852661D01*
X119827259Y-112954394D01*
X119879920Y-113045606D01*
X119954394Y-113120080D01*
X120045606Y-113172741D01*
X120147339Y-113200000D01*
X120153553Y-113200000D01*
X119474076Y-113879474D01*
X119518650Y-113911859D01*
X119700968Y-114004755D01*
X119895582Y-114067990D01*
X120097683Y-114100000D01*
X120302317Y-114100000D01*
X120504417Y-114067990D01*
X120699031Y-114004755D01*
X120881349Y-113911859D01*
X120925921Y-113879474D01*
X120246447Y-113200000D01*
X120252661Y-113200000D01*
X120354394Y-113172741D01*
X120445606Y-113120080D01*
X120520080Y-113045606D01*
X120572741Y-112954394D01*
X120600000Y-112852661D01*
X120600000Y-112846448D01*
X121279474Y-113525922D01*
X121279474Y-113525921D01*
X121311859Y-113481349D01*
X121404755Y-113299031D01*
X121467990Y-113104417D01*
X121500000Y-112902317D01*
X121500000Y-112697682D01*
X121467990Y-112495582D01*
X121404755Y-112300968D01*
X121311859Y-112118650D01*
X121279474Y-112074077D01*
X121279474Y-112074076D01*
X120600000Y-112753551D01*
X120600000Y-112747339D01*
X120572741Y-112645606D01*
X120520080Y-112554394D01*
X120445606Y-112479920D01*
X120354394Y-112427259D01*
X120252661Y-112400000D01*
X120246446Y-112400000D01*
X120925922Y-111720524D01*
X120925921Y-111720523D01*
X120881359Y-111688147D01*
X120881350Y-111688141D01*
X120699031Y-111595244D01*
X120504417Y-111532009D01*
X120302317Y-111500000D01*
X120097683Y-111500000D01*
X119895582Y-111532009D01*
X119700968Y-111595244D01*
X119518644Y-111688143D01*
X119474077Y-111720523D01*
X119474077Y-111720524D01*
X120153554Y-112400000D01*
X120147339Y-112400000D01*
X120045606Y-112427259D01*
X119954394Y-112479920D01*
X119879920Y-112554394D01*
X119827259Y-112645606D01*
X119800000Y-112747339D01*
X119800000Y-112753553D01*
X119120524Y-112074077D01*
X119120523Y-112074077D01*
X119088143Y-112118644D01*
X118995244Y-112300968D01*
X118932009Y-112495582D01*
X118900000Y-112697682D01*
X116500500Y-112697682D01*
X116500500Y-112697648D01*
X116498321Y-112683889D01*
X116468477Y-112495465D01*
X116437458Y-112400000D01*
X116405220Y-112300781D01*
X116405218Y-112300778D01*
X116405218Y-112300776D01*
X116371205Y-112234022D01*
X116312287Y-112118390D01*
X116280092Y-112074077D01*
X116191971Y-111952786D01*
X116047213Y-111808028D01*
X115881613Y-111687715D01*
X115881612Y-111687714D01*
X115881610Y-111687713D01*
X115824653Y-111658691D01*
X115699223Y-111594781D01*
X115504534Y-111531522D01*
X115329995Y-111503878D01*
X115302352Y-111499500D01*
X115097648Y-111499500D01*
X115073329Y-111503351D01*
X114895465Y-111531522D01*
X114700776Y-111594781D01*
X114518386Y-111687715D01*
X114352786Y-111808028D01*
X114208028Y-111952786D01*
X114087715Y-112118386D01*
X113994781Y-112300776D01*
X113931522Y-112495465D01*
X113899500Y-112697648D01*
X94320817Y-112697648D01*
X94322008Y-112694588D01*
X94329449Y-112687356D01*
X94331279Y-112683889D01*
X94347319Y-112669991D01*
X94454035Y-112592458D01*
X94454036Y-112592457D01*
X94487361Y-112568245D01*
X94487361Y-112568244D01*
X94487365Y-112568242D01*
X94643242Y-112412365D01*
X94772815Y-112234022D01*
X94872895Y-112037606D01*
X94941015Y-111827951D01*
X94975500Y-111610222D01*
X94975500Y-111389778D01*
X94941015Y-111172049D01*
X94878110Y-110978443D01*
X94872896Y-110962396D01*
X94872895Y-110962393D01*
X94813105Y-110845051D01*
X94772815Y-110765978D01*
X94756260Y-110743192D01*
X94643247Y-110587641D01*
X94643243Y-110587636D01*
X94487363Y-110431756D01*
X94487358Y-110431752D01*
X94347745Y-110330318D01*
X94305079Y-110274989D01*
X94299100Y-110205375D01*
X94331705Y-110143580D01*
X94347745Y-110129682D01*
X94487358Y-110028247D01*
X94487356Y-110028247D01*
X94487365Y-110028242D01*
X94643242Y-109872365D01*
X94772815Y-109694022D01*
X94868866Y-109505513D01*
X102559500Y-109505513D01*
X102559500Y-109694486D01*
X102589059Y-109881118D01*
X102647454Y-110060836D01*
X102733240Y-110229199D01*
X102844310Y-110382073D01*
X102977927Y-110515690D01*
X103130801Y-110626760D01*
X103165685Y-110644534D01*
X103299163Y-110712545D01*
X103299165Y-110712545D01*
X103299168Y-110712547D01*
X103395497Y-110743846D01*
X103478881Y-110770940D01*
X103665514Y-110800500D01*
X103665519Y-110800500D01*
X103854486Y-110800500D01*
X104041118Y-110770940D01*
X104056389Y-110765978D01*
X104220832Y-110712547D01*
X104389199Y-110626760D01*
X104542073Y-110515690D01*
X104675690Y-110382073D01*
X104786760Y-110229199D01*
X104872547Y-110060832D01*
X104930940Y-109881118D01*
X104943415Y-109802352D01*
X104960500Y-109694486D01*
X104960500Y-109505513D01*
X107639500Y-109505513D01*
X107639500Y-109694486D01*
X107669059Y-109881118D01*
X107727454Y-110060836D01*
X107813240Y-110229199D01*
X107924310Y-110382073D01*
X108057927Y-110515690D01*
X108210801Y-110626760D01*
X108245685Y-110644534D01*
X108379163Y-110712545D01*
X108379165Y-110712545D01*
X108379168Y-110712547D01*
X108475497Y-110743846D01*
X108558881Y-110770940D01*
X108745514Y-110800500D01*
X108745519Y-110800500D01*
X108934486Y-110800500D01*
X109121118Y-110770940D01*
X109136389Y-110765978D01*
X109300832Y-110712547D01*
X109469199Y-110626760D01*
X109622073Y-110515690D01*
X109755690Y-110382073D01*
X109866760Y-110229199D01*
X109952547Y-110060832D01*
X110010940Y-109881118D01*
X110023415Y-109802352D01*
X110040500Y-109694486D01*
X110040500Y-109597648D01*
X113899500Y-109597648D01*
X113899500Y-109802351D01*
X113931522Y-110004534D01*
X113994781Y-110199223D01*
X114047244Y-110302185D01*
X114087585Y-110381359D01*
X114087715Y-110381613D01*
X114208028Y-110547213D01*
X114352786Y-110691971D01*
X114461480Y-110770940D01*
X114518390Y-110812287D01*
X114634607Y-110871503D01*
X114700776Y-110905218D01*
X114700778Y-110905218D01*
X114700781Y-110905220D01*
X114805137Y-110939127D01*
X114895465Y-110968477D01*
X114996557Y-110984488D01*
X115097648Y-111000500D01*
X115097649Y-111000500D01*
X115302351Y-111000500D01*
X115302352Y-111000500D01*
X115504534Y-110968477D01*
X115699219Y-110905220D01*
X115881610Y-110812287D01*
X115974590Y-110744732D01*
X116047213Y-110691971D01*
X116047215Y-110691968D01*
X116047219Y-110691966D01*
X116191966Y-110547219D01*
X116191968Y-110547215D01*
X116191971Y-110547213D01*
X116244732Y-110474590D01*
X116312287Y-110381610D01*
X116405220Y-110199219D01*
X116468477Y-110004534D01*
X116500500Y-109802352D01*
X116500500Y-109597682D01*
X118900000Y-109597682D01*
X118900000Y-109802317D01*
X118932009Y-110004417D01*
X118995244Y-110199031D01*
X119088141Y-110381350D01*
X119088147Y-110381359D01*
X119120523Y-110425921D01*
X119120524Y-110425922D01*
X119800000Y-109746446D01*
X119800000Y-109752661D01*
X119827259Y-109854394D01*
X119879920Y-109945606D01*
X119954394Y-110020080D01*
X120045606Y-110072741D01*
X120147339Y-110100000D01*
X120153553Y-110100000D01*
X119474076Y-110779474D01*
X119518650Y-110811859D01*
X119700968Y-110904755D01*
X119895582Y-110967990D01*
X120097683Y-111000000D01*
X120302317Y-111000000D01*
X120504417Y-110967990D01*
X120699031Y-110904755D01*
X120881349Y-110811859D01*
X120925921Y-110779474D01*
X120246447Y-110100000D01*
X120252661Y-110100000D01*
X120354394Y-110072741D01*
X120445606Y-110020080D01*
X120520080Y-109945606D01*
X120572741Y-109854394D01*
X120600000Y-109752661D01*
X120600000Y-109746448D01*
X121279474Y-110425922D01*
X121279474Y-110425921D01*
X121311859Y-110381349D01*
X121404755Y-110199031D01*
X121467990Y-110004417D01*
X121500000Y-109802317D01*
X121500000Y-109597683D01*
X121497787Y-109583713D01*
X124649500Y-109583713D01*
X124649500Y-109796287D01*
X124650461Y-109802352D01*
X124682464Y-110004417D01*
X124682754Y-110006243D01*
X124747456Y-110205375D01*
X124748444Y-110208414D01*
X124844951Y-110397820D01*
X124969890Y-110569786D01*
X125120213Y-110720109D01*
X125292182Y-110845050D01*
X125300946Y-110849516D01*
X125351742Y-110897491D01*
X125368536Y-110965312D01*
X125345998Y-111031447D01*
X125300946Y-111070484D01*
X125292182Y-111074949D01*
X125120213Y-111199890D01*
X124969890Y-111350213D01*
X124844951Y-111522179D01*
X124748444Y-111711585D01*
X124682753Y-111913760D01*
X124649500Y-112123713D01*
X124649500Y-112336286D01*
X124674711Y-112495466D01*
X124682754Y-112546243D01*
X124748094Y-112747339D01*
X124748444Y-112748414D01*
X124844951Y-112937820D01*
X124969890Y-113109786D01*
X125120213Y-113260109D01*
X125292182Y-113385050D01*
X125300946Y-113389516D01*
X125351742Y-113437491D01*
X125368536Y-113505312D01*
X125345998Y-113571447D01*
X125300946Y-113610484D01*
X125292182Y-113614949D01*
X125120213Y-113739890D01*
X124969890Y-113890213D01*
X124844951Y-114062179D01*
X124748444Y-114251585D01*
X124682753Y-114453760D01*
X124649500Y-114663713D01*
X124649500Y-114876287D01*
X124682754Y-115086243D01*
X124742076Y-115268817D01*
X124748444Y-115288414D01*
X124844951Y-115477820D01*
X124969890Y-115649786D01*
X125120213Y-115800109D01*
X125292182Y-115925050D01*
X125300946Y-115929516D01*
X125351742Y-115977491D01*
X125368536Y-116045312D01*
X125345998Y-116111447D01*
X125300946Y-116150484D01*
X125292182Y-116154949D01*
X125120213Y-116279890D01*
X124969890Y-116430213D01*
X124844951Y-116602179D01*
X124748444Y-116791585D01*
X124682753Y-116993760D01*
X124649500Y-117203713D01*
X124649500Y-117416286D01*
X124677010Y-117589981D01*
X124682754Y-117626243D01*
X124743762Y-117814006D01*
X124748444Y-117828414D01*
X124844951Y-118017820D01*
X124969890Y-118189786D01*
X125120213Y-118340109D01*
X125292182Y-118465050D01*
X125300946Y-118469516D01*
X125351742Y-118517491D01*
X125368536Y-118585312D01*
X125345998Y-118651447D01*
X125300946Y-118690484D01*
X125292182Y-118694949D01*
X125120213Y-118819890D01*
X124969890Y-118970213D01*
X124844951Y-119142179D01*
X124748444Y-119331585D01*
X124682753Y-119533760D01*
X124649500Y-119743713D01*
X124649500Y-119956286D01*
X124676432Y-120126331D01*
X124682754Y-120166243D01*
X124732875Y-120320500D01*
X124748444Y-120368414D01*
X124844951Y-120557820D01*
X124969890Y-120729786D01*
X125120213Y-120880109D01*
X125292179Y-121005048D01*
X125292181Y-121005049D01*
X125292184Y-121005051D01*
X125481588Y-121101557D01*
X125683757Y-121167246D01*
X125893713Y-121200500D01*
X125893714Y-121200500D01*
X126106286Y-121200500D01*
X126106287Y-121200500D01*
X126316243Y-121167246D01*
X126518412Y-121101557D01*
X126707816Y-121005051D01*
X126853879Y-120898931D01*
X126879786Y-120880109D01*
X126879788Y-120880106D01*
X126879792Y-120880104D01*
X127030104Y-120729792D01*
X127030106Y-120729788D01*
X127030109Y-120729786D01*
X127155048Y-120557820D01*
X127155047Y-120557820D01*
X127155051Y-120557816D01*
X127251557Y-120368412D01*
X127317246Y-120166243D01*
X127350500Y-119956287D01*
X127350500Y-119743713D01*
X127317246Y-119533757D01*
X127251557Y-119331588D01*
X127155051Y-119142184D01*
X127155049Y-119142181D01*
X127155048Y-119142179D01*
X127030109Y-118970213D01*
X126879786Y-118819890D01*
X126707820Y-118694951D01*
X126707115Y-118694591D01*
X126699054Y-118690485D01*
X126648259Y-118642512D01*
X126631463Y-118574692D01*
X126653999Y-118508556D01*
X126699054Y-118469515D01*
X126707816Y-118465051D01*
X126853879Y-118358931D01*
X126879786Y-118340109D01*
X126879788Y-118340106D01*
X126879792Y-118340104D01*
X127030104Y-118189792D01*
X127030106Y-118189788D01*
X127030109Y-118189786D01*
X127155048Y-118017820D01*
X127155047Y-118017820D01*
X127155051Y-118017816D01*
X127251557Y-117828412D01*
X127317246Y-117626243D01*
X127350500Y-117416287D01*
X127350500Y-117203713D01*
X127317246Y-116993757D01*
X127251557Y-116791588D01*
X127155051Y-116602184D01*
X127155049Y-116602181D01*
X127155048Y-116602179D01*
X127030109Y-116430213D01*
X126879786Y-116279890D01*
X126707820Y-116154951D01*
X126707115Y-116154591D01*
X126699054Y-116150485D01*
X126648259Y-116102512D01*
X126631463Y-116034692D01*
X126653999Y-115968556D01*
X126699054Y-115929515D01*
X126707816Y-115925051D01*
X126813676Y-115848140D01*
X126879786Y-115800109D01*
X126879788Y-115800106D01*
X126879792Y-115800104D01*
X127030104Y-115649792D01*
X127030106Y-115649788D01*
X127030109Y-115649786D01*
X127155048Y-115477820D01*
X127155047Y-115477820D01*
X127155051Y-115477816D01*
X127251557Y-115288412D01*
X127317246Y-115086243D01*
X127350500Y-114876287D01*
X127350500Y-114663713D01*
X127317246Y-114453757D01*
X127251557Y-114251588D01*
X127155051Y-114062184D01*
X127155049Y-114062181D01*
X127155048Y-114062179D01*
X127030109Y-113890213D01*
X126879786Y-113739890D01*
X126707820Y-113614951D01*
X126707115Y-113614591D01*
X126699054Y-113610485D01*
X126648259Y-113562512D01*
X126631463Y-113494692D01*
X126653999Y-113428556D01*
X126699054Y-113389515D01*
X126707816Y-113385051D01*
X126816287Y-113306243D01*
X126879786Y-113260109D01*
X126879788Y-113260106D01*
X126879792Y-113260104D01*
X127030104Y-113109792D01*
X127030106Y-113109788D01*
X127030109Y-113109786D01*
X127155048Y-112937820D01*
X127155047Y-112937820D01*
X127155051Y-112937816D01*
X127251557Y-112748412D01*
X127317246Y-112546243D01*
X127350500Y-112336287D01*
X127350500Y-112123713D01*
X127317246Y-111913757D01*
X127251557Y-111711588D01*
X127155051Y-111522184D01*
X127155049Y-111522181D01*
X127155048Y-111522179D01*
X127030109Y-111350213D01*
X126879786Y-111199890D01*
X126707820Y-111074951D01*
X126707115Y-111074591D01*
X126699054Y-111070485D01*
X126648259Y-111022512D01*
X126631463Y-110954692D01*
X126653999Y-110888556D01*
X126699054Y-110849515D01*
X126707816Y-110845051D01*
X126809822Y-110770940D01*
X126879786Y-110720109D01*
X126879788Y-110720106D01*
X126879792Y-110720104D01*
X127030104Y-110569792D01*
X127030106Y-110569788D01*
X127030109Y-110569786D01*
X127155048Y-110397820D01*
X127155047Y-110397820D01*
X127155051Y-110397816D01*
X127251557Y-110208412D01*
X127317246Y-110006243D01*
X127350500Y-109796287D01*
X127350500Y-109583713D01*
X127317246Y-109373757D01*
X127251557Y-109171588D01*
X127155051Y-108982184D01*
X127155049Y-108982181D01*
X127155048Y-108982179D01*
X127030109Y-108810213D01*
X126879786Y-108659890D01*
X126707820Y-108534951D01*
X126518414Y-108438444D01*
X126518413Y-108438443D01*
X126518412Y-108438443D01*
X126316243Y-108372754D01*
X126316241Y-108372753D01*
X126316240Y-108372753D01*
X126154957Y-108347208D01*
X126106287Y-108339500D01*
X125893713Y-108339500D01*
X125845042Y-108347208D01*
X125683760Y-108372753D01*
X125683757Y-108372754D01*
X125502886Y-108431523D01*
X125481585Y-108438444D01*
X125292179Y-108534951D01*
X125120213Y-108659890D01*
X124969890Y-108810213D01*
X124844951Y-108982179D01*
X124748444Y-109171585D01*
X124682753Y-109373760D01*
X124663138Y-109497606D01*
X124649500Y-109583713D01*
X121497787Y-109583713D01*
X121467990Y-109395582D01*
X121404755Y-109200968D01*
X121311859Y-109018650D01*
X121279474Y-108974077D01*
X121279474Y-108974076D01*
X120600000Y-109653551D01*
X120600000Y-109647339D01*
X120572741Y-109545606D01*
X120520080Y-109454394D01*
X120445606Y-109379920D01*
X120354394Y-109327259D01*
X120252661Y-109300000D01*
X120246446Y-109300000D01*
X120925922Y-108620524D01*
X120925921Y-108620523D01*
X120881359Y-108588147D01*
X120881350Y-108588141D01*
X120699031Y-108495244D01*
X120504417Y-108432009D01*
X120302317Y-108400000D01*
X120097683Y-108400000D01*
X119895582Y-108432009D01*
X119700968Y-108495244D01*
X119518644Y-108588143D01*
X119474077Y-108620523D01*
X119474077Y-108620524D01*
X120153554Y-109300000D01*
X120147339Y-109300000D01*
X120045606Y-109327259D01*
X119954394Y-109379920D01*
X119879920Y-109454394D01*
X119827259Y-109545606D01*
X119800000Y-109647339D01*
X119800000Y-109653553D01*
X119120524Y-108974077D01*
X119120523Y-108974077D01*
X119088143Y-109018644D01*
X118995244Y-109200968D01*
X118932009Y-109395582D01*
X118900000Y-109597682D01*
X116500500Y-109597682D01*
X116500500Y-109597648D01*
X116479067Y-109462329D01*
X116468477Y-109395465D01*
X116433543Y-109287951D01*
X116405220Y-109200781D01*
X116405218Y-109200778D01*
X116405218Y-109200776D01*
X116371503Y-109134607D01*
X116312287Y-109018390D01*
X116285982Y-108982184D01*
X116191971Y-108852786D01*
X116047213Y-108708028D01*
X115881613Y-108587715D01*
X115881612Y-108587714D01*
X115881610Y-108587713D01*
X115824653Y-108558691D01*
X115699223Y-108494781D01*
X115504534Y-108431522D01*
X115329995Y-108403878D01*
X115302352Y-108399500D01*
X115097648Y-108399500D01*
X115073329Y-108403351D01*
X114895465Y-108431522D01*
X114700776Y-108494781D01*
X114518386Y-108587715D01*
X114352786Y-108708028D01*
X114208028Y-108852786D01*
X114087715Y-109018386D01*
X113994781Y-109200776D01*
X113931522Y-109395465D01*
X113899500Y-109597648D01*
X110040500Y-109597648D01*
X110040500Y-109505513D01*
X110010940Y-109318881D01*
X109952545Y-109139163D01*
X109891008Y-109018390D01*
X109866760Y-108970801D01*
X109755690Y-108817927D01*
X109622073Y-108684310D01*
X109469199Y-108573240D01*
X109300836Y-108487454D01*
X109121118Y-108429059D01*
X108934486Y-108399500D01*
X108934481Y-108399500D01*
X108745519Y-108399500D01*
X108745514Y-108399500D01*
X108558881Y-108429059D01*
X108379163Y-108487454D01*
X108210800Y-108573240D01*
X108129858Y-108632049D01*
X108057927Y-108684310D01*
X108057925Y-108684312D01*
X108057924Y-108684312D01*
X107924312Y-108817924D01*
X107924312Y-108817925D01*
X107924310Y-108817927D01*
X107876610Y-108883579D01*
X107813240Y-108970800D01*
X107727454Y-109139163D01*
X107669059Y-109318881D01*
X107639500Y-109505513D01*
X104960500Y-109505513D01*
X104930940Y-109318881D01*
X104872545Y-109139163D01*
X104811008Y-109018390D01*
X104786760Y-108970801D01*
X104675690Y-108817927D01*
X104542073Y-108684310D01*
X104389199Y-108573240D01*
X104220836Y-108487454D01*
X104041118Y-108429059D01*
X103854486Y-108399500D01*
X103854481Y-108399500D01*
X103665519Y-108399500D01*
X103665514Y-108399500D01*
X103478881Y-108429059D01*
X103299163Y-108487454D01*
X103130800Y-108573240D01*
X103049858Y-108632049D01*
X102977927Y-108684310D01*
X102977925Y-108684312D01*
X102977924Y-108684312D01*
X102844312Y-108817924D01*
X102844312Y-108817925D01*
X102844310Y-108817927D01*
X102796610Y-108883579D01*
X102733240Y-108970800D01*
X102647454Y-109139163D01*
X102589059Y-109318881D01*
X102559500Y-109505513D01*
X94868866Y-109505513D01*
X94872895Y-109497606D01*
X94941015Y-109287951D01*
X94975500Y-109070222D01*
X94975500Y-108849778D01*
X94941015Y-108632049D01*
X94872895Y-108422394D01*
X94872895Y-108422393D01*
X94830658Y-108339500D01*
X94772815Y-108225978D01*
X94756260Y-108203192D01*
X94643247Y-108047641D01*
X94643243Y-108047636D01*
X94487363Y-107891756D01*
X94487358Y-107891752D01*
X94309025Y-107762187D01*
X94309024Y-107762186D01*
X94309022Y-107762185D01*
X94246096Y-107730122D01*
X94112606Y-107662104D01*
X94112603Y-107662103D01*
X93902952Y-107593985D01*
X93794086Y-107576742D01*
X93685222Y-107559500D01*
X93464778Y-107559500D01*
X93392201Y-107570995D01*
X93247047Y-107593985D01*
X93037396Y-107662103D01*
X93037393Y-107662104D01*
X92840974Y-107762187D01*
X92662641Y-107891752D01*
X92662636Y-107891756D01*
X92506756Y-108047636D01*
X92506752Y-108047641D01*
X92377187Y-108225974D01*
X92277104Y-108422393D01*
X92277103Y-108422396D01*
X92208985Y-108632047D01*
X92174500Y-108849778D01*
X80000500Y-108849778D01*
X80000500Y-106934108D01*
X79966392Y-106806814D01*
X79900500Y-106692686D01*
X79807314Y-106599500D01*
X79750250Y-106566554D01*
X79693187Y-106533608D01*
X79629539Y-106516554D01*
X79565892Y-106499500D01*
X79434108Y-106499500D01*
X79306812Y-106533608D01*
X79192686Y-106599500D01*
X79192683Y-106599502D01*
X79099502Y-106692683D01*
X79099500Y-106692686D01*
X79033608Y-106806812D01*
X78999500Y-106934108D01*
X78567304Y-106934108D01*
X78567327Y-106925641D01*
X78567653Y-106806812D01*
X78569300Y-106205513D01*
X104419500Y-106205513D01*
X104419500Y-106394486D01*
X104449059Y-106581118D01*
X104507454Y-106760836D01*
X104591427Y-106925641D01*
X104593240Y-106929199D01*
X104704310Y-107082073D01*
X104837927Y-107215690D01*
X104990801Y-107326760D01*
X105070347Y-107367290D01*
X105159163Y-107412545D01*
X105159165Y-107412545D01*
X105159168Y-107412547D01*
X105255497Y-107443846D01*
X105338881Y-107470940D01*
X105525514Y-107500500D01*
X105525519Y-107500500D01*
X105714486Y-107500500D01*
X105901118Y-107470940D01*
X106080832Y-107412547D01*
X106249199Y-107326760D01*
X106402073Y-107215690D01*
X106535690Y-107082073D01*
X106646760Y-106929199D01*
X106732547Y-106760832D01*
X106790940Y-106581118D01*
X106803867Y-106499500D01*
X106820500Y-106394486D01*
X106820500Y-106205513D01*
X109499500Y-106205513D01*
X109499500Y-106394486D01*
X109529059Y-106581118D01*
X109587454Y-106760836D01*
X109671427Y-106925641D01*
X109673240Y-106929199D01*
X109784310Y-107082073D01*
X109917927Y-107215690D01*
X110070801Y-107326760D01*
X110150347Y-107367290D01*
X110239163Y-107412545D01*
X110239165Y-107412545D01*
X110239168Y-107412547D01*
X110335497Y-107443846D01*
X110418881Y-107470940D01*
X110605514Y-107500500D01*
X110605519Y-107500500D01*
X110794486Y-107500500D01*
X110981118Y-107470940D01*
X111160832Y-107412547D01*
X111329199Y-107326760D01*
X111482073Y-107215690D01*
X111615690Y-107082073D01*
X111726760Y-106929199D01*
X111812547Y-106760832D01*
X111870940Y-106581118D01*
X111883867Y-106499500D01*
X111900500Y-106394486D01*
X111900500Y-106205513D01*
X111870940Y-106018881D01*
X111841165Y-105927246D01*
X111812547Y-105839168D01*
X111812545Y-105839165D01*
X111812545Y-105839163D01*
X111726759Y-105670800D01*
X111615690Y-105517927D01*
X111482073Y-105384310D01*
X111329199Y-105273240D01*
X111160836Y-105187454D01*
X110981118Y-105129059D01*
X110794486Y-105099500D01*
X110794481Y-105099500D01*
X110605519Y-105099500D01*
X110605514Y-105099500D01*
X110418881Y-105129059D01*
X110239163Y-105187454D01*
X110070800Y-105273240D01*
X110009442Y-105317820D01*
X109917927Y-105384310D01*
X109917925Y-105384312D01*
X109917924Y-105384312D01*
X109784312Y-105517924D01*
X109784312Y-105517925D01*
X109784310Y-105517927D01*
X109736610Y-105583579D01*
X109673240Y-105670800D01*
X109587454Y-105839163D01*
X109529059Y-106018881D01*
X109499500Y-106205513D01*
X106820500Y-106205513D01*
X106790940Y-106018881D01*
X106761165Y-105927246D01*
X106732547Y-105839168D01*
X106732545Y-105839165D01*
X106732545Y-105839163D01*
X106646759Y-105670800D01*
X106535690Y-105517927D01*
X106402073Y-105384310D01*
X106249199Y-105273240D01*
X106080836Y-105187454D01*
X105901118Y-105129059D01*
X105714486Y-105099500D01*
X105714481Y-105099500D01*
X105525519Y-105099500D01*
X105525514Y-105099500D01*
X105338881Y-105129059D01*
X105159163Y-105187454D01*
X104990800Y-105273240D01*
X104929442Y-105317820D01*
X104837927Y-105384310D01*
X104837925Y-105384312D01*
X104837924Y-105384312D01*
X104704312Y-105517924D01*
X104704312Y-105517925D01*
X104704310Y-105517927D01*
X104656610Y-105583579D01*
X104593240Y-105670800D01*
X104507454Y-105839163D01*
X104449059Y-106018881D01*
X104419500Y-106205513D01*
X78569300Y-106205513D01*
X78596071Y-96434108D01*
X78999500Y-96434108D01*
X78999500Y-105065891D01*
X79033608Y-105193187D01*
X79066554Y-105250250D01*
X79099500Y-105307314D01*
X79192686Y-105400500D01*
X79306814Y-105466392D01*
X79434108Y-105500500D01*
X79434110Y-105500500D01*
X79565890Y-105500500D01*
X79565892Y-105500500D01*
X79693186Y-105466392D01*
X79807314Y-105400500D01*
X79900500Y-105307314D01*
X79966392Y-105193186D01*
X80000500Y-105065892D01*
X80000500Y-100689778D01*
X82099500Y-100689778D01*
X82099500Y-100910221D01*
X82133985Y-101127952D01*
X82202103Y-101337603D01*
X82202104Y-101337606D01*
X82302187Y-101534025D01*
X82431752Y-101712358D01*
X82431756Y-101712363D01*
X82481928Y-101762535D01*
X82515413Y-101823858D01*
X82510429Y-101893550D01*
X82468557Y-101949483D01*
X82437581Y-101966398D01*
X82357669Y-101996203D01*
X82357664Y-101996206D01*
X82242455Y-102082452D01*
X82242452Y-102082455D01*
X82156206Y-102197664D01*
X82156202Y-102197671D01*
X82105908Y-102332517D01*
X82099501Y-102392116D01*
X82099501Y-102392123D01*
X82099500Y-102392135D01*
X82099500Y-104287870D01*
X82099501Y-104287876D01*
X82105908Y-104347483D01*
X82156202Y-104482328D01*
X82156206Y-104482335D01*
X82242452Y-104597544D01*
X82242455Y-104597547D01*
X82357664Y-104683793D01*
X82357671Y-104683797D01*
X82492517Y-104734091D01*
X82492516Y-104734091D01*
X82499444Y-104734835D01*
X82552127Y-104740500D01*
X84447872Y-104740499D01*
X84507483Y-104734091D01*
X84577753Y-104707882D01*
X97345669Y-104707882D01*
X97345670Y-104707883D01*
X97371059Y-104726329D01*
X97539362Y-104812085D01*
X97718997Y-104870451D01*
X97905553Y-104900000D01*
X98094447Y-104900000D01*
X98281002Y-104870451D01*
X98460637Y-104812085D01*
X98628937Y-104726331D01*
X98654328Y-104707883D01*
X98654328Y-104707882D01*
X98000001Y-104053554D01*
X98000000Y-104053554D01*
X97345669Y-104707882D01*
X84577753Y-104707882D01*
X84642331Y-104683796D01*
X84757546Y-104597546D01*
X84843796Y-104482331D01*
X84894091Y-104347483D01*
X84900500Y-104287873D01*
X84900499Y-103605552D01*
X96800000Y-103605552D01*
X96800000Y-103794447D01*
X96829548Y-103981002D01*
X96887914Y-104160637D01*
X96973666Y-104328933D01*
X96992116Y-104354328D01*
X97646446Y-103700000D01*
X97646446Y-103699999D01*
X97600369Y-103653922D01*
X97650000Y-103653922D01*
X97650000Y-103746078D01*
X97673852Y-103835095D01*
X97719930Y-103914905D01*
X97785095Y-103980070D01*
X97864905Y-104026148D01*
X97953922Y-104050000D01*
X98046078Y-104050000D01*
X98135095Y-104026148D01*
X98214905Y-103980070D01*
X98280070Y-103914905D01*
X98326148Y-103835095D01*
X98350000Y-103746078D01*
X98350000Y-103699999D01*
X98353554Y-103699999D01*
X98353554Y-103700000D01*
X99007882Y-104354328D01*
X99007883Y-104354328D01*
X99026331Y-104328937D01*
X99112085Y-104160637D01*
X99170451Y-103981002D01*
X99200000Y-103794447D01*
X99200000Y-103605552D01*
X99199994Y-103605513D01*
X101879500Y-103605513D01*
X101879500Y-103794486D01*
X101909059Y-103981118D01*
X101967454Y-104160836D01*
X102035181Y-104293757D01*
X102053240Y-104329199D01*
X102164310Y-104482073D01*
X102297927Y-104615690D01*
X102450801Y-104726760D01*
X102530347Y-104767290D01*
X102619163Y-104812545D01*
X102619165Y-104812545D01*
X102619168Y-104812547D01*
X102715497Y-104843846D01*
X102798881Y-104870940D01*
X102985514Y-104900500D01*
X102985519Y-104900500D01*
X103174486Y-104900500D01*
X103361118Y-104870940D01*
X103362623Y-104870451D01*
X103540832Y-104812547D01*
X103709199Y-104726760D01*
X103862073Y-104615690D01*
X103995690Y-104482073D01*
X104106760Y-104329199D01*
X104192547Y-104160832D01*
X104250940Y-103981118D01*
X104263443Y-103902179D01*
X104280500Y-103794486D01*
X104280500Y-103763568D01*
X104280500Y-103605519D01*
X104264661Y-103505513D01*
X104519500Y-103505513D01*
X104519500Y-103505519D01*
X104519500Y-103694481D01*
X104528104Y-103748810D01*
X104528105Y-103748815D01*
X104549059Y-103881118D01*
X104607454Y-104060836D01*
X104658306Y-104160637D01*
X104693240Y-104229199D01*
X104804310Y-104382073D01*
X104937927Y-104515690D01*
X105090801Y-104626760D01*
X105170347Y-104667290D01*
X105259163Y-104712545D01*
X105259165Y-104712545D01*
X105259168Y-104712547D01*
X105345192Y-104740498D01*
X105438881Y-104770940D01*
X105625514Y-104800500D01*
X105625519Y-104800500D01*
X105814486Y-104800500D01*
X106001118Y-104770940D01*
X106180832Y-104712547D01*
X106349199Y-104626760D01*
X106502073Y-104515690D01*
X106635690Y-104382073D01*
X106746760Y-104229199D01*
X106832547Y-104060832D01*
X106890940Y-103881118D01*
X106904662Y-103794481D01*
X106920500Y-103694486D01*
X106920500Y-103505513D01*
X109599500Y-103505513D01*
X109599500Y-103694486D01*
X109629059Y-103881118D01*
X109687454Y-104060836D01*
X109738306Y-104160637D01*
X109773240Y-104229199D01*
X109884310Y-104382073D01*
X110017927Y-104515690D01*
X110170801Y-104626760D01*
X110250347Y-104667290D01*
X110339163Y-104712545D01*
X110339165Y-104712545D01*
X110339168Y-104712547D01*
X110425192Y-104740498D01*
X110518881Y-104770940D01*
X110705514Y-104800500D01*
X110705519Y-104800500D01*
X110894486Y-104800500D01*
X111081118Y-104770940D01*
X111260832Y-104712547D01*
X111429199Y-104626760D01*
X111582073Y-104515690D01*
X111594050Y-104503713D01*
X124649500Y-104503713D01*
X124649500Y-104716286D01*
X124678676Y-104900500D01*
X124682754Y-104926243D01*
X124728128Y-105065890D01*
X124748444Y-105128414D01*
X124844951Y-105317820D01*
X124969890Y-105489786D01*
X125120213Y-105640109D01*
X125292179Y-105765048D01*
X125292181Y-105765049D01*
X125292184Y-105765051D01*
X125481588Y-105861557D01*
X125683757Y-105927246D01*
X125893713Y-105960500D01*
X125893714Y-105960500D01*
X126106286Y-105960500D01*
X126106287Y-105960500D01*
X126316243Y-105927246D01*
X126518412Y-105861557D01*
X126707816Y-105765051D01*
X126729789Y-105749086D01*
X126879786Y-105640109D01*
X126879788Y-105640106D01*
X126879792Y-105640104D01*
X127030104Y-105489792D01*
X127030106Y-105489788D01*
X127030109Y-105489786D01*
X127155048Y-105317820D01*
X127155047Y-105317820D01*
X127155051Y-105317816D01*
X127251557Y-105128412D01*
X127317246Y-104926243D01*
X127350500Y-104716287D01*
X127350500Y-104503713D01*
X127317246Y-104293757D01*
X127251557Y-104091588D01*
X127155051Y-103902184D01*
X127155049Y-103902181D01*
X127155048Y-103902179D01*
X127030109Y-103730213D01*
X126879786Y-103579890D01*
X126707820Y-103454951D01*
X126518414Y-103358444D01*
X126518413Y-103358443D01*
X126518412Y-103358443D01*
X126316243Y-103292754D01*
X126316241Y-103292753D01*
X126316240Y-103292753D01*
X126154957Y-103267208D01*
X126106287Y-103259500D01*
X125893713Y-103259500D01*
X125845042Y-103267208D01*
X125683760Y-103292753D01*
X125481585Y-103358444D01*
X125292179Y-103454951D01*
X125120213Y-103579890D01*
X124969890Y-103730213D01*
X124844951Y-103902179D01*
X124748444Y-104091585D01*
X124682753Y-104293760D01*
X124649500Y-104503713D01*
X111594050Y-104503713D01*
X111715690Y-104382073D01*
X111826760Y-104229199D01*
X111912547Y-104060832D01*
X111970940Y-103881118D01*
X111984662Y-103794481D01*
X112000500Y-103694486D01*
X112000500Y-103505513D01*
X111970940Y-103318881D01*
X111912545Y-103139163D01*
X111826759Y-102970800D01*
X111715690Y-102817927D01*
X111582073Y-102684310D01*
X111429199Y-102573240D01*
X111260836Y-102487454D01*
X111081118Y-102429059D01*
X110894486Y-102399500D01*
X110894481Y-102399500D01*
X110705519Y-102399500D01*
X110705514Y-102399500D01*
X110518881Y-102429059D01*
X110339163Y-102487454D01*
X110170800Y-102573240D01*
X110083579Y-102636610D01*
X110017927Y-102684310D01*
X110017925Y-102684312D01*
X110017924Y-102684312D01*
X109884312Y-102817924D01*
X109884312Y-102817925D01*
X109884310Y-102817927D01*
X109836610Y-102883579D01*
X109773240Y-102970800D01*
X109687454Y-103139163D01*
X109629059Y-103318881D01*
X109599500Y-103505513D01*
X106920500Y-103505513D01*
X106890940Y-103318881D01*
X106832545Y-103139163D01*
X106746759Y-102970800D01*
X106635690Y-102817927D01*
X106502073Y-102684310D01*
X106349199Y-102573240D01*
X106180836Y-102487454D01*
X106001118Y-102429059D01*
X105814486Y-102399500D01*
X105814481Y-102399500D01*
X105625519Y-102399500D01*
X105625514Y-102399500D01*
X105438881Y-102429059D01*
X105259163Y-102487454D01*
X105090800Y-102573240D01*
X105003579Y-102636610D01*
X104937927Y-102684310D01*
X104937925Y-102684312D01*
X104937924Y-102684312D01*
X104804312Y-102817924D01*
X104804312Y-102817925D01*
X104804310Y-102817927D01*
X104756610Y-102883579D01*
X104693240Y-102970800D01*
X104607454Y-103139163D01*
X104549059Y-103318881D01*
X104519500Y-103505513D01*
X104264661Y-103505513D01*
X104250940Y-103418882D01*
X104192547Y-103239168D01*
X104192545Y-103239165D01*
X104192545Y-103239163D01*
X104141592Y-103139163D01*
X104106760Y-103070801D01*
X103995690Y-102917927D01*
X103862073Y-102784310D01*
X103709199Y-102673240D01*
X103540836Y-102587454D01*
X103361118Y-102529059D01*
X103174486Y-102499500D01*
X103174481Y-102499500D01*
X102985519Y-102499500D01*
X102985514Y-102499500D01*
X102798881Y-102529059D01*
X102619163Y-102587454D01*
X102450800Y-102673240D01*
X102363579Y-102736610D01*
X102297927Y-102784310D01*
X102297925Y-102784312D01*
X102297924Y-102784312D01*
X102164312Y-102917924D01*
X102164312Y-102917925D01*
X102164310Y-102917927D01*
X102125895Y-102970800D01*
X102053240Y-103070800D01*
X101967454Y-103239163D01*
X101909059Y-103418881D01*
X101879500Y-103605513D01*
X99199994Y-103605513D01*
X99170451Y-103418997D01*
X99112085Y-103239362D01*
X99026329Y-103071059D01*
X99007883Y-103045670D01*
X99007882Y-103045669D01*
X98353554Y-103699999D01*
X98350000Y-103699999D01*
X98350000Y-103653922D01*
X98326148Y-103564905D01*
X98280070Y-103485095D01*
X98214905Y-103419930D01*
X98135095Y-103373852D01*
X98046078Y-103350000D01*
X97953922Y-103350000D01*
X97864905Y-103373852D01*
X97785095Y-103419930D01*
X97719930Y-103485095D01*
X97673852Y-103564905D01*
X97650000Y-103653922D01*
X97600369Y-103653922D01*
X96992116Y-103045669D01*
X96992116Y-103045670D01*
X96973669Y-103071060D01*
X96887914Y-103239362D01*
X96829548Y-103418997D01*
X96800000Y-103605552D01*
X84900499Y-103605552D01*
X84900499Y-103318882D01*
X84900499Y-102739375D01*
X84900499Y-102692116D01*
X97345669Y-102692116D01*
X98000000Y-103346446D01*
X98000001Y-103346446D01*
X98654328Y-102692116D01*
X98628933Y-102673666D01*
X98460637Y-102587914D01*
X98281002Y-102529548D01*
X98094447Y-102500000D01*
X97905553Y-102500000D01*
X97718997Y-102529548D01*
X97539362Y-102587914D01*
X97371060Y-102673669D01*
X97345670Y-102692116D01*
X97345669Y-102692116D01*
X84900499Y-102692116D01*
X84900499Y-102392129D01*
X84900498Y-102392123D01*
X84900497Y-102392116D01*
X84894091Y-102332517D01*
X84843796Y-102197669D01*
X84843795Y-102197668D01*
X84843793Y-102197664D01*
X84757547Y-102082455D01*
X84757544Y-102082452D01*
X84642335Y-101996206D01*
X84642328Y-101996202D01*
X84562419Y-101966398D01*
X84506485Y-101924527D01*
X84482068Y-101859062D01*
X84496920Y-101790789D01*
X84518069Y-101762537D01*
X84568242Y-101712365D01*
X84697815Y-101534022D01*
X84797895Y-101337606D01*
X84866015Y-101127951D01*
X84900500Y-100910222D01*
X84900500Y-100689778D01*
X84866015Y-100472049D01*
X84797895Y-100262394D01*
X84797895Y-100262393D01*
X84763237Y-100194375D01*
X84697815Y-100065978D01*
X84573216Y-99894481D01*
X84568247Y-99887641D01*
X84568243Y-99887636D01*
X84412363Y-99731756D01*
X84412358Y-99731752D01*
X84376243Y-99705513D01*
X112899500Y-99705513D01*
X112899500Y-99894486D01*
X112929059Y-100081118D01*
X112987454Y-100260836D01*
X113072560Y-100427864D01*
X113073240Y-100429199D01*
X113184310Y-100582073D01*
X113317927Y-100715690D01*
X113470801Y-100826760D01*
X113550347Y-100867290D01*
X113639163Y-100912545D01*
X113639165Y-100912545D01*
X113639168Y-100912547D01*
X113735497Y-100943846D01*
X113818881Y-100970940D01*
X114005514Y-101000500D01*
X114005519Y-101000500D01*
X114194486Y-101000500D01*
X114381118Y-100970940D01*
X114560832Y-100912547D01*
X114729199Y-100826760D01*
X114882073Y-100715690D01*
X115015690Y-100582073D01*
X115126760Y-100429199D01*
X115212547Y-100260832D01*
X115270940Y-100081118D01*
X115273339Y-100065974D01*
X115300500Y-99894486D01*
X115300500Y-99705513D01*
X117979500Y-99705513D01*
X117979500Y-99894486D01*
X118009059Y-100081118D01*
X118067454Y-100260836D01*
X118152560Y-100427864D01*
X118153240Y-100429199D01*
X118264310Y-100582073D01*
X118397927Y-100715690D01*
X118550801Y-100826760D01*
X118630347Y-100867290D01*
X118719163Y-100912545D01*
X118719165Y-100912545D01*
X118719168Y-100912547D01*
X118815497Y-100943846D01*
X118898881Y-100970940D01*
X119085514Y-101000500D01*
X119085519Y-101000500D01*
X119274486Y-101000500D01*
X119461118Y-100970940D01*
X119640832Y-100912547D01*
X119809199Y-100826760D01*
X119962073Y-100715690D01*
X120095690Y-100582073D01*
X120206760Y-100429199D01*
X120292547Y-100260832D01*
X120350940Y-100081118D01*
X120353339Y-100065974D01*
X120380500Y-99894486D01*
X120380500Y-99705513D01*
X120350940Y-99518881D01*
X120292545Y-99339163D01*
X120206759Y-99170800D01*
X120095690Y-99017927D01*
X119962073Y-98884310D01*
X119809199Y-98773240D01*
X119736680Y-98736290D01*
X119640836Y-98687454D01*
X119470585Y-98632135D01*
X124649500Y-98632135D01*
X124649500Y-100427870D01*
X124649501Y-100427876D01*
X124655908Y-100487483D01*
X124706202Y-100622328D01*
X124706206Y-100622335D01*
X124792452Y-100737544D01*
X124792455Y-100737547D01*
X124907664Y-100823793D01*
X124907671Y-100823797D01*
X125042517Y-100874091D01*
X125042516Y-100874091D01*
X125049444Y-100874835D01*
X125102127Y-100880500D01*
X126897872Y-100880499D01*
X126957483Y-100874091D01*
X127092331Y-100823796D01*
X127207546Y-100737546D01*
X127293796Y-100622331D01*
X127344091Y-100487483D01*
X127350500Y-100427873D01*
X127350499Y-98632128D01*
X127344091Y-98572517D01*
X127293796Y-98437669D01*
X127293795Y-98437668D01*
X127293793Y-98437664D01*
X127207547Y-98322455D01*
X127207544Y-98322452D01*
X127092335Y-98236206D01*
X127092328Y-98236202D01*
X126957482Y-98185908D01*
X126957483Y-98185908D01*
X126897883Y-98179501D01*
X126897881Y-98179500D01*
X126897873Y-98179500D01*
X126897864Y-98179500D01*
X125102129Y-98179500D01*
X125102123Y-98179501D01*
X125042516Y-98185908D01*
X124907671Y-98236202D01*
X124907664Y-98236206D01*
X124792455Y-98322452D01*
X124792452Y-98322455D01*
X124706206Y-98437664D01*
X124706202Y-98437671D01*
X124655908Y-98572517D01*
X124649830Y-98629059D01*
X124649501Y-98632123D01*
X124649500Y-98632135D01*
X119470585Y-98632135D01*
X119461118Y-98629059D01*
X119274486Y-98599500D01*
X119274481Y-98599500D01*
X119085519Y-98599500D01*
X119085514Y-98599500D01*
X118898881Y-98629059D01*
X118719163Y-98687454D01*
X118550800Y-98773240D01*
X118463579Y-98836610D01*
X118397927Y-98884310D01*
X118397925Y-98884312D01*
X118397924Y-98884312D01*
X118264312Y-99017924D01*
X118264312Y-99017925D01*
X118264310Y-99017927D01*
X118216610Y-99083579D01*
X118153240Y-99170800D01*
X118067454Y-99339163D01*
X118009059Y-99518881D01*
X117979500Y-99705513D01*
X115300500Y-99705513D01*
X115270940Y-99518881D01*
X115212545Y-99339163D01*
X115126759Y-99170800D01*
X115015690Y-99017927D01*
X114882073Y-98884310D01*
X114729199Y-98773240D01*
X114560836Y-98687454D01*
X114381118Y-98629059D01*
X114194486Y-98599500D01*
X114194481Y-98599500D01*
X114005519Y-98599500D01*
X114005514Y-98599500D01*
X113818881Y-98629059D01*
X113639163Y-98687454D01*
X113470800Y-98773240D01*
X113383579Y-98836610D01*
X113317927Y-98884310D01*
X113317925Y-98884312D01*
X113317924Y-98884312D01*
X113184312Y-99017924D01*
X113184312Y-99017925D01*
X113184310Y-99017927D01*
X113136610Y-99083579D01*
X113073240Y-99170800D01*
X112987454Y-99339163D01*
X112929059Y-99518881D01*
X112899500Y-99705513D01*
X84376243Y-99705513D01*
X84234025Y-99602187D01*
X84234024Y-99602186D01*
X84234022Y-99602185D01*
X84171096Y-99570122D01*
X84037606Y-99502104D01*
X84037603Y-99502103D01*
X83827952Y-99433985D01*
X83719086Y-99416742D01*
X83610222Y-99399500D01*
X83389778Y-99399500D01*
X83317201Y-99410995D01*
X83172047Y-99433985D01*
X82962396Y-99502103D01*
X82962393Y-99502104D01*
X82765974Y-99602187D01*
X82587641Y-99731752D01*
X82587636Y-99731756D01*
X82431756Y-99887636D01*
X82431752Y-99887641D01*
X82302187Y-100065974D01*
X82202104Y-100262393D01*
X82202103Y-100262396D01*
X82133985Y-100472047D01*
X82099500Y-100689778D01*
X80000500Y-100689778D01*
X80000500Y-97124500D01*
X80020185Y-97057461D01*
X80072989Y-97011706D01*
X80124500Y-97000500D01*
X90065890Y-97000500D01*
X90065892Y-97000500D01*
X90193186Y-96966392D01*
X90307314Y-96900500D01*
X90400500Y-96807314D01*
X90466392Y-96693186D01*
X90500500Y-96565892D01*
X90500500Y-96434108D01*
X91499500Y-96434108D01*
X91499500Y-96565891D01*
X91533608Y-96693187D01*
X91566554Y-96750250D01*
X91599500Y-96807314D01*
X91692686Y-96900500D01*
X91806814Y-96966392D01*
X91934108Y-97000500D01*
X91934110Y-97000500D01*
X118065890Y-97000500D01*
X118065892Y-97000500D01*
X118193186Y-96966392D01*
X118307314Y-96900500D01*
X118400500Y-96807314D01*
X118466392Y-96693186D01*
X118500500Y-96565892D01*
X118500500Y-96434108D01*
X118466392Y-96306814D01*
X118400500Y-96192686D01*
X118307314Y-96099500D01*
X118243615Y-96062723D01*
X118193187Y-96033608D01*
X118129539Y-96016554D01*
X118065892Y-95999500D01*
X91934108Y-95999500D01*
X91806812Y-96033608D01*
X91692686Y-96099500D01*
X91692683Y-96099502D01*
X91599502Y-96192683D01*
X91599500Y-96192686D01*
X91533608Y-96306812D01*
X91499500Y-96434108D01*
X90500500Y-96434108D01*
X90466392Y-96306814D01*
X90400500Y-96192686D01*
X90307314Y-96099500D01*
X90243615Y-96062723D01*
X90193187Y-96033608D01*
X90129539Y-96016554D01*
X90065892Y-95999500D01*
X79565892Y-95999500D01*
X79434108Y-95999500D01*
X79306812Y-96033608D01*
X79192686Y-96099500D01*
X79192683Y-96099502D01*
X79099502Y-96192683D01*
X79099500Y-96192686D01*
X79033608Y-96306812D01*
X78999500Y-96434108D01*
X78596071Y-96434108D01*
X78599659Y-95124358D01*
X78619528Y-95057374D01*
X78672457Y-95011764D01*
X78724356Y-95000701D01*
X129376202Y-95286331D01*
G37*
%TD.AperFunction*%
%TD*%
%TA.AperFunction,Conductor*%
%TO.N,/GND*%
G36*
X64075876Y-78499654D02*
G01*
X64142861Y-78519526D01*
X64188468Y-78572457D01*
X64199530Y-78624123D01*
X64197186Y-79244256D01*
X64177248Y-79311220D01*
X64124272Y-79356775D01*
X64055076Y-79366457D01*
X63991631Y-79337192D01*
X63965800Y-79305788D01*
X63930274Y-79244256D01*
X63900500Y-79192686D01*
X63807314Y-79099500D01*
X63750250Y-79066554D01*
X63693187Y-79033608D01*
X63629539Y-79016554D01*
X63565892Y-78999500D01*
X54934108Y-78999500D01*
X54806812Y-79033608D01*
X54692686Y-79099500D01*
X54692683Y-79099502D01*
X54599502Y-79192683D01*
X54599500Y-79192686D01*
X54533608Y-79306812D01*
X54499500Y-79434108D01*
X54499500Y-79565891D01*
X54533608Y-79693187D01*
X54566554Y-79750250D01*
X54599500Y-79807314D01*
X54692686Y-79900500D01*
X54806814Y-79966392D01*
X54934108Y-80000500D01*
X62875500Y-80000500D01*
X62942539Y-80020185D01*
X62988294Y-80072989D01*
X62999500Y-80124500D01*
X62999500Y-90065891D01*
X63033608Y-90193187D01*
X63040637Y-90205361D01*
X63099500Y-90307314D01*
X63192686Y-90400500D01*
X63306814Y-90466392D01*
X63434108Y-90500500D01*
X63434110Y-90500500D01*
X63565890Y-90500500D01*
X63565892Y-90500500D01*
X63693186Y-90466392D01*
X63807314Y-90400500D01*
X63900500Y-90307314D01*
X63923891Y-90266798D01*
X63974456Y-90218585D01*
X64043063Y-90205361D01*
X64107928Y-90231329D01*
X64148457Y-90288242D01*
X64155276Y-90329269D01*
X64150234Y-91662935D01*
X64130296Y-91729899D01*
X64077320Y-91775454D01*
X64008124Y-91785136D01*
X63944679Y-91755871D01*
X63918848Y-91724466D01*
X63906051Y-91702301D01*
X63900500Y-91692686D01*
X63807314Y-91599500D01*
X63724271Y-91551555D01*
X63693187Y-91533608D01*
X63595920Y-91507546D01*
X63565892Y-91499500D01*
X63434108Y-91499500D01*
X63306812Y-91533608D01*
X63192686Y-91599500D01*
X63192683Y-91599502D01*
X63099502Y-91692683D01*
X63099500Y-91692686D01*
X63033608Y-91806812D01*
X62999500Y-91934108D01*
X62999500Y-118065891D01*
X63033608Y-118193187D01*
X63066554Y-118250250D01*
X63099500Y-118307314D01*
X63192686Y-118400500D01*
X63306814Y-118466392D01*
X63434108Y-118500500D01*
X63434110Y-118500500D01*
X63565890Y-118500500D01*
X63565892Y-118500500D01*
X63693186Y-118466392D01*
X63807314Y-118400500D01*
X63837248Y-118370565D01*
X63898568Y-118337081D01*
X63968260Y-118342065D01*
X64024194Y-118383935D01*
X64048612Y-118449399D01*
X64048927Y-118458716D01*
X64044846Y-119538140D01*
X64024908Y-119605104D01*
X63971932Y-119650659D01*
X63902736Y-119660341D01*
X63839291Y-119631076D01*
X63833166Y-119625352D01*
X63807316Y-119599502D01*
X63807314Y-119599500D01*
X63701036Y-119538140D01*
X63693187Y-119533608D01*
X63629539Y-119516554D01*
X63565892Y-119499500D01*
X63434108Y-119499500D01*
X63306812Y-119533608D01*
X63192686Y-119599500D01*
X63192683Y-119599502D01*
X63099502Y-119692683D01*
X63099500Y-119692686D01*
X63033608Y-119806812D01*
X62999500Y-119934108D01*
X62999500Y-129065891D01*
X63033608Y-129193187D01*
X63057814Y-129235112D01*
X63099500Y-129307314D01*
X63099502Y-129307316D01*
X63103072Y-129313499D01*
X63119545Y-129381399D01*
X63096693Y-129447426D01*
X63041772Y-129490617D01*
X62995685Y-129499500D01*
X30624500Y-129499500D01*
X30557461Y-129479815D01*
X30511706Y-129427011D01*
X30500500Y-129375500D01*
X30500500Y-125893753D01*
X31170000Y-125893753D01*
X31170000Y-126106246D01*
X31203242Y-126316127D01*
X31203242Y-126316130D01*
X31268904Y-126518217D01*
X31365375Y-126707550D01*
X31404728Y-126761716D01*
X32037037Y-126129408D01*
X32054075Y-126192993D01*
X32119901Y-126307007D01*
X32212993Y-126400099D01*
X32327007Y-126465925D01*
X32390590Y-126482962D01*
X31758282Y-127115269D01*
X31758282Y-127115270D01*
X31812449Y-127154624D01*
X32001782Y-127251095D01*
X32203870Y-127316757D01*
X32413754Y-127350000D01*
X32626246Y-127350000D01*
X32836127Y-127316757D01*
X32836130Y-127316757D01*
X33038217Y-127251095D01*
X33227554Y-127154622D01*
X33281716Y-127115270D01*
X33281717Y-127115270D01*
X32649408Y-126482962D01*
X32712993Y-126465925D01*
X32827007Y-126400099D01*
X32920099Y-126307007D01*
X32985925Y-126192993D01*
X33002962Y-126129408D01*
X33635270Y-126761717D01*
X33635270Y-126761716D01*
X33674622Y-126707555D01*
X33679232Y-126698507D01*
X33727205Y-126647709D01*
X33795025Y-126630912D01*
X33861161Y-126653447D01*
X33900204Y-126698504D01*
X33904949Y-126707817D01*
X34029890Y-126879786D01*
X34180213Y-127030109D01*
X34352179Y-127155048D01*
X34352181Y-127155049D01*
X34352184Y-127155051D01*
X34541588Y-127251557D01*
X34743757Y-127317246D01*
X34953713Y-127350500D01*
X34953714Y-127350500D01*
X35166286Y-127350500D01*
X35166287Y-127350500D01*
X35376243Y-127317246D01*
X35578412Y-127251557D01*
X35767816Y-127155051D01*
X35854138Y-127092335D01*
X35939786Y-127030109D01*
X35939788Y-127030106D01*
X35939792Y-127030104D01*
X36090104Y-126879792D01*
X36090106Y-126879788D01*
X36090109Y-126879786D01*
X36215048Y-126707820D01*
X36215050Y-126707817D01*
X36215051Y-126707816D01*
X36311557Y-126518412D01*
X36377246Y-126316243D01*
X36410500Y-126106287D01*
X36410500Y-125893713D01*
X38789500Y-125893713D01*
X38789500Y-126106286D01*
X38822753Y-126316239D01*
X38888444Y-126518414D01*
X38984951Y-126707820D01*
X39109890Y-126879786D01*
X39260213Y-127030109D01*
X39432179Y-127155048D01*
X39432181Y-127155049D01*
X39432184Y-127155051D01*
X39621588Y-127251557D01*
X39823757Y-127317246D01*
X40033713Y-127350500D01*
X40033714Y-127350500D01*
X40246286Y-127350500D01*
X40246287Y-127350500D01*
X40456243Y-127317246D01*
X40658412Y-127251557D01*
X40847816Y-127155051D01*
X40934138Y-127092335D01*
X41019786Y-127030109D01*
X41019788Y-127030106D01*
X41019792Y-127030104D01*
X41170104Y-126879792D01*
X41170106Y-126879788D01*
X41170109Y-126879786D01*
X41295048Y-126707820D01*
X41295050Y-126707817D01*
X41295051Y-126707816D01*
X41299514Y-126699054D01*
X41347488Y-126648259D01*
X41415308Y-126631463D01*
X41481444Y-126653999D01*
X41520486Y-126699056D01*
X41524951Y-126707820D01*
X41649890Y-126879786D01*
X41800213Y-127030109D01*
X41972179Y-127155048D01*
X41972181Y-127155049D01*
X41972184Y-127155051D01*
X42161588Y-127251557D01*
X42363757Y-127317246D01*
X42573713Y-127350500D01*
X42573714Y-127350500D01*
X42786286Y-127350500D01*
X42786287Y-127350500D01*
X42996243Y-127317246D01*
X43198412Y-127251557D01*
X43387816Y-127155051D01*
X43474138Y-127092335D01*
X43559786Y-127030109D01*
X43559788Y-127030106D01*
X43559792Y-127030104D01*
X43710104Y-126879792D01*
X43710106Y-126879788D01*
X43710109Y-126879786D01*
X43835048Y-126707820D01*
X43835050Y-126707817D01*
X43835051Y-126707816D01*
X43839514Y-126699054D01*
X43887488Y-126648259D01*
X43955308Y-126631463D01*
X44021444Y-126653999D01*
X44060486Y-126699056D01*
X44064951Y-126707820D01*
X44189890Y-126879786D01*
X44340213Y-127030109D01*
X44512179Y-127155048D01*
X44512181Y-127155049D01*
X44512184Y-127155051D01*
X44701588Y-127251557D01*
X44903757Y-127317246D01*
X45113713Y-127350500D01*
X45113714Y-127350500D01*
X45326286Y-127350500D01*
X45326287Y-127350500D01*
X45536243Y-127317246D01*
X45738412Y-127251557D01*
X45927816Y-127155051D01*
X46014138Y-127092335D01*
X46099786Y-127030109D01*
X46099788Y-127030106D01*
X46099792Y-127030104D01*
X46250104Y-126879792D01*
X46250106Y-126879788D01*
X46250109Y-126879786D01*
X46375048Y-126707820D01*
X46375050Y-126707817D01*
X46375051Y-126707816D01*
X46379514Y-126699054D01*
X46427488Y-126648259D01*
X46495308Y-126631463D01*
X46561444Y-126653999D01*
X46600486Y-126699056D01*
X46604951Y-126707820D01*
X46729890Y-126879786D01*
X46880213Y-127030109D01*
X47052179Y-127155048D01*
X47052181Y-127155049D01*
X47052184Y-127155051D01*
X47241588Y-127251557D01*
X47443757Y-127317246D01*
X47653713Y-127350500D01*
X47653714Y-127350500D01*
X47866286Y-127350500D01*
X47866287Y-127350500D01*
X48076243Y-127317246D01*
X48278412Y-127251557D01*
X48467816Y-127155051D01*
X48554138Y-127092335D01*
X48639786Y-127030109D01*
X48639788Y-127030106D01*
X48639792Y-127030104D01*
X48790104Y-126879792D01*
X48790106Y-126879788D01*
X48790109Y-126879786D01*
X48915048Y-126707820D01*
X48915050Y-126707817D01*
X48915051Y-126707816D01*
X48919514Y-126699054D01*
X48967488Y-126648259D01*
X49035308Y-126631463D01*
X49101444Y-126653999D01*
X49140486Y-126699056D01*
X49144951Y-126707820D01*
X49269890Y-126879786D01*
X49420213Y-127030109D01*
X49592179Y-127155048D01*
X49592181Y-127155049D01*
X49592184Y-127155051D01*
X49781588Y-127251557D01*
X49983757Y-127317246D01*
X50193713Y-127350500D01*
X50193714Y-127350500D01*
X50406286Y-127350500D01*
X50406287Y-127350500D01*
X50616243Y-127317246D01*
X50818412Y-127251557D01*
X51007816Y-127155051D01*
X51094138Y-127092335D01*
X51179786Y-127030109D01*
X51179788Y-127030106D01*
X51179792Y-127030104D01*
X51330104Y-126879792D01*
X51330106Y-126879788D01*
X51330109Y-126879786D01*
X51455048Y-126707820D01*
X51455050Y-126707817D01*
X51455051Y-126707816D01*
X51551557Y-126518412D01*
X51617246Y-126316243D01*
X51650500Y-126106287D01*
X51650500Y-125893713D01*
X54029500Y-125893713D01*
X54029500Y-126106286D01*
X54062753Y-126316239D01*
X54128444Y-126518414D01*
X54224951Y-126707820D01*
X54349890Y-126879786D01*
X54500213Y-127030109D01*
X54672179Y-127155048D01*
X54672181Y-127155049D01*
X54672184Y-127155051D01*
X54861588Y-127251557D01*
X55063757Y-127317246D01*
X55273713Y-127350500D01*
X55273714Y-127350500D01*
X55486286Y-127350500D01*
X55486287Y-127350500D01*
X55696243Y-127317246D01*
X55898412Y-127251557D01*
X56087816Y-127155051D01*
X56174138Y-127092335D01*
X56259786Y-127030109D01*
X56259788Y-127030106D01*
X56259792Y-127030104D01*
X56410104Y-126879792D01*
X56410106Y-126879788D01*
X56410109Y-126879786D01*
X56535048Y-126707820D01*
X56535050Y-126707817D01*
X56535051Y-126707816D01*
X56631557Y-126518412D01*
X56697246Y-126316243D01*
X56730500Y-126106287D01*
X56730500Y-125893713D01*
X56715382Y-125798268D01*
X56724336Y-125728979D01*
X56750169Y-125691197D01*
X56982952Y-125458416D01*
X57047228Y-125362218D01*
X57065084Y-125335495D01*
X57121658Y-125198913D01*
X57140909Y-125102135D01*
X59109500Y-125102135D01*
X59109500Y-126897870D01*
X59109501Y-126897876D01*
X59115908Y-126957483D01*
X59166202Y-127092328D01*
X59166206Y-127092335D01*
X59252452Y-127207544D01*
X59252455Y-127207547D01*
X59367664Y-127293793D01*
X59367671Y-127293797D01*
X59502517Y-127344091D01*
X59502516Y-127344091D01*
X59509444Y-127344835D01*
X59562127Y-127350500D01*
X61357872Y-127350499D01*
X61417483Y-127344091D01*
X61552331Y-127293796D01*
X61667546Y-127207546D01*
X61753796Y-127092331D01*
X61804091Y-126957483D01*
X61810500Y-126897873D01*
X61810499Y-125102128D01*
X61804091Y-125042517D01*
X61753796Y-124907669D01*
X61753795Y-124907668D01*
X61753793Y-124907664D01*
X61667547Y-124792455D01*
X61667544Y-124792452D01*
X61552335Y-124706206D01*
X61552328Y-124706202D01*
X61417482Y-124655908D01*
X61417483Y-124655908D01*
X61357883Y-124649501D01*
X61357881Y-124649500D01*
X61357873Y-124649500D01*
X61357864Y-124649500D01*
X59562129Y-124649500D01*
X59562123Y-124649501D01*
X59502516Y-124655908D01*
X59367671Y-124706202D01*
X59367664Y-124706206D01*
X59252455Y-124792452D01*
X59252452Y-124792455D01*
X59166206Y-124907664D01*
X59166202Y-124907671D01*
X59115908Y-125042517D01*
X59109501Y-125102116D01*
X59109501Y-125102123D01*
X59109500Y-125102135D01*
X57140909Y-125102135D01*
X57140910Y-125102128D01*
X57146379Y-125074637D01*
X57146383Y-125074616D01*
X57150500Y-125053917D01*
X57150500Y-117362229D01*
X57170185Y-117295190D01*
X57186819Y-117274548D01*
X60782950Y-113678417D01*
X60782952Y-113678415D01*
X60834372Y-113601459D01*
X60865084Y-113555495D01*
X60888518Y-113498920D01*
X60921659Y-113418912D01*
X60950500Y-113273917D01*
X60950500Y-113126082D01*
X60950500Y-107704604D01*
X60959939Y-107657151D01*
X60969737Y-107633497D01*
X61000500Y-107478842D01*
X61000500Y-107321158D01*
X61000500Y-107321155D01*
X61000499Y-107321153D01*
X60969738Y-107166510D01*
X60969737Y-107166503D01*
X60969735Y-107166498D01*
X60909397Y-107020827D01*
X60909390Y-107020814D01*
X60821789Y-106889711D01*
X60821786Y-106889707D01*
X60710292Y-106778213D01*
X60710288Y-106778210D01*
X60579185Y-106690609D01*
X60579172Y-106690602D01*
X60433501Y-106630264D01*
X60433489Y-106630261D01*
X60278845Y-106599500D01*
X60278842Y-106599500D01*
X60121158Y-106599500D01*
X60121155Y-106599500D01*
X59966510Y-106630261D01*
X59966498Y-106630264D01*
X59820827Y-106690602D01*
X59820814Y-106690609D01*
X59689711Y-106778210D01*
X59689707Y-106778213D01*
X59578213Y-106889707D01*
X59578210Y-106889711D01*
X59490609Y-107020814D01*
X59490602Y-107020827D01*
X59430264Y-107166498D01*
X59430261Y-107166510D01*
X59399500Y-107321153D01*
X59399500Y-107478846D01*
X59430261Y-107633489D01*
X59430263Y-107633497D01*
X59440061Y-107657151D01*
X59449500Y-107704604D01*
X59449500Y-112837769D01*
X59429815Y-112904808D01*
X59413181Y-112925450D01*
X55817050Y-116521580D01*
X55817044Y-116521588D01*
X55767812Y-116595268D01*
X55767813Y-116595269D01*
X55734921Y-116644496D01*
X55734914Y-116644508D01*
X55678342Y-116781086D01*
X55678340Y-116781092D01*
X55649500Y-116926079D01*
X55649500Y-124530164D01*
X55629815Y-124597203D01*
X55577011Y-124642958D01*
X55507853Y-124652902D01*
X55506105Y-124652638D01*
X55486290Y-124649500D01*
X55486287Y-124649500D01*
X55273713Y-124649500D01*
X55225042Y-124657208D01*
X55063760Y-124682753D01*
X54861585Y-124748444D01*
X54672179Y-124844951D01*
X54500213Y-124969890D01*
X54349890Y-125120213D01*
X54224951Y-125292179D01*
X54128444Y-125481585D01*
X54062753Y-125683760D01*
X54029500Y-125893713D01*
X51650500Y-125893713D01*
X51617246Y-125683757D01*
X51551557Y-125481588D01*
X51455051Y-125292184D01*
X51455049Y-125292181D01*
X51455048Y-125292179D01*
X51330109Y-125120213D01*
X51179786Y-124969890D01*
X51007820Y-124844951D01*
X50818414Y-124748444D01*
X50818413Y-124748443D01*
X50818412Y-124748443D01*
X50616243Y-124682754D01*
X50616241Y-124682753D01*
X50616240Y-124682753D01*
X50454957Y-124657208D01*
X50406287Y-124649500D01*
X50193713Y-124649500D01*
X50145042Y-124657208D01*
X49983760Y-124682753D01*
X49781585Y-124748444D01*
X49592179Y-124844951D01*
X49420213Y-124969890D01*
X49269890Y-125120213D01*
X49144949Y-125292182D01*
X49140484Y-125300946D01*
X49092509Y-125351742D01*
X49024688Y-125368536D01*
X48958553Y-125345998D01*
X48919516Y-125300946D01*
X48915050Y-125292182D01*
X48790109Y-125120213D01*
X48639786Y-124969890D01*
X48467820Y-124844951D01*
X48278414Y-124748444D01*
X48278413Y-124748443D01*
X48278412Y-124748443D01*
X48076243Y-124682754D01*
X48076241Y-124682753D01*
X48076240Y-124682753D01*
X47914957Y-124657208D01*
X47866287Y-124649500D01*
X47653713Y-124649500D01*
X47605042Y-124657208D01*
X47443760Y-124682753D01*
X47241585Y-124748444D01*
X47052179Y-124844951D01*
X46880213Y-124969890D01*
X46729890Y-125120213D01*
X46604949Y-125292182D01*
X46600484Y-125300946D01*
X46552509Y-125351742D01*
X46484688Y-125368536D01*
X46418553Y-125345998D01*
X46379516Y-125300946D01*
X46375050Y-125292182D01*
X46250109Y-125120213D01*
X46099786Y-124969890D01*
X45927820Y-124844951D01*
X45738414Y-124748444D01*
X45738413Y-124748443D01*
X45738412Y-124748443D01*
X45536243Y-124682754D01*
X45536241Y-124682753D01*
X45536240Y-124682753D01*
X45374957Y-124657208D01*
X45326287Y-124649500D01*
X45113713Y-124649500D01*
X45065042Y-124657208D01*
X44903760Y-124682753D01*
X44701585Y-124748444D01*
X44512179Y-124844951D01*
X44340213Y-124969890D01*
X44189890Y-125120213D01*
X44064949Y-125292182D01*
X44060484Y-125300946D01*
X44012509Y-125351742D01*
X43944688Y-125368536D01*
X43878553Y-125345998D01*
X43839516Y-125300946D01*
X43835050Y-125292182D01*
X43710109Y-125120213D01*
X43559786Y-124969890D01*
X43387820Y-124844951D01*
X43198414Y-124748444D01*
X43198413Y-124748443D01*
X43198412Y-124748443D01*
X42996243Y-124682754D01*
X42996241Y-124682753D01*
X42996240Y-124682753D01*
X42834957Y-124657208D01*
X42786287Y-124649500D01*
X42573713Y-124649500D01*
X42525042Y-124657208D01*
X42363760Y-124682753D01*
X42161585Y-124748444D01*
X41972179Y-124844951D01*
X41800213Y-124969890D01*
X41649890Y-125120213D01*
X41524949Y-125292182D01*
X41520484Y-125300946D01*
X41472509Y-125351742D01*
X41404688Y-125368536D01*
X41338553Y-125345998D01*
X41299516Y-125300946D01*
X41295050Y-125292182D01*
X41170109Y-125120213D01*
X41019786Y-124969890D01*
X40847820Y-124844951D01*
X40658414Y-124748444D01*
X40658413Y-124748443D01*
X40658412Y-124748443D01*
X40456243Y-124682754D01*
X40456241Y-124682753D01*
X40456240Y-124682753D01*
X40294957Y-124657208D01*
X40246287Y-124649500D01*
X40033713Y-124649500D01*
X39985042Y-124657208D01*
X39823760Y-124682753D01*
X39621585Y-124748444D01*
X39432179Y-124844951D01*
X39260213Y-124969890D01*
X39109890Y-125120213D01*
X38984951Y-125292179D01*
X38888444Y-125481585D01*
X38822753Y-125683760D01*
X38789500Y-125893713D01*
X36410500Y-125893713D01*
X36377246Y-125683757D01*
X36311557Y-125481588D01*
X36215051Y-125292184D01*
X36215049Y-125292181D01*
X36215048Y-125292179D01*
X36090109Y-125120213D01*
X35939786Y-124969890D01*
X35767820Y-124844951D01*
X35578414Y-124748444D01*
X35578413Y-124748443D01*
X35578412Y-124748443D01*
X35376243Y-124682754D01*
X35376241Y-124682753D01*
X35376240Y-124682753D01*
X35214957Y-124657208D01*
X35166287Y-124649500D01*
X34953713Y-124649500D01*
X34905042Y-124657208D01*
X34743760Y-124682753D01*
X34541585Y-124748444D01*
X34352179Y-124844951D01*
X34180213Y-124969890D01*
X34029890Y-125120213D01*
X33904949Y-125292182D01*
X33900202Y-125301499D01*
X33852227Y-125352293D01*
X33784405Y-125369087D01*
X33718271Y-125346548D01*
X33679234Y-125301495D01*
X33674626Y-125292452D01*
X33635270Y-125238282D01*
X33635269Y-125238282D01*
X33002962Y-125870590D01*
X32985925Y-125807007D01*
X32920099Y-125692993D01*
X32827007Y-125599901D01*
X32712993Y-125534075D01*
X32649409Y-125517037D01*
X33281716Y-124884728D01*
X33227550Y-124845375D01*
X33038217Y-124748904D01*
X32836129Y-124683242D01*
X32626246Y-124650000D01*
X32413754Y-124650000D01*
X32203872Y-124683242D01*
X32203869Y-124683242D01*
X32001782Y-124748904D01*
X31812439Y-124845380D01*
X31758282Y-124884727D01*
X31758282Y-124884728D01*
X32390591Y-125517037D01*
X32327007Y-125534075D01*
X32212993Y-125599901D01*
X32119901Y-125692993D01*
X32054075Y-125807007D01*
X32037037Y-125870591D01*
X31404728Y-125238282D01*
X31404727Y-125238282D01*
X31365380Y-125292439D01*
X31268904Y-125481782D01*
X31203242Y-125683869D01*
X31203242Y-125683872D01*
X31170000Y-125893753D01*
X30500500Y-125893753D01*
X30500500Y-98624500D01*
X30520185Y-98557461D01*
X30572989Y-98511706D01*
X30624500Y-98500500D01*
X31475500Y-98500500D01*
X31542539Y-98520185D01*
X31588294Y-98572989D01*
X31599500Y-98624500D01*
X31599500Y-109548422D01*
X31630290Y-109742826D01*
X31691117Y-109930030D01*
X31729291Y-110004949D01*
X31780476Y-110105405D01*
X31896172Y-110264646D01*
X36285355Y-114653829D01*
X36444595Y-114769524D01*
X36527454Y-114811742D01*
X36619969Y-114858882D01*
X36619971Y-114858882D01*
X36619974Y-114858884D01*
X36720318Y-114891487D01*
X36807173Y-114919709D01*
X37001578Y-114950500D01*
X37001583Y-114950500D01*
X37001584Y-114950500D01*
X37198417Y-114950500D01*
X38791706Y-114950500D01*
X38858745Y-114970185D01*
X38904500Y-115022989D01*
X38914444Y-115092147D01*
X38894814Y-115139537D01*
X38895897Y-115140128D01*
X38891645Y-115147913D01*
X38841403Y-115282620D01*
X38841401Y-115282627D01*
X38835000Y-115342155D01*
X38835000Y-115990000D01*
X39751988Y-115990000D01*
X39719075Y-116047007D01*
X39685000Y-116174174D01*
X39685000Y-116305826D01*
X39719075Y-116432993D01*
X39751988Y-116490000D01*
X38835000Y-116490000D01*
X38835000Y-117137844D01*
X38841401Y-117197372D01*
X38841403Y-117197379D01*
X38891645Y-117332086D01*
X38891649Y-117332093D01*
X38977809Y-117447187D01*
X38977812Y-117447190D01*
X39092906Y-117533350D01*
X39092913Y-117533354D01*
X39227620Y-117583596D01*
X39227627Y-117583598D01*
X39287155Y-117589999D01*
X39287172Y-117590000D01*
X39935000Y-117590000D01*
X39935000Y-116673012D01*
X39992007Y-116705925D01*
X40119174Y-116740000D01*
X40250826Y-116740000D01*
X40377993Y-116705925D01*
X40435000Y-116673012D01*
X40435000Y-117590000D01*
X41082828Y-117590000D01*
X41082844Y-117589999D01*
X41142372Y-117583598D01*
X41142379Y-117583596D01*
X41277086Y-117533354D01*
X41277093Y-117533350D01*
X41392187Y-117447190D01*
X41392190Y-117447187D01*
X41478350Y-117332093D01*
X41478354Y-117332086D01*
X41528596Y-117197379D01*
X41528598Y-117197372D01*
X41534999Y-117137844D01*
X41535000Y-117137827D01*
X41535000Y-116490000D01*
X40618012Y-116490000D01*
X40650925Y-116432993D01*
X40685000Y-116305826D01*
X40685000Y-116174174D01*
X40650925Y-116047007D01*
X40618012Y-115990000D01*
X41535000Y-115990000D01*
X41535000Y-115342172D01*
X41534999Y-115342155D01*
X41528598Y-115282627D01*
X41528596Y-115282620D01*
X41478354Y-115147913D01*
X41478350Y-115147906D01*
X41392190Y-115032812D01*
X41392187Y-115032809D01*
X41277093Y-114946649D01*
X41277088Y-114946646D01*
X41145528Y-114897577D01*
X41089595Y-114855705D01*
X41065178Y-114790241D01*
X41080030Y-114721968D01*
X41101175Y-114693720D01*
X41215104Y-114579792D01*
X41340051Y-114407816D01*
X41436557Y-114218412D01*
X41502246Y-114016243D01*
X41535500Y-113806287D01*
X41535500Y-113593713D01*
X41502246Y-113383757D01*
X41436557Y-113181588D01*
X41340051Y-112992184D01*
X41340049Y-112992181D01*
X41340048Y-112992179D01*
X41215109Y-112820213D01*
X41064786Y-112669890D01*
X40892820Y-112544951D01*
X40892115Y-112544591D01*
X40884054Y-112540485D01*
X40833259Y-112492512D01*
X40816463Y-112424692D01*
X40838999Y-112358556D01*
X40884054Y-112319515D01*
X40892816Y-112315051D01*
X40940357Y-112280511D01*
X41064786Y-112190109D01*
X41064788Y-112190106D01*
X41064792Y-112190104D01*
X41215104Y-112039792D01*
X41215106Y-112039788D01*
X41215109Y-112039786D01*
X41340048Y-111867820D01*
X41340047Y-111867820D01*
X41340051Y-111867816D01*
X41436557Y-111678412D01*
X41502246Y-111476243D01*
X41535500Y-111266287D01*
X41535500Y-111053713D01*
X41502246Y-110843757D01*
X41436557Y-110641588D01*
X41340051Y-110452184D01*
X41340049Y-110452181D01*
X41340048Y-110452179D01*
X41215109Y-110280213D01*
X41064786Y-110129890D01*
X40892820Y-110004951D01*
X40703414Y-109908444D01*
X40703413Y-109908443D01*
X40703412Y-109908443D01*
X40501243Y-109842754D01*
X40501241Y-109842753D01*
X40501240Y-109842753D01*
X40339957Y-109817208D01*
X40291287Y-109809500D01*
X40078713Y-109809500D01*
X40030042Y-109817208D01*
X39868760Y-109842753D01*
X39666585Y-109908444D01*
X39477179Y-110004951D01*
X39305213Y-110129890D01*
X39154890Y-110280213D01*
X39029951Y-110452179D01*
X38933444Y-110641585D01*
X38867753Y-110843760D01*
X38834500Y-111053713D01*
X38834500Y-111266286D01*
X38867753Y-111476239D01*
X38933444Y-111678414D01*
X39029951Y-111867820D01*
X39154890Y-112039786D01*
X39305207Y-112190103D01*
X39353488Y-112225181D01*
X39396154Y-112280511D01*
X39402133Y-112350124D01*
X39369528Y-112411920D01*
X39308689Y-112446277D01*
X39280603Y-112449500D01*
X37669336Y-112449500D01*
X37602297Y-112429815D01*
X37581655Y-112413181D01*
X34136819Y-108968345D01*
X34103334Y-108907022D01*
X34100500Y-108880664D01*
X34100500Y-98307204D01*
X34120185Y-98240165D01*
X34136819Y-98219523D01*
X34252477Y-98103865D01*
X34370279Y-97929813D01*
X34453013Y-97736612D01*
X34497688Y-97531245D01*
X34500500Y-97484038D01*
X34500500Y-94969336D01*
X34520185Y-94902297D01*
X34536819Y-94881655D01*
X37732356Y-91686117D01*
X37793677Y-91652634D01*
X37801510Y-91651483D01*
X37801475Y-91651262D01*
X37806286Y-91650500D01*
X37806287Y-91650500D01*
X38016243Y-91617246D01*
X38218412Y-91551557D01*
X38407816Y-91455051D01*
X38579792Y-91330104D01*
X38693329Y-91216566D01*
X38754648Y-91183084D01*
X38824340Y-91188068D01*
X38880274Y-91229939D01*
X38897189Y-91260917D01*
X38946202Y-91392328D01*
X38946206Y-91392335D01*
X39032452Y-91507544D01*
X39032455Y-91507547D01*
X39147664Y-91593793D01*
X39147671Y-91593797D01*
X39282517Y-91644091D01*
X39282516Y-91644091D01*
X39289444Y-91644835D01*
X39342127Y-91650500D01*
X41137872Y-91650499D01*
X41197483Y-91644091D01*
X41332331Y-91593796D01*
X41447546Y-91507546D01*
X41533796Y-91392331D01*
X41584091Y-91257483D01*
X41590500Y-91197873D01*
X41590499Y-89402128D01*
X41584091Y-89342517D01*
X41582810Y-89339083D01*
X41533797Y-89207671D01*
X41533793Y-89207664D01*
X41447546Y-89092454D01*
X41447544Y-89092452D01*
X41332335Y-89006206D01*
X41332328Y-89006202D01*
X41197482Y-88955908D01*
X41197483Y-88955908D01*
X41137883Y-88949501D01*
X41137881Y-88949500D01*
X41137873Y-88949500D01*
X41137864Y-88949500D01*
X39342129Y-88949500D01*
X39342123Y-88949501D01*
X39282516Y-88955908D01*
X39147671Y-89006202D01*
X39147664Y-89006206D01*
X39032455Y-89092452D01*
X39032454Y-89092454D01*
X38946206Y-89207664D01*
X38946203Y-89207669D01*
X38897189Y-89339083D01*
X38855317Y-89395016D01*
X38789853Y-89419433D01*
X38721580Y-89404581D01*
X38693326Y-89383430D01*
X38579786Y-89269890D01*
X38407820Y-89144951D01*
X38218414Y-89048444D01*
X38218413Y-89048443D01*
X38218412Y-89048443D01*
X38016243Y-88982754D01*
X38016241Y-88982753D01*
X38016240Y-88982753D01*
X37854957Y-88957208D01*
X37806287Y-88949500D01*
X37593713Y-88949500D01*
X37554202Y-88955757D01*
X37383759Y-88982753D01*
X37181594Y-89048440D01*
X37181580Y-89048446D01*
X37164498Y-89057149D01*
X37127609Y-89069134D01*
X37057174Y-89080290D01*
X37019739Y-89092453D01*
X37019740Y-89092454D01*
X36869970Y-89141117D01*
X36694594Y-89230476D01*
X36599592Y-89299500D01*
X36599591Y-89299499D01*
X36535360Y-89346167D01*
X36535351Y-89346174D01*
X34194234Y-91687291D01*
X34132911Y-91720776D01*
X34063219Y-91715792D01*
X34037051Y-91702301D01*
X33929810Y-91629719D01*
X33736613Y-91546987D01*
X33736602Y-91546984D01*
X33531250Y-91502312D01*
X33516492Y-91501433D01*
X33484038Y-91499500D01*
X30624500Y-91499500D01*
X30557461Y-91479815D01*
X30511706Y-91427011D01*
X30500500Y-91375500D01*
X30500500Y-80004315D01*
X30520185Y-79937276D01*
X30572989Y-79891521D01*
X30642147Y-79881577D01*
X30686501Y-79896928D01*
X30692683Y-79900497D01*
X30692686Y-79900500D01*
X30806814Y-79966392D01*
X30934108Y-80000500D01*
X30934110Y-80000500D01*
X38065890Y-80000500D01*
X38065892Y-80000500D01*
X38193186Y-79966392D01*
X38307314Y-79900500D01*
X38400500Y-79807314D01*
X38466392Y-79693186D01*
X38500500Y-79565892D01*
X38500500Y-79434108D01*
X39499500Y-79434108D01*
X39499500Y-79565891D01*
X39533608Y-79693187D01*
X39566554Y-79750250D01*
X39599500Y-79807314D01*
X39692686Y-79900500D01*
X39806814Y-79966392D01*
X39934108Y-80000500D01*
X39934110Y-80000500D01*
X53065890Y-80000500D01*
X53065892Y-80000500D01*
X53193186Y-79966392D01*
X53307314Y-79900500D01*
X53400500Y-79807314D01*
X53466392Y-79693186D01*
X53500500Y-79565892D01*
X53500500Y-79434108D01*
X53466392Y-79306814D01*
X53400500Y-79192686D01*
X53307314Y-79099500D01*
X53250250Y-79066554D01*
X53193187Y-79033608D01*
X53129539Y-79016554D01*
X53065892Y-78999500D01*
X39934108Y-78999500D01*
X39806812Y-79033608D01*
X39692686Y-79099500D01*
X39692683Y-79099502D01*
X39599502Y-79192683D01*
X39599500Y-79192686D01*
X39533608Y-79306812D01*
X39499500Y-79434108D01*
X38500500Y-79434108D01*
X38466392Y-79306814D01*
X38400500Y-79192686D01*
X38307314Y-79099500D01*
X38250250Y-79066554D01*
X38193187Y-79033608D01*
X38129539Y-79016554D01*
X38065892Y-78999500D01*
X30934108Y-78999500D01*
X30806814Y-79033608D01*
X30806813Y-79033608D01*
X30806811Y-79033609D01*
X30806810Y-79033609D01*
X30686500Y-79103071D01*
X30618600Y-79119544D01*
X30552573Y-79096692D01*
X30509382Y-79041770D01*
X30500500Y-78995684D01*
X30500500Y-78530475D01*
X30520185Y-78463436D01*
X30572989Y-78417681D01*
X30624840Y-78406475D01*
X64075876Y-78499654D01*
G37*
%TD.AperFunction*%
%TD*%
M02*
