M48
; DRILL file {KiCad 9.0.7} date 2026-08-17T15:29:27+0300
; FORMAT={-:-/ absolute / metric / decimal}
; #@! TF.CreationDate,2026-08-17T15:29:27+03:00
; #@! TF.GenerationSoftware,Kicad,Pcbnew,9.0.7
; #@! TF.FileFunction,Plated,1,2,PTH
FMAT,2
METRIC
; #@! TA.AperFunction,Plated,PTH,ViaDrill
T1C0.300
; #@! TA.AperFunction,Plated,PTH,ComponentDrill
T2C0.600
; #@! TA.AperFunction,Plated,PTH,ComponentDrill
T3C0.700
; #@! TA.AperFunction,Plated,PTH,ComponentDrill
T4C0.800
; #@! TA.AperFunction,Plated,PTH,ComponentDrill
T5C0.900
; #@! TA.AperFunction,Plated,PTH,ComponentDrill
T6C1.000
%
G90
G05
T1
X60.2Y-107.4
X112.6Y-56.8
X126.2Y-57.1
T2
X121.7Y-125.6
X121.7Y-127.6
T3
X98.0Y-103.7
X98.72Y-114.8
X103.08Y-103.7
X103.76Y-109.6
X103.8Y-114.8
X105.62Y-106.3
X105.72Y-103.6
X105.86Y-114.7
X108.84Y-109.6
X110.7Y-106.3
X110.8Y-103.6
X110.94Y-114.7
X111.9Y-119.12
X111.9Y-124.2
X114.1Y-99.8
X114.5Y-119.1
X114.5Y-124.18
X119.18Y-99.8
T4
X101.095Y-118.19
X101.095Y-120.73
X101.095Y-123.27
X101.095Y-125.81
X108.715Y-118.19
X108.715Y-120.73
X108.715Y-123.27
X108.715Y-125.81
X115.2Y-109.7
X115.2Y-112.8
X117.3Y-122.4
X120.2Y-109.7
X120.2Y-112.8
X122.3Y-122.4
T5
X83.5Y-100.8
X83.5Y-103.34
T6
X32.52Y-126.0
X34.0Y-32.53
X34.0Y-35.07
X34.0Y-40.15
X34.0Y-42.69
X34.0Y-45.23
X34.0Y-47.77
X34.0Y-50.31
X34.0Y-55.39
X34.0Y-60.47
X35.06Y-126.0
X37.7Y-90.3
X40.14Y-126.0
X40.185Y-111.16
X40.185Y-113.7
X40.185Y-116.24
X40.24Y-90.3
X42.68Y-126.0
X45.22Y-126.0
X47.76Y-126.0
X50.3Y-126.0
X55.38Y-126.0
X60.46Y-126.0
X70.0Y-37.46
X70.0Y-40.0
X90.0Y-120.0
X90.0Y-122.54
X93.575Y-108.96
X93.575Y-111.5
X93.575Y-114.04
X99.53Y-34.0
X102.07Y-34.0
X104.61Y-34.0
X109.69Y-34.0
X112.23Y-34.0
X114.77Y-34.0
X117.31Y-34.0
X119.415Y-37.66
X119.415Y-40.2
X119.415Y-42.74
X119.415Y-45.56
X119.415Y-48.1
X119.415Y-50.64
X119.5Y-53.22
X119.5Y-55.76
X119.5Y-58.3
X119.85Y-34.0
X120.0Y-70.0
X122.54Y-70.0
X124.93Y-34.0
X125.08Y-70.0
X126.0Y-99.53
X126.0Y-104.61
X126.0Y-109.69
X126.0Y-112.23
X126.0Y-114.77
X126.0Y-117.31
X126.0Y-119.85
X126.0Y-124.93
X126.0Y-127.47
X127.47Y-34.0
M30
