%TF.GenerationSoftware,KiCad,Pcbnew,9.0.7*%
%TF.CreationDate,2026-08-17T15:29:24+03:00*%
%TF.ProjectId,testing,74657374-696e-4672-9e6b-696361645f70,rev?*%
%TF.SameCoordinates,Original*%
%TF.FileFunction,Paste,Top*%
%TF.FilePolarity,Positive*%
%FSLAX46Y46*%
G04 Gerber Fmt 4.6, Leading zero omitted, Abs format (unit mm)*
G04 Created by KiCad (PCBNEW 9.0.7) date 2026-08-17 15:29:24*
%MOMM*%
%LPD*%
G01*
G04 APERTURE LIST*
G04 Aperture macros list*
%AMRoundRect*
0 Rectangle with rounded corners*
0 $1 Rounding radius*
0 $2 $3 $4 $5 $6 $7 $8 $9 X,Y pos of 4 corners*
0 Add a 4 corners polygon primitive as box body*
4,1,4,$2,$3,$4,$5,$6,$7,$8,$9,$2,$3,0*
0 Add four circle primitives for the rounded corners*
1,1,$1+$1,$2,$3*
1,1,$1+$1,$4,$5*
1,1,$1+$1,$6,$7*
1,1,$1+$1,$8,$9*
0 Add four rect primitives between the rounded corners*
20,1,$1+$1,$2,$3,$4,$5,0*
20,1,$1+$1,$4,$5,$6,$7,0*
20,1,$1+$1,$6,$7,$8,$9,0*
20,1,$1+$1,$8,$9,$2,$3,0*%
%AMFreePoly0*
4,1,9,3.862500,-0.866500,0.737500,-0.866500,0.737500,-0.450000,-0.737500,-0.450000,-0.737500,0.450000,0.737500,0.450000,0.737500,0.866500,3.862500,0.866500,3.862500,-0.866500,3.862500,-0.866500,$1*%
G04 Aperture macros list end*
%ADD10R,2.200000X1.600000*%
%ADD11RoundRect,0.079500X0.100500X-0.079500X0.100500X0.079500X-0.100500X0.079500X-0.100500X-0.079500X0*%
%ADD12RoundRect,0.160000X-0.197500X-0.160000X0.197500X-0.160000X0.197500X0.160000X-0.197500X0.160000X0*%
%ADD13RoundRect,0.160000X-0.160000X0.222500X-0.160000X-0.222500X0.160000X-0.222500X0.160000X0.222500X0*%
%ADD14RoundRect,0.600000X-1.400000X2.400000X-1.400000X-2.400000X1.400000X-2.400000X1.400000X2.400000X0*%
%ADD15RoundRect,0.375000X0.625000X0.375000X-0.625000X0.375000X-0.625000X-0.375000X0.625000X-0.375000X0*%
%ADD16RoundRect,0.500000X0.500000X1.400000X-0.500000X1.400000X-0.500000X-1.400000X0.500000X-1.400000X0*%
%ADD17RoundRect,0.160000X-0.160000X0.197500X-0.160000X-0.197500X0.160000X-0.197500X0.160000X0.197500X0*%
%ADD18RoundRect,0.140000X-0.140000X-0.170000X0.140000X-0.170000X0.140000X0.170000X-0.140000X0.170000X0*%
%ADD19RoundRect,0.250000X0.650000X-1.000000X0.650000X1.000000X-0.650000X1.000000X-0.650000X-1.000000X0*%
%ADD20RoundRect,0.079500X-0.100500X0.079500X-0.100500X-0.079500X0.100500X-0.079500X0.100500X0.079500X0*%
%ADD21RoundRect,0.250000X0.550000X-0.550000X0.550000X0.550000X-0.550000X0.550000X-0.550000X-0.550000X0*%
%ADD22RoundRect,0.250000X0.400000X0.450000X-0.400000X0.450000X-0.400000X-0.450000X0.400000X-0.450000X0*%
%ADD23RoundRect,0.150000X0.150000X-0.587500X0.150000X0.587500X-0.150000X0.587500X-0.150000X-0.587500X0*%
%ADD24RoundRect,0.160000X0.160000X-0.197500X0.160000X0.197500X-0.160000X0.197500X-0.160000X-0.197500X0*%
%ADD25RoundRect,0.079500X-0.079500X-0.100500X0.079500X-0.100500X0.079500X0.100500X-0.079500X0.100500X0*%
%ADD26RoundRect,0.225000X-0.225000X0.425000X-0.225000X-0.425000X0.225000X-0.425000X0.225000X0.425000X0*%
%ADD27FreePoly0,270.000000*%
%ADD28RoundRect,0.250000X0.550000X0.550000X-0.550000X0.550000X-0.550000X-0.550000X0.550000X-0.550000X0*%
%ADD29RoundRect,0.160000X0.197500X0.160000X-0.197500X0.160000X-0.197500X-0.160000X0.197500X-0.160000X0*%
%ADD30RoundRect,0.600000X2.400000X1.400000X-2.400000X1.400000X-2.400000X-1.400000X2.400000X-1.400000X0*%
%ADD31RoundRect,0.600000X-2.400000X-1.400000X2.400000X-1.400000X2.400000X1.400000X-2.400000X1.400000X0*%
%ADD32RoundRect,0.250000X-0.400000X-0.450000X0.400000X-0.450000X0.400000X0.450000X-0.400000X0.450000X0*%
%ADD33RoundRect,0.140000X0.140000X0.170000X-0.140000X0.170000X-0.140000X-0.170000X0.140000X-0.170000X0*%
%ADD34RoundRect,0.225000X0.225000X0.375000X-0.225000X0.375000X-0.225000X-0.375000X0.225000X-0.375000X0*%
%ADD35RoundRect,0.250000X-0.550000X0.550000X-0.550000X-0.550000X0.550000X-0.550000X0.550000X0.550000X0*%
%ADD36RoundRect,0.160000X0.222500X0.160000X-0.222500X0.160000X-0.222500X-0.160000X0.222500X-0.160000X0*%
%ADD37RoundRect,0.090000X0.090000X-0.139000X0.090000X0.139000X-0.090000X0.139000X-0.090000X-0.139000X0*%
%ADD38RoundRect,0.090000X-0.090000X0.139000X-0.090000X-0.139000X0.090000X-0.139000X0.090000X0.139000X0*%
%ADD39R,1.000000X0.700000*%
%ADD40RoundRect,0.600000X1.400000X-2.400000X1.400000X2.400000X-1.400000X2.400000X-1.400000X-2.400000X0*%
G04 APERTURE END LIST*
D10*
%TO.C,C3*%
X112200000Y-44500000D03*
X115200000Y-44500000D03*
%TD*%
D11*
%TO.C,R7*%
X118000000Y-49790000D03*
X118000000Y-49100000D03*
%TD*%
D12*
%TO.C,R1*%
X60102500Y-59100000D03*
X61297500Y-59100000D03*
%TD*%
D13*
%TO.C,D4*%
X78700000Y-49927500D03*
X78700000Y-51072500D03*
%TD*%
D12*
%TO.C,R4*%
X62200000Y-45500000D03*
X63395000Y-45500000D03*
%TD*%
D11*
%TO.C,R6*%
X118085000Y-57485000D03*
X118085000Y-56795000D03*
%TD*%
D14*
%TO.C,J3*%
X128000000Y-65000000D03*
%TD*%
D12*
%TO.C,R3*%
X99265000Y-46200000D03*
X100460000Y-46200000D03*
%TD*%
D15*
%TO.C,Q1*%
X59550000Y-41000000D03*
X59550000Y-38700000D03*
D16*
X53250000Y-38700000D03*
D15*
X59550000Y-36400000D03*
%TD*%
D17*
%TO.C,R4*%
X99260000Y-48705000D03*
X99260000Y-49900000D03*
%TD*%
D18*
%TO.C,C5*%
X99400000Y-42600000D03*
X100360000Y-42600000D03*
%TD*%
D19*
%TO.C,D2*%
X65500000Y-41000000D03*
X65500000Y-37000000D03*
%TD*%
D20*
%TO.C,R5*%
X118085000Y-54395000D03*
X118085000Y-55085000D03*
%TD*%
D10*
%TO.C,C4*%
X115100000Y-60400000D03*
X112100000Y-60400000D03*
%TD*%
D21*
%TO.C,U1*%
X49330000Y-53110000D03*
X51870000Y-53110000D03*
X51870000Y-45490000D03*
X49330000Y-45490000D03*
%TD*%
D22*
%TO.C,D2*%
X114700000Y-40800000D03*
X111800000Y-40800000D03*
%TD*%
D11*
%TO.C,R9*%
X118000000Y-41790000D03*
X118000000Y-41100000D03*
%TD*%
D12*
%TO.C,R1*%
X111705000Y-38700000D03*
X112900000Y-38700000D03*
%TD*%
D23*
%TO.C,Q2*%
X58200000Y-46900000D03*
X60100000Y-46900000D03*
X59150000Y-45025000D03*
%TD*%
D24*
%TO.C,R5*%
X74300000Y-50995000D03*
X74300000Y-49800000D03*
%TD*%
D25*
%TO.C,C1*%
X50210000Y-55600000D03*
X50900000Y-55600000D03*
%TD*%
D12*
%TO.C,R3*%
X58702500Y-48800000D03*
X59897500Y-48800000D03*
%TD*%
D26*
%TO.C,U1*%
X115200000Y-51350000D03*
D27*
X113700000Y-51437500D03*
D26*
X112200000Y-51350000D03*
%TD*%
D28*
%TO.C,U1*%
X121310000Y-105970000D03*
X121310000Y-103430000D03*
X113690000Y-103430000D03*
X113690000Y-105970000D03*
%TD*%
D29*
%TO.C,R6*%
X63400000Y-44000000D03*
X62205000Y-44000000D03*
%TD*%
D30*
%TO.C,J2*%
X95000000Y-128000000D03*
%TD*%
D31*
%TO.C,J3*%
X65000000Y-32000000D03*
%TD*%
D32*
%TO.C,D3*%
X99300000Y-39000000D03*
X102200000Y-39000000D03*
%TD*%
D12*
%TO.C,R2*%
X114805000Y-38700000D03*
X116000000Y-38700000D03*
%TD*%
D33*
%TO.C,C2*%
X115160000Y-57900000D03*
X114200000Y-57900000D03*
%TD*%
D12*
%TO.C,R2*%
X60102500Y-60600000D03*
X61297500Y-60600000D03*
%TD*%
D34*
%TO.C,D3*%
X40950000Y-35600000D03*
X37650000Y-35600000D03*
%TD*%
D20*
%TO.C,R8*%
X118000000Y-46510000D03*
X118000000Y-47200000D03*
%TD*%
D13*
%TO.C,D1*%
X78000000Y-57927500D03*
X78000000Y-59072500D03*
%TD*%
D18*
%TO.C,C1*%
X114040000Y-46900000D03*
X115000000Y-46900000D03*
%TD*%
D20*
%TO.C,R10*%
X118000000Y-38675000D03*
X118000000Y-39365000D03*
%TD*%
D12*
%TO.C,R5*%
X56805000Y-119600000D03*
X58000000Y-119600000D03*
%TD*%
D35*
%TO.C,U1*%
X51670000Y-100090000D03*
X49130000Y-100090000D03*
X49130000Y-107710000D03*
X51670000Y-107710000D03*
%TD*%
D36*
%TO.C,D1*%
X51245000Y-81300000D03*
X50100000Y-81300000D03*
%TD*%
D37*
%TO.C,R3*%
X42300000Y-112832500D03*
X42300000Y-111967500D03*
%TD*%
D24*
%TO.C,R4*%
X59100000Y-84400000D03*
X59100000Y-83205000D03*
%TD*%
D38*
%TO.C,R2*%
X42300000Y-114700000D03*
X42300000Y-115565000D03*
%TD*%
D39*
%TO.C,D2*%
X52300000Y-93200000D03*
X52300000Y-89200000D03*
X46350000Y-89200000D03*
X46350000Y-93200000D03*
%TD*%
D24*
%TO.C,R1*%
X53000000Y-84497500D03*
X53000000Y-83302500D03*
%TD*%
D36*
%TO.C,D3*%
X59045000Y-81400000D03*
X57900000Y-81400000D03*
%TD*%
D40*
%TO.C,J3*%
X32000000Y-95000000D03*
%TD*%
M02*
