%TF.GenerationSoftware,KiCad,Pcbnew,9.0.7*%
%TF.CreationDate,2026-08-17T12:01:27+03:00*%
%TF.ProjectId,l2-mb-iop-standart,6c322d6d-622d-4696-9f70-2d7374616e64,rev?*%
%TF.SameCoordinates,Original*%
%TF.FileFunction,Soldermask,Top*%
%TF.FilePolarity,Negative*%
%FSLAX46Y46*%
G04 Gerber Fmt 4.6, Leading zero omitted, Abs format (unit mm)*
G04 Created by KiCad (PCBNEW 9.0.7) date 2026-08-17 12:01:27*
%MOMM*%
%LPD*%
G01*
G04 APERTURE LIST*
G04 Aperture macros list*
%AMRoundRect*
0 Rectangle with rounded corners*
0 $1 Rounding radius*
0 $2 $3 $4 $5 $6 $7 $8 $9 X,Y pos of 4 corners*
0 Add a 4 corners polygon primitive as box body*
4,1,4,$2,$3,$4,$5,$6,$7,$8,$9,$2,$3,0*
0 Add four circle primitives for the rounded corners*
1,1,$1+$1,$2,$3*
1,1,$1+$1,$4,$5*
1,1,$1+$1,$6,$7*
1,1,$1+$1,$8,$9*
0 Add four rect primitives between the rounded corners*
20,1,$1+$1,$2,$3,$4,$5,0*
20,1,$1+$1,$4,$5,$6,$7,0*
20,1,$1+$1,$6,$7,$8,$9,0*
20,1,$1+$1,$8,$9,$2,$3,0*%
G04 Aperture macros list end*
%ADD10R,1.700000X1.700000*%
%ADD11C,1.700000*%
%ADD12R,1.600000X1.600000*%
%ADD13O,1.600000X1.600000*%
%ADD14RoundRect,0.250000X-0.375000X-0.625000X0.375000X-0.625000X0.375000X0.625000X-0.375000X0.625000X0*%
%ADD15RoundRect,0.250000X0.475000X-0.337500X0.475000X0.337500X-0.475000X0.337500X-0.475000X-0.337500X0*%
%ADD16R,0.850000X0.850000*%
%ADD17RoundRect,0.250000X0.550000X-1.050000X0.550000X1.050000X-0.550000X1.050000X-0.550000X-1.050000X0*%
%ADD18R,1.905000X1.905000*%
%ADD19C,1.905000*%
%ADD20RoundRect,0.250000X-0.337500X-0.475000X0.337500X-0.475000X0.337500X0.475000X-0.337500X0.475000X0*%
%ADD21RoundRect,0.250000X-0.550000X1.050000X-0.550000X-1.050000X0.550000X-1.050000X0.550000X1.050000X0*%
G04 APERTURE END LIST*
D10*
%TO.C,J30*%
X150000000Y-110000000D03*
D11*
X150000000Y-112540000D03*
X150000000Y-115080000D03*
X150000000Y-117620000D03*
X150000000Y-120160000D03*
X150000000Y-122700000D03*
X150000000Y-125240000D03*
X150000000Y-127780000D03*
X150000000Y-130320000D03*
X150000000Y-132860000D03*
X150000000Y-135400000D03*
X150000000Y-137940000D03*
%TD*%
D12*
%TO.C,A1*%
X144540000Y-88000000D03*
D13*
X142000000Y-88000000D03*
X139460000Y-88000000D03*
X136920000Y-88000000D03*
X134380000Y-88000000D03*
X131840000Y-88000000D03*
X129300000Y-88000000D03*
X126760000Y-88000000D03*
X124220000Y-88000000D03*
X121680000Y-88000000D03*
X119140000Y-88000000D03*
X116600000Y-88000000D03*
X114060000Y-88000000D03*
X111520000Y-88000000D03*
X108980000Y-88000000D03*
X108980000Y-103240000D03*
X111520000Y-103240000D03*
X114060000Y-103240000D03*
X116600000Y-103240000D03*
X119140000Y-103240000D03*
X121680000Y-103240000D03*
X124220000Y-103240000D03*
X126760000Y-103240000D03*
X129300000Y-103240000D03*
X131840000Y-103240000D03*
X134380000Y-103240000D03*
X136920000Y-103240000D03*
X139460000Y-103240000D03*
X142000000Y-103240000D03*
X144540000Y-103240000D03*
%TD*%
D10*
%TO.C,J34*%
X186350000Y-110000000D03*
D11*
X186350000Y-112540000D03*
X186350000Y-115080000D03*
X186350000Y-117620000D03*
X186350000Y-120160000D03*
X186350000Y-122700000D03*
X186350000Y-125240000D03*
X186350000Y-127780000D03*
X186350000Y-130320000D03*
X186350000Y-132860000D03*
X186350000Y-135400000D03*
X186350000Y-137940000D03*
%TD*%
D14*
%TO.C,D1*%
X192400000Y-85600000D03*
X195200000Y-85600000D03*
%TD*%
D10*
%TO.C,J27*%
X122750000Y-110000000D03*
D11*
X122750000Y-112540000D03*
X122750000Y-115080000D03*
X122750000Y-117620000D03*
X122750000Y-120160000D03*
X122750000Y-122700000D03*
X122750000Y-125240000D03*
X122750000Y-127780000D03*
X122750000Y-130320000D03*
X122750000Y-132860000D03*
X122750000Y-135400000D03*
X122750000Y-137940000D03*
%TD*%
D10*
%TO.C,J20*%
X159050000Y-80000000D03*
D11*
X159050000Y-77460000D03*
X159050000Y-74920000D03*
X159050000Y-72380000D03*
X159050000Y-69840000D03*
X159050000Y-67300000D03*
X159050000Y-64760000D03*
X159050000Y-62220000D03*
X159050000Y-59680000D03*
X159050000Y-57140000D03*
X159050000Y-54600000D03*
X159050000Y-52060000D03*
%TD*%
D15*
%TO.C,C3*%
X173000000Y-88437500D03*
X173000000Y-86362500D03*
%TD*%
D10*
%TO.C,J25*%
X113650000Y-80000000D03*
D11*
X113650000Y-77460000D03*
X113650000Y-74920000D03*
X113650000Y-72380000D03*
X113650000Y-69840000D03*
X113650000Y-67300000D03*
X113650000Y-64760000D03*
X113650000Y-62220000D03*
X113650000Y-59680000D03*
X113650000Y-57140000D03*
X113650000Y-54600000D03*
X113650000Y-52060000D03*
%TD*%
D16*
%TO.C,J9*%
X154800000Y-85500000D03*
%TD*%
%TO.C,J2*%
X174600000Y-84200000D03*
%TD*%
D10*
%TO.C,J19*%
X168150000Y-80000000D03*
D11*
X168150000Y-77460000D03*
X168150000Y-74920000D03*
X168150000Y-72380000D03*
X168150000Y-69840000D03*
X168150000Y-67300000D03*
X168150000Y-64760000D03*
X168150000Y-62220000D03*
X168150000Y-59680000D03*
X168150000Y-57140000D03*
X168150000Y-54600000D03*
X168150000Y-52060000D03*
%TD*%
D16*
%TO.C,J7*%
X157400000Y-105500000D03*
%TD*%
D17*
%TO.C,C4*%
X169500000Y-89200000D03*
X169500000Y-85600000D03*
%TD*%
D10*
%TO.C,J14*%
X104550000Y-110000000D03*
D11*
X104550000Y-112540000D03*
X104550000Y-115080000D03*
X104550000Y-117620000D03*
X104550000Y-120160000D03*
X104550000Y-122700000D03*
X104550000Y-125240000D03*
X104550000Y-127780000D03*
X104550000Y-130320000D03*
X104550000Y-132860000D03*
X104550000Y-135400000D03*
X104550000Y-137940000D03*
%TD*%
D10*
%TO.C,J28*%
X131850000Y-110000000D03*
D11*
X131850000Y-112540000D03*
X131850000Y-115080000D03*
X131850000Y-117620000D03*
X131850000Y-120160000D03*
X131850000Y-122700000D03*
X131850000Y-125240000D03*
X131850000Y-127780000D03*
X131850000Y-130320000D03*
X131850000Y-132860000D03*
X131850000Y-135400000D03*
X131850000Y-137940000D03*
%TD*%
D16*
%TO.C,J3*%
X174600000Y-90500000D03*
%TD*%
D10*
%TO.C,J35*%
X195450000Y-110000000D03*
D11*
X195450000Y-112540000D03*
X195450000Y-115080000D03*
X195450000Y-117620000D03*
X195450000Y-120160000D03*
X195450000Y-122700000D03*
X195450000Y-125240000D03*
X195450000Y-127780000D03*
X195450000Y-130320000D03*
X195450000Y-132860000D03*
X195450000Y-135400000D03*
X195450000Y-137940000D03*
%TD*%
D10*
%TO.C,J22*%
X140950000Y-80000000D03*
D11*
X140950000Y-77460000D03*
X140950000Y-74920000D03*
X140950000Y-72380000D03*
X140950000Y-69840000D03*
X140950000Y-67300000D03*
X140950000Y-64760000D03*
X140950000Y-62220000D03*
X140950000Y-59680000D03*
X140950000Y-57140000D03*
X140950000Y-54600000D03*
X140950000Y-52060000D03*
%TD*%
D10*
%TO.C,J26*%
X104550000Y-80000000D03*
D11*
X104550000Y-77460000D03*
X104550000Y-74920000D03*
X104550000Y-72380000D03*
X104550000Y-69840000D03*
X104550000Y-67300000D03*
X104550000Y-64760000D03*
X104550000Y-62220000D03*
X104550000Y-59680000D03*
X104550000Y-57140000D03*
X104550000Y-54600000D03*
X104550000Y-52060000D03*
%TD*%
D18*
%TO.C,PS2*%
X182940000Y-89750000D03*
D19*
X180400000Y-89750000D03*
X177860000Y-89750000D03*
%TD*%
D16*
%TO.C,J5*%
X165900000Y-86800000D03*
%TD*%
%TO.C,J4*%
X165900000Y-90500000D03*
%TD*%
D10*
%TO.C,J31*%
X159050000Y-110000000D03*
D11*
X159050000Y-112540000D03*
X159050000Y-115080000D03*
X159050000Y-117620000D03*
X159050000Y-120160000D03*
X159050000Y-122700000D03*
X159050000Y-125240000D03*
X159050000Y-127780000D03*
X159050000Y-130320000D03*
X159050000Y-132860000D03*
X159050000Y-135400000D03*
X159050000Y-137940000D03*
%TD*%
D10*
%TO.C,J21*%
X150000000Y-80000000D03*
D11*
X150000000Y-77460000D03*
X150000000Y-74920000D03*
X150000000Y-72380000D03*
X150000000Y-69840000D03*
X150000000Y-67300000D03*
X150000000Y-64760000D03*
X150000000Y-62220000D03*
X150000000Y-59680000D03*
X150000000Y-57140000D03*
X150000000Y-54600000D03*
X150000000Y-52060000D03*
%TD*%
D20*
%TO.C,C1*%
X192700000Y-88200000D03*
X194775000Y-88200000D03*
%TD*%
D10*
%TO.C,J32*%
X168150000Y-110000000D03*
D11*
X168150000Y-112540000D03*
X168150000Y-115080000D03*
X168150000Y-117620000D03*
X168150000Y-120160000D03*
X168150000Y-122700000D03*
X168150000Y-125240000D03*
X168150000Y-127780000D03*
X168150000Y-130320000D03*
X168150000Y-132860000D03*
X168150000Y-135400000D03*
X168150000Y-137940000D03*
%TD*%
D10*
%TO.C,J23*%
X131850000Y-80000000D03*
D11*
X131850000Y-77460000D03*
X131850000Y-74920000D03*
X131850000Y-72380000D03*
X131850000Y-69840000D03*
X131850000Y-67300000D03*
X131850000Y-64760000D03*
X131850000Y-62220000D03*
X131850000Y-59680000D03*
X131850000Y-57140000D03*
X131850000Y-54600000D03*
X131850000Y-52060000D03*
%TD*%
D16*
%TO.C,J8*%
X154800000Y-90500000D03*
%TD*%
D18*
%TO.C,PS1*%
X184910000Y-86601250D03*
D19*
X182370000Y-86601250D03*
X179830000Y-86601250D03*
X177290000Y-86601250D03*
%TD*%
D21*
%TO.C,C2*%
X189100000Y-86500000D03*
X189100000Y-90100000D03*
%TD*%
D10*
%TO.C,J1*%
X197900000Y-85620000D03*
D11*
X197900000Y-88160000D03*
X197900000Y-90700000D03*
%TD*%
D16*
%TO.C,J12*%
X150000000Y-88800000D03*
%TD*%
D10*
%TO.C,J18*%
X177250000Y-80000000D03*
D11*
X177250000Y-77460000D03*
X177250000Y-74920000D03*
X177250000Y-72380000D03*
X177250000Y-69840000D03*
X177250000Y-67300000D03*
X177250000Y-64760000D03*
X177250000Y-62220000D03*
X177250000Y-59680000D03*
X177250000Y-57140000D03*
X177250000Y-54600000D03*
X177250000Y-52060000D03*
%TD*%
D10*
%TO.C,J17*%
X186350000Y-80000000D03*
D11*
X186350000Y-77460000D03*
X186350000Y-74920000D03*
X186350000Y-72380000D03*
X186350000Y-69840000D03*
X186350000Y-67300000D03*
X186350000Y-64760000D03*
X186350000Y-62220000D03*
X186350000Y-59680000D03*
X186350000Y-57140000D03*
X186350000Y-54600000D03*
X186350000Y-52060000D03*
%TD*%
D16*
%TO.C,J13*%
X150000000Y-102500000D03*
%TD*%
D10*
%TO.C,J29*%
X140950000Y-110000000D03*
D11*
X140950000Y-112540000D03*
X140950000Y-115080000D03*
X140950000Y-117620000D03*
X140950000Y-120160000D03*
X140950000Y-122700000D03*
X140950000Y-125240000D03*
X140950000Y-127780000D03*
X140950000Y-130320000D03*
X140950000Y-132860000D03*
X140950000Y-135400000D03*
X140950000Y-137940000D03*
%TD*%
D16*
%TO.C,J11*%
X152300000Y-86700000D03*
%TD*%
%TO.C,J6*%
X157100000Y-88800000D03*
%TD*%
D10*
%TO.C,J15*%
X113650000Y-110000000D03*
D11*
X113650000Y-112540000D03*
X113650000Y-115080000D03*
X113650000Y-117620000D03*
X113650000Y-120160000D03*
X113650000Y-122700000D03*
X113650000Y-125240000D03*
X113650000Y-127780000D03*
X113650000Y-130320000D03*
X113650000Y-132860000D03*
X113650000Y-135400000D03*
X113650000Y-137940000D03*
%TD*%
D10*
%TO.C,J33*%
X177250000Y-110000000D03*
D11*
X177250000Y-112540000D03*
X177250000Y-115080000D03*
X177250000Y-117620000D03*
X177250000Y-120160000D03*
X177250000Y-122700000D03*
X177250000Y-125240000D03*
X177250000Y-127780000D03*
X177250000Y-130320000D03*
X177250000Y-132860000D03*
X177250000Y-135400000D03*
X177250000Y-137940000D03*
%TD*%
D10*
%TO.C,J16*%
X195450000Y-80000000D03*
D11*
X195450000Y-77460000D03*
X195450000Y-74920000D03*
X195450000Y-72380000D03*
X195450000Y-69840000D03*
X195450000Y-67300000D03*
X195450000Y-64760000D03*
X195450000Y-62220000D03*
X195450000Y-59680000D03*
X195450000Y-57140000D03*
X195450000Y-54600000D03*
X195450000Y-52060000D03*
%TD*%
D16*
%TO.C,J10*%
X152300000Y-88800000D03*
%TD*%
D10*
%TO.C,J24*%
X122750000Y-80000000D03*
D11*
X122750000Y-77460000D03*
X122750000Y-74920000D03*
X122750000Y-72380000D03*
X122750000Y-69840000D03*
X122750000Y-67300000D03*
X122750000Y-64760000D03*
X122750000Y-62220000D03*
X122750000Y-59680000D03*
X122750000Y-57140000D03*
X122750000Y-54600000D03*
X122750000Y-52060000D03*
%TD*%
M02*
