M48
; DRILL file {KiCad 9.0.7} date 2026-08-17T12:01:35+0300
; FORMAT={-:-/ absolute / metric / decimal}
; #@! TF.CreationDate,2026-08-17T12:01:35+03:00
; #@! TF.GenerationSoftware,Kicad,Pcbnew,9.0.7
; #@! TF.FileFunction,Plated,1,2,PTH
FMAT,2
METRIC
; #@! TA.AperFunction,Plated,PTH,ViaDrill
T1C0.300
; #@! TA.AperFunction,Plated,PTH,ComponentDrill
T2C0.500
; #@! TA.AperFunction,Plated,PTH,ComponentDrill
T3C0.952
; #@! TA.AperFunction,Plated,PTH,ComponentDrill
T4C1.000
%
G90
G05
T1
X190.8Y-85.6
T2
X150.0Y-88.8
X150.0Y-102.5
X152.3Y-86.7
X152.3Y-88.8
X154.8Y-85.5
X154.8Y-90.5
X157.1Y-88.8
X157.4Y-105.5
X165.9Y-86.8
X165.9Y-90.5
X174.6Y-84.2
X174.6Y-90.5
T3
X177.29Y-86.601
X177.86Y-89.75
X179.83Y-86.601
X180.4Y-89.75
X182.37Y-86.601
X182.94Y-89.75
X184.91Y-86.601
T4
X104.55Y-52.06
X104.55Y-54.6
X104.55Y-57.14
X104.55Y-59.68
X104.55Y-62.22
X104.55Y-64.76
X104.55Y-67.3
X104.55Y-69.84
X104.55Y-72.38
X104.55Y-74.92
X104.55Y-77.46
X104.55Y-80.0
X104.55Y-110.0
X104.55Y-112.54
X104.55Y-115.08
X104.55Y-117.62
X104.55Y-120.16
X104.55Y-122.7
X104.55Y-125.24
X104.55Y-127.78
X104.55Y-130.32
X104.55Y-132.86
X104.55Y-135.4
X104.55Y-137.94
X108.98Y-88.0
X108.98Y-103.24
X111.52Y-88.0
X111.52Y-103.24
X113.65Y-52.06
X113.65Y-54.6
X113.65Y-57.14
X113.65Y-59.68
X113.65Y-62.22
X113.65Y-64.76
X113.65Y-67.3
X113.65Y-69.84
X113.65Y-72.38
X113.65Y-74.92
X113.65Y-77.46
X113.65Y-80.0
X113.65Y-110.0
X113.65Y-112.54
X113.65Y-115.08
X113.65Y-117.62
X113.65Y-120.16
X113.65Y-122.7
X113.65Y-125.24
X113.65Y-127.78
X113.65Y-130.32
X113.65Y-132.86
X113.65Y-135.4
X113.65Y-137.94
X114.06Y-88.0
X114.06Y-103.24
X116.6Y-88.0
X116.6Y-103.24
X119.14Y-88.0
X119.14Y-103.24
X121.68Y-88.0
X121.68Y-103.24
X122.75Y-52.06
X122.75Y-54.6
X122.75Y-57.14
X122.75Y-59.68
X122.75Y-62.22
X122.75Y-64.76
X122.75Y-67.3
X122.75Y-69.84
X122.75Y-72.38
X122.75Y-74.92
X122.75Y-77.46
X122.75Y-80.0
X122.75Y-110.0
X122.75Y-112.54
X122.75Y-115.08
X122.75Y-117.62
X122.75Y-120.16
X122.75Y-122.7
X122.75Y-125.24
X122.75Y-127.78
X122.75Y-130.32
X122.75Y-132.86
X122.75Y-135.4
X122.75Y-137.94
X124.22Y-88.0
X124.22Y-103.24
X126.76Y-88.0
X126.76Y-103.24
X129.3Y-88.0
X129.3Y-103.24
X131.84Y-88.0
X131.84Y-103.24
X131.85Y-52.06
X131.85Y-54.6
X131.85Y-57.14
X131.85Y-59.68
X131.85Y-62.22
X131.85Y-64.76
X131.85Y-67.3
X131.85Y-69.84
X131.85Y-72.38
X131.85Y-74.92
X131.85Y-77.46
X131.85Y-80.0
X131.85Y-110.0
X131.85Y-112.54
X131.85Y-115.08
X131.85Y-117.62
X131.85Y-120.16
X131.85Y-122.7
X131.85Y-125.24
X131.85Y-127.78
X131.85Y-130.32
X131.85Y-132.86
X131.85Y-135.4
X131.85Y-137.94
X134.38Y-88.0
X134.38Y-103.24
X136.92Y-88.0
X136.92Y-103.24
X139.46Y-88.0
X139.46Y-103.24
X140.95Y-52.06
X140.95Y-54.6
X140.95Y-57.14
X140.95Y-59.68
X140.95Y-62.22
X140.95Y-64.76
X140.95Y-67.3
X140.95Y-69.84
X140.95Y-72.38
X140.95Y-74.92
X140.95Y-77.46
X140.95Y-80.0
X140.95Y-110.0
X140.95Y-112.54
X140.95Y-115.08
X140.95Y-117.62
X140.95Y-120.16
X140.95Y-122.7
X140.95Y-125.24
X140.95Y-127.78
X140.95Y-130.32
X140.95Y-132.86
X140.95Y-135.4
X140.95Y-137.94
X142.0Y-88.0
X142.0Y-103.24
X144.54Y-88.0
X144.54Y-103.24
X150.0Y-52.06
X150.0Y-54.6
X150.0Y-57.14
X150.0Y-59.68
X150.0Y-62.22
X150.0Y-64.76
X150.0Y-67.3
X150.0Y-69.84
X150.0Y-72.38
X150.0Y-74.92
X150.0Y-77.46
X150.0Y-80.0
X150.0Y-110.0
X150.0Y-112.54
X150.0Y-115.08
X150.0Y-117.62
X150.0Y-120.16
X150.0Y-122.7
X150.0Y-125.24
X150.0Y-127.78
X150.0Y-130.32
X150.0Y-132.86
X150.0Y-135.4
X150.0Y-137.94
X159.05Y-52.06
X159.05Y-54.6
X159.05Y-57.14
X159.05Y-59.68
X159.05Y-62.22
X159.05Y-64.76
X159.05Y-67.3
X159.05Y-69.84
X159.05Y-72.38
X159.05Y-74.92
X159.05Y-77.46
X159.05Y-80.0
X159.05Y-110.0
X159.05Y-112.54
X159.05Y-115.08
X159.05Y-117.62
X159.05Y-120.16
X159.05Y-122.7
X159.05Y-125.24
X159.05Y-127.78
X159.05Y-130.32
X159.05Y-132.86
X159.05Y-135.4
X159.05Y-137.94
X168.15Y-52.06
X168.15Y-54.6
X168.15Y-57.14
X168.15Y-59.68
X168.15Y-62.22
X168.15Y-64.76
X168.15Y-67.3
X168.15Y-69.84
X168.15Y-72.38
X168.15Y-74.92
X168.15Y-77.46
X168.15Y-80.0
X168.15Y-110.0
X168.15Y-112.54
X168.15Y-115.08
X168.15Y-117.62
X168.15Y-120.16
X168.15Y-122.7
X168.15Y-125.24
X168.15Y-127.78
X168.15Y-130.32
X168.15Y-132.86
X168.15Y-135.4
X168.15Y-137.94
X177.25Y-52.06
X177.25Y-54.6
X177.25Y-57.14
X177.25Y-59.68
X177.25Y-62.22
X177.25Y-64.76
X177.25Y-67.3
X177.25Y-69.84
X177.25Y-72.38
X177.25Y-74.92
X177.25Y-77.46
X177.25Y-80.0
X177.25Y-110.0
X177.25Y-112.54
X177.25Y-115.08
X177.25Y-117.62
X177.25Y-120.16
X177.25Y-122.7
X177.25Y-125.24
X177.25Y-127.78
X177.25Y-130.32
X177.25Y-132.86
X177.25Y-135.4
X177.25Y-137.94
X186.35Y-52.06
X186.35Y-54.6
X186.35Y-57.14
X186.35Y-59.68
X186.35Y-62.22
X186.35Y-64.76
X186.35Y-67.3
X186.35Y-69.84
X186.35Y-72.38
X186.35Y-74.92
X186.35Y-77.46
X186.35Y-80.0
X186.35Y-110.0
X186.35Y-112.54
X186.35Y-115.08
X186.35Y-117.62
X186.35Y-120.16
X186.35Y-122.7
X186.35Y-125.24
X186.35Y-127.78
X186.35Y-130.32
X186.35Y-132.86
X186.35Y-135.4
X186.35Y-137.94
X195.45Y-52.06
X195.45Y-54.6
X195.45Y-57.14
X195.45Y-59.68
X195.45Y-62.22
X195.45Y-64.76
X195.45Y-67.3
X195.45Y-69.84
X195.45Y-72.38
X195.45Y-74.92
X195.45Y-77.46
X195.45Y-80.0
X195.45Y-110.0
X195.45Y-112.54
X195.45Y-115.08
X195.45Y-117.62
X195.45Y-120.16
X195.45Y-122.7
X195.45Y-125.24
X195.45Y-127.78
X195.45Y-130.32
X195.45Y-132.86
X195.45Y-135.4
X195.45Y-137.94
X197.9Y-85.62
X197.9Y-88.16
X197.9Y-90.7
M30
