ISO-10303-21;
HEADER;
FILE_DESCRIPTION(('FreeCAD Model'),'2;1');
FILE_NAME('Open CASCADE Shape Model','2026-09-04T15:51:57',('Author'),(
    ''),'Open CASCADE STEP processor 7.8','FreeCAD','Unknown');
FILE_SCHEMA(('AUTOMOTIVE_DESIGN { 1 0 10303 214 1 1 1 1 }'));
ENDSEC;
DATA;
#1 = APPLICATION_PROTOCOL_DEFINITION('international standard',
  'automotive_design',2000,#2);
#2 = APPLICATION_CONTEXT(
  'core data for automotive mechanical design processes');
#3 = SHAPE_DEFINITION_REPRESENTATION(#4,#10);
#4 = PRODUCT_DEFINITION_SHAPE('','',#5);
#5 = PRODUCT_DEFINITION('design','',#6,#9);
#6 = PRODUCT_DEFINITION_FORMATION('','',#7);
#7 = PRODUCT('Body','Body','',(#8));
#8 = PRODUCT_CONTEXT('',#2,'mechanical');
#9 = PRODUCT_DEFINITION_CONTEXT('part definition',#2,'design');
#10 = ADVANCED_BREP_SHAPE_REPRESENTATION('',(#11,#15),#459);
#11 = AXIS2_PLACEMENT_3D('',#12,#13,#14);
#12 = CARTESIAN_POINT('',(0.,0.,0.));
#13 = DIRECTION('',(0.,0.,1.));
#14 = DIRECTION('',(1.,0.,-0.));
#15 = MANIFOLD_SOLID_BREP('',#16);
#16 = CLOSED_SHELL('',(#17,#89,#175,#199,#223,#247,#271,#288,#305,#329,
    #353,#377,#401,#418,#435,#447));
#17 = ADVANCED_FACE('',(#18),#84,.F.);
#18 = FACE_BOUND('',#19,.F.);
#19 = EDGE_LOOP('',(#20,#30,#38,#46,#54,#62,#70,#78));
#20 = ORIENTED_EDGE('',*,*,#21,.T.);
#21 = EDGE_CURVE('',#22,#24,#26,.T.);
#22 = VERTEX_POINT('',#23);
#23 = CARTESIAN_POINT('',(0.25746,-0.219825,5.));
#24 = VERTEX_POINT('',#25);
#25 = CARTESIAN_POINT('',(0.27,-0.219825,5.));
#26 = LINE('',#27,#28);
#27 = CARTESIAN_POINT('',(-0.75,-0.219825,5.));
#28 = VECTOR('',#29,1.);
#29 = DIRECTION('',(1.,1.850371707709E-17,0.));
#30 = ORIENTED_EDGE('',*,*,#31,.T.);
#31 = EDGE_CURVE('',#24,#32,#34,.T.);
#32 = VERTEX_POINT('',#33);
#33 = CARTESIAN_POINT('',(0.27,0.300175,5.));
#34 = LINE('',#35,#36);
#35 = CARTESIAN_POINT('',(0.27,-0.219825,5.));
#36 = VECTOR('',#37,1.);
#37 = DIRECTION('',(0.,1.,0.));
#38 = ORIENTED_EDGE('',*,*,#39,.T.);
#39 = EDGE_CURVE('',#32,#40,#42,.T.);
#40 = VERTEX_POINT('',#41);
#41 = CARTESIAN_POINT('',(-0.27,0.300175,5.));
#42 = LINE('',#43,#44);
#43 = CARTESIAN_POINT('',(0.75,0.300175,5.));
#44 = VECTOR('',#45,1.);
#45 = DIRECTION('',(-1.,0.,0.));
#46 = ORIENTED_EDGE('',*,*,#47,.T.);
#47 = EDGE_CURVE('',#40,#48,#50,.T.);
#48 = VERTEX_POINT('',#49);
#49 = CARTESIAN_POINT('',(-0.27,-0.219825,5.));
#50 = LINE('',#51,#52);
#51 = CARTESIAN_POINT('',(-0.27,0.780175,5.));
#52 = VECTOR('',#53,1.);
#53 = DIRECTION('',(0.,-1.,0.));
#54 = ORIENTED_EDGE('',*,*,#55,.T.);
#55 = EDGE_CURVE('',#48,#56,#58,.T.);
#56 = VERTEX_POINT('',#57);
#57 = CARTESIAN_POINT('',(-0.24254,-0.219825,5.));
#58 = LINE('',#59,#60);
#59 = CARTESIAN_POINT('',(-0.75,-0.219825,5.));
#60 = VECTOR('',#61,1.);
#61 = DIRECTION('',(1.,1.850371707709E-17,0.));
#62 = ORIENTED_EDGE('',*,*,#63,.F.);
#63 = EDGE_CURVE('',#64,#56,#66,.T.);
#64 = VERTEX_POINT('',#65);
#65 = CARTESIAN_POINT('',(-0.24254,0.280175,5.));
#66 = LINE('',#67,#68);
#67 = CARTESIAN_POINT('',(-0.24254,0.280175,5.));
#68 = VECTOR('',#69,1.);
#69 = DIRECTION('',(0.,-1.,0.));
#70 = ORIENTED_EDGE('',*,*,#71,.F.);
#71 = EDGE_CURVE('',#72,#64,#74,.T.);
#72 = VERTEX_POINT('',#73);
#73 = CARTESIAN_POINT('',(0.25746,0.280175,5.));
#74 = LINE('',#75,#76);
#75 = CARTESIAN_POINT('',(0.25746,0.280175,5.));
#76 = VECTOR('',#77,1.);
#77 = DIRECTION('',(-1.,0.,0.));
#78 = ORIENTED_EDGE('',*,*,#79,.F.);
#79 = EDGE_CURVE('',#22,#72,#80,.T.);
#80 = LINE('',#81,#82);
#81 = CARTESIAN_POINT('',(0.25746,-0.219825,5.));
#82 = VECTOR('',#83,1.);
#83 = DIRECTION('',(0.,1.,0.));
#84 = PLANE('',#85);
#85 = AXIS2_PLACEMENT_3D('',#86,#87,#88);
#86 = CARTESIAN_POINT('',(0.,0.280175,5.));
#87 = DIRECTION('',(0.,0.,1.));
#88 = DIRECTION('',(1.,0.,0.));
#89 = ADVANCED_FACE('',(#90),#170,.T.);
#90 = FACE_BOUND('',#91,.T.);
#91 = EDGE_LOOP('',(#92,#93,#101,#109,#117,#125,#131,#132,#140,#148,#156
    ,#164));
#92 = ORIENTED_EDGE('',*,*,#21,.T.);
#93 = ORIENTED_EDGE('',*,*,#94,.T.);
#94 = EDGE_CURVE('',#24,#95,#97,.T.);
#95 = VERTEX_POINT('',#96);
#96 = CARTESIAN_POINT('',(0.75,-0.219825,5.48));
#97 = LINE('',#98,#99);
#98 = CARTESIAN_POINT('',(-0.124387772287,-0.219825,4.605612227713));
#99 = VECTOR('',#100,1.);
#100 = DIRECTION('',(0.707106781187,0.,0.707106781187));
#101 = ORIENTED_EDGE('',*,*,#102,.T.);
#102 = EDGE_CURVE('',#95,#103,#105,.T.);
#103 = VERTEX_POINT('',#104);
#104 = CARTESIAN_POINT('',(0.75,-0.219825,5.55));
#105 = LINE('',#106,#107);
#106 = CARTESIAN_POINT('',(0.75,-0.219825,5.));
#107 = VECTOR('',#108,1.);
#108 = DIRECTION('',(0.,0.,1.));
#109 = ORIENTED_EDGE('',*,*,#110,.F.);
#110 = EDGE_CURVE('',#111,#103,#113,.T.);
#111 = VERTEX_POINT('',#112);
#112 = CARTESIAN_POINT('',(-0.75,-0.219825,5.55));
#113 = LINE('',#114,#115);
#114 = CARTESIAN_POINT('',(-0.75,-0.219825,5.55));
#115 = VECTOR('',#116,1.);
#116 = DIRECTION('',(1.,1.850371707709E-17,0.));
#117 = ORIENTED_EDGE('',*,*,#118,.F.);
#118 = EDGE_CURVE('',#119,#111,#121,.T.);
#119 = VERTEX_POINT('',#120);
#120 = CARTESIAN_POINT('',(-0.75,-0.219825,5.48));
#121 = LINE('',#122,#123);
#122 = CARTESIAN_POINT('',(-0.75,-0.219825,5.));
#123 = VECTOR('',#124,1.);
#124 = DIRECTION('',(0.,0.,1.));
#125 = ORIENTED_EDGE('',*,*,#126,.F.);
#126 = EDGE_CURVE('',#48,#119,#127,.T.);
#127 = LINE('',#128,#129);
#128 = CARTESIAN_POINT('',(0.127006758933,-0.219825,4.602993241067));
#129 = VECTOR('',#130,1.);
#130 = DIRECTION('',(-0.707106781187,0.,0.707106781187));
#131 = ORIENTED_EDGE('',*,*,#55,.T.);
#132 = ORIENTED_EDGE('',*,*,#133,.F.);
#133 = EDGE_CURVE('',#134,#56,#136,.T.);
#134 = VERTEX_POINT('',#135);
#135 = CARTESIAN_POINT('',(-0.24254,-0.219825,0.6));
#136 = LINE('',#137,#138);
#137 = CARTESIAN_POINT('',(-0.24254,-0.219825,0.));
#138 = VECTOR('',#139,1.);
#139 = DIRECTION('',(0.,0.,1.));
#140 = ORIENTED_EDGE('',*,*,#141,.T.);
#141 = EDGE_CURVE('',#134,#142,#144,.T.);
#142 = VERTEX_POINT('',#143);
#143 = CARTESIAN_POINT('',(-4.254E-02,-0.219825,-5.551115123126E-17));
#144 = LINE('',#145,#146);
#145 = CARTESIAN_POINT('',(-0.10254,-0.219825,0.18));
#146 = VECTOR('',#147,1.);
#147 = DIRECTION('',(0.316227766017,0.,-0.948683298051));
#148 = ORIENTED_EDGE('',*,*,#149,.T.);
#149 = EDGE_CURVE('',#142,#150,#152,.T.);
#150 = VERTEX_POINT('',#151);
#151 = CARTESIAN_POINT('',(5.746E-02,-0.219825,-5.551115123126E-17));
#152 = LINE('',#153,#154);
#153 = CARTESIAN_POINT('',(-0.24254,-0.219825,0.));
#154 = VECTOR('',#155,1.);
#155 = DIRECTION('',(1.,0.,0.));
#156 = ORIENTED_EDGE('',*,*,#157,.F.);
#157 = EDGE_CURVE('',#158,#150,#160,.T.);
#158 = VERTEX_POINT('',#159);
#159 = CARTESIAN_POINT('',(0.25746,-0.219825,0.6));
#160 = LINE('',#161,#162);
#161 = CARTESIAN_POINT('',(9.246E-02,-0.219825,0.105));
#162 = VECTOR('',#163,1.);
#163 = DIRECTION('',(-0.316227766017,0.,-0.948683298051));
#164 = ORIENTED_EDGE('',*,*,#165,.T.);
#165 = EDGE_CURVE('',#158,#22,#166,.T.);
#166 = LINE('',#167,#168);
#167 = CARTESIAN_POINT('',(0.25746,-0.219825,0.));
#168 = VECTOR('',#169,1.);
#169 = DIRECTION('',(0.,0.,1.));
#170 = PLANE('',#171);
#171 = AXIS2_PLACEMENT_3D('',#172,#173,#174);
#172 = CARTESIAN_POINT('',(5.237973293279E-03,-0.219825,3.20721093756));
#173 = DIRECTION('',(-0.,-1.,-0.));
#174 = DIRECTION('',(0.,0.,-1.));
#175 = ADVANCED_FACE('',(#176),#194,.T.);
#176 = FACE_BOUND('',#177,.T.);
#177 = EDGE_LOOP('',(#178,#179,#180,#188));
#178 = ORIENTED_EDGE('',*,*,#94,.F.);
#179 = ORIENTED_EDGE('',*,*,#31,.T.);
#180 = ORIENTED_EDGE('',*,*,#181,.T.);
#181 = EDGE_CURVE('',#32,#182,#184,.T.);
#182 = VERTEX_POINT('',#183);
#183 = CARTESIAN_POINT('',(0.75,0.780175,5.48));
#184 = LINE('',#185,#186);
#185 = CARTESIAN_POINT('',(0.423333333333,0.453508333333,5.153333333333)
  );
#186 = VECTOR('',#187,1.);
#187 = DIRECTION('',(0.57735026919,0.57735026919,0.57735026919));
#188 = ORIENTED_EDGE('',*,*,#189,.F.);
#189 = EDGE_CURVE('',#95,#182,#190,.T.);
#190 = LINE('',#191,#192);
#191 = CARTESIAN_POINT('',(0.75,-0.219825,5.48));
#192 = VECTOR('',#193,1.);
#193 = DIRECTION('',(0.,1.,0.));
#194 = PLANE('',#195);
#195 = AXIS2_PLACEMENT_3D('',#196,#197,#198);
#196 = CARTESIAN_POINT('',(0.51,-0.219825,5.24));
#197 = DIRECTION('',(0.707106781187,6.954862740506E-18,-0.707106781187)
  );
#198 = DIRECTION('',(-4.917830606033E-18,1.,4.917830606033E-18));
#199 = ADVANCED_FACE('',(#200),#218,.F.);
#200 = FACE_BOUND('',#201,.F.);
#201 = EDGE_LOOP('',(#202,#203,#204,#212));
#202 = ORIENTED_EDGE('',*,*,#165,.T.);
#203 = ORIENTED_EDGE('',*,*,#79,.T.);
#204 = ORIENTED_EDGE('',*,*,#205,.F.);
#205 = EDGE_CURVE('',#206,#72,#208,.T.);
#206 = VERTEX_POINT('',#207);
#207 = CARTESIAN_POINT('',(0.25746,0.280175,0.6));
#208 = LINE('',#209,#210);
#209 = CARTESIAN_POINT('',(0.25746,0.280175,0.));
#210 = VECTOR('',#211,1.);
#211 = DIRECTION('',(0.,0.,1.));
#212 = ORIENTED_EDGE('',*,*,#213,.F.);
#213 = EDGE_CURVE('',#158,#206,#214,.T.);
#214 = LINE('',#215,#216);
#215 = CARTESIAN_POINT('',(0.25746,-0.219825,0.6));
#216 = VECTOR('',#217,1.);
#217 = DIRECTION('',(0.,1.,0.));
#218 = PLANE('',#219);
#219 = AXIS2_PLACEMENT_3D('',#220,#221,#222);
#220 = CARTESIAN_POINT('',(0.25746,-0.219825,0.));
#221 = DIRECTION('',(-1.,0.,0.));
#222 = DIRECTION('',(0.,1.,0.));
#223 = ADVANCED_FACE('',(#224),#242,.T.);
#224 = FACE_BOUND('',#225,.T.);
#225 = EDGE_LOOP('',(#226,#227,#228,#236));
#226 = ORIENTED_EDGE('',*,*,#181,.F.);
#227 = ORIENTED_EDGE('',*,*,#39,.T.);
#228 = ORIENTED_EDGE('',*,*,#229,.T.);
#229 = EDGE_CURVE('',#40,#230,#232,.T.);
#230 = VERTEX_POINT('',#231);
#231 = CARTESIAN_POINT('',(-0.75,0.780175,5.48));
#232 = LINE('',#233,#234);
#233 = CARTESIAN_POINT('',(-0.34,0.370175,5.07));
#234 = VECTOR('',#235,1.);
#235 = DIRECTION('',(-0.57735026919,0.57735026919,0.57735026919));
#236 = ORIENTED_EDGE('',*,*,#237,.F.);
#237 = EDGE_CURVE('',#182,#230,#238,.T.);
#238 = LINE('',#239,#240);
#239 = CARTESIAN_POINT('',(0.75,0.780175,5.48));
#240 = VECTOR('',#241,1.);
#241 = DIRECTION('',(-1.,0.,0.));
#242 = PLANE('',#243);
#243 = AXIS2_PLACEMENT_3D('',#244,#245,#246);
#244 = CARTESIAN_POINT('',(0.75,0.540175,5.24));
#245 = DIRECTION('',(-6.954862740506E-18,0.707106781187,-0.707106781187)
  );
#246 = DIRECTION('',(-1.,-4.917830606033E-18,4.917830606033E-18));
#247 = ADVANCED_FACE('',(#248),#266,.F.);
#248 = FACE_BOUND('',#249,.F.);
#249 = EDGE_LOOP('',(#250,#258,#259,#260));
#250 = ORIENTED_EDGE('',*,*,#251,.F.);
#251 = EDGE_CURVE('',#206,#252,#254,.T.);
#252 = VERTEX_POINT('',#253);
#253 = CARTESIAN_POINT('',(-0.24254,0.280175,0.6));
#254 = LINE('',#255,#256);
#255 = CARTESIAN_POINT('',(5.746E-02,0.280175,0.6));
#256 = VECTOR('',#257,1.);
#257 = DIRECTION('',(-1.,0.,0.));
#258 = ORIENTED_EDGE('',*,*,#205,.T.);
#259 = ORIENTED_EDGE('',*,*,#71,.T.);
#260 = ORIENTED_EDGE('',*,*,#261,.F.);
#261 = EDGE_CURVE('',#252,#64,#262,.T.);
#262 = LINE('',#263,#264);
#263 = CARTESIAN_POINT('',(-0.24254,0.280175,0.));
#264 = VECTOR('',#265,1.);
#265 = DIRECTION('',(0.,0.,1.));
#266 = PLANE('',#267);
#267 = AXIS2_PLACEMENT_3D('',#268,#269,#270);
#268 = CARTESIAN_POINT('',(0.25746,0.280175,0.));
#269 = DIRECTION('',(0.,-1.,0.));
#270 = DIRECTION('',(-1.,0.,0.));
#271 = ADVANCED_FACE('',(#272),#283,.T.);
#272 = FACE_BOUND('',#273,.T.);
#273 = EDGE_LOOP('',(#274,#275,#276,#277));
#274 = ORIENTED_EDGE('',*,*,#229,.F.);
#275 = ORIENTED_EDGE('',*,*,#47,.T.);
#276 = ORIENTED_EDGE('',*,*,#126,.T.);
#277 = ORIENTED_EDGE('',*,*,#278,.F.);
#278 = EDGE_CURVE('',#230,#119,#279,.T.);
#279 = LINE('',#280,#281);
#280 = CARTESIAN_POINT('',(-0.75,0.780175,5.48));
#281 = VECTOR('',#282,1.);
#282 = DIRECTION('',(0.,-1.,0.));
#283 = PLANE('',#284);
#284 = AXIS2_PLACEMENT_3D('',#285,#286,#287);
#285 = CARTESIAN_POINT('',(-0.51,0.780175,5.24));
#286 = DIRECTION('',(-0.707106781187,-6.954862740506E-18,-0.707106781187
    ));
#287 = DIRECTION('',(4.917830606033E-18,-1.,4.917830606033E-18));
#288 = ADVANCED_FACE('',(#289),#300,.F.);
#289 = FACE_BOUND('',#290,.F.);
#290 = EDGE_LOOP('',(#291,#292,#293,#294));
#291 = ORIENTED_EDGE('',*,*,#261,.T.);
#292 = ORIENTED_EDGE('',*,*,#63,.T.);
#293 = ORIENTED_EDGE('',*,*,#133,.F.);
#294 = ORIENTED_EDGE('',*,*,#295,.F.);
#295 = EDGE_CURVE('',#252,#134,#296,.T.);
#296 = LINE('',#297,#298);
#297 = CARTESIAN_POINT('',(-0.24254,0.280175,0.6));
#298 = VECTOR('',#299,1.);
#299 = DIRECTION('',(0.,-1.,0.));
#300 = PLANE('',#301);
#301 = AXIS2_PLACEMENT_3D('',#302,#303,#304);
#302 = CARTESIAN_POINT('',(-0.24254,0.280175,0.));
#303 = DIRECTION('',(1.,0.,0.));
#304 = DIRECTION('',(0.,-1.,0.));
#305 = ADVANCED_FACE('',(#306),#324,.F.);
#306 = FACE_BOUND('',#307,.F.);
#307 = EDGE_LOOP('',(#308,#309,#317,#323));
#308 = ORIENTED_EDGE('',*,*,#102,.T.);
#309 = ORIENTED_EDGE('',*,*,#310,.T.);
#310 = EDGE_CURVE('',#103,#311,#313,.T.);
#311 = VERTEX_POINT('',#312);
#312 = CARTESIAN_POINT('',(0.75,0.780175,5.55));
#313 = LINE('',#314,#315);
#314 = CARTESIAN_POINT('',(0.75,-0.219825,5.55));
#315 = VECTOR('',#316,1.);
#316 = DIRECTION('',(0.,1.,0.));
#317 = ORIENTED_EDGE('',*,*,#318,.F.);
#318 = EDGE_CURVE('',#182,#311,#319,.T.);
#319 = LINE('',#320,#321);
#320 = CARTESIAN_POINT('',(0.75,0.780175,5.));
#321 = VECTOR('',#322,1.);
#322 = DIRECTION('',(0.,0.,1.));
#323 = ORIENTED_EDGE('',*,*,#189,.F.);
#324 = PLANE('',#325);
#325 = AXIS2_PLACEMENT_3D('',#326,#327,#328);
#326 = CARTESIAN_POINT('',(0.75,-0.219825,5.));
#327 = DIRECTION('',(-1.,0.,0.));
#328 = DIRECTION('',(0.,1.,0.));
#329 = ADVANCED_FACE('',(#330),#348,.T.);
#330 = FACE_BOUND('',#331,.F.);
#331 = EDGE_LOOP('',(#332,#340,#341,#342));
#332 = ORIENTED_EDGE('',*,*,#333,.F.);
#333 = EDGE_CURVE('',#150,#334,#336,.T.);
#334 = VERTEX_POINT('',#335);
#335 = CARTESIAN_POINT('',(5.746E-02,-0.119825,-5.551115123126E-17));
#336 = LINE('',#337,#338);
#337 = CARTESIAN_POINT('',(5.746E-02,-0.219825,0.));
#338 = VECTOR('',#339,1.);
#339 = DIRECTION('',(0.,1.,0.));
#340 = ORIENTED_EDGE('',*,*,#157,.F.);
#341 = ORIENTED_EDGE('',*,*,#213,.T.);
#342 = ORIENTED_EDGE('',*,*,#343,.F.);
#343 = EDGE_CURVE('',#334,#206,#344,.T.);
#344 = LINE('',#345,#346);
#345 = CARTESIAN_POINT('',(0.13246,3.0175E-02,0.225));
#346 = VECTOR('',#347,1.);
#347 = DIRECTION('',(0.267261241912,0.534522483825,0.801783725737));
#348 = PLANE('',#349);
#349 = AXIS2_PLACEMENT_3D('',#350,#351,#352);
#350 = CARTESIAN_POINT('',(0.15746,-0.219825,0.3));
#351 = DIRECTION('',(0.948683298051,3.476378920807E-18,-0.316227766017)
  );
#352 = DIRECTION('',(3.297982619864E-18,-1.,-1.099327539955E-18));
#353 = ADVANCED_FACE('',(#354),#372,.T.);
#354 = FACE_BOUND('',#355,.T.);
#355 = EDGE_LOOP('',(#356,#357,#358,#366));
#356 = ORIENTED_EDGE('',*,*,#110,.T.);
#357 = ORIENTED_EDGE('',*,*,#310,.T.);
#358 = ORIENTED_EDGE('',*,*,#359,.T.);
#359 = EDGE_CURVE('',#311,#360,#362,.T.);
#360 = VERTEX_POINT('',#361);
#361 = CARTESIAN_POINT('',(-0.75,0.780175,5.55));
#362 = LINE('',#363,#364);
#363 = CARTESIAN_POINT('',(0.75,0.780175,5.55));
#364 = VECTOR('',#365,1.);
#365 = DIRECTION('',(-1.,0.,0.));
#366 = ORIENTED_EDGE('',*,*,#367,.T.);
#367 = EDGE_CURVE('',#360,#111,#368,.T.);
#368 = LINE('',#369,#370);
#369 = CARTESIAN_POINT('',(-0.75,0.780175,5.55));
#370 = VECTOR('',#371,1.);
#371 = DIRECTION('',(0.,-1.,0.));
#372 = PLANE('',#373);
#373 = AXIS2_PLACEMENT_3D('',#374,#375,#376);
#374 = CARTESIAN_POINT('',(0.,0.280175,5.55));
#375 = DIRECTION('',(0.,0.,1.));
#376 = DIRECTION('',(1.,0.,0.));
#377 = ADVANCED_FACE('',(#378),#396,.F.);
#378 = FACE_BOUND('',#379,.F.);
#379 = EDGE_LOOP('',(#380,#388,#389,#390));
#380 = ORIENTED_EDGE('',*,*,#381,.T.);
#381 = EDGE_CURVE('',#382,#142,#384,.T.);
#382 = VERTEX_POINT('',#383);
#383 = CARTESIAN_POINT('',(-4.254E-02,-0.119825,-5.551115123126E-17));
#384 = LINE('',#385,#386);
#385 = CARTESIAN_POINT('',(-4.254E-02,0.280175,0.));
#386 = VECTOR('',#387,1.);
#387 = DIRECTION('',(0.,-1.,0.));
#388 = ORIENTED_EDGE('',*,*,#149,.T.);
#389 = ORIENTED_EDGE('',*,*,#333,.T.);
#390 = ORIENTED_EDGE('',*,*,#391,.T.);
#391 = EDGE_CURVE('',#334,#382,#392,.T.);
#392 = LINE('',#393,#394);
#393 = CARTESIAN_POINT('',(5.746E-02,-0.119825,0.));
#394 = VECTOR('',#395,1.);
#395 = DIRECTION('',(-1.,0.,0.));
#396 = PLANE('',#397);
#397 = AXIS2_PLACEMENT_3D('',#398,#399,#400);
#398 = CARTESIAN_POINT('',(7.46E-03,3.0175E-02,0.));
#399 = DIRECTION('',(0.,0.,1.));
#400 = DIRECTION('',(1.,0.,0.));
#401 = ADVANCED_FACE('',(#402),#413,.F.);
#402 = FACE_BOUND('',#403,.F.);
#403 = EDGE_LOOP('',(#404,#410,#411,#412));
#404 = ORIENTED_EDGE('',*,*,#405,.T.);
#405 = EDGE_CURVE('',#230,#360,#406,.T.);
#406 = LINE('',#407,#408);
#407 = CARTESIAN_POINT('',(-0.75,0.780175,5.));
#408 = VECTOR('',#409,1.);
#409 = DIRECTION('',(0.,0.,1.));
#410 = ORIENTED_EDGE('',*,*,#367,.T.);
#411 = ORIENTED_EDGE('',*,*,#118,.F.);
#412 = ORIENTED_EDGE('',*,*,#278,.F.);
#413 = PLANE('',#414);
#414 = AXIS2_PLACEMENT_3D('',#415,#416,#417);
#415 = CARTESIAN_POINT('',(-0.75,0.780175,5.));
#416 = DIRECTION('',(1.,0.,0.));
#417 = DIRECTION('',(0.,-1.,0.));
#418 = ADVANCED_FACE('',(#419),#430,.T.);
#419 = FACE_BOUND('',#420,.F.);
#420 = EDGE_LOOP('',(#421,#422,#428,#429));
#421 = ORIENTED_EDGE('',*,*,#381,.F.);
#422 = ORIENTED_EDGE('',*,*,#423,.T.);
#423 = EDGE_CURVE('',#382,#252,#424,.T.);
#424 = LINE('',#425,#426);
#425 = CARTESIAN_POINT('',(-0.149682857143,9.446071428571E-02,
    0.321428571429));
#426 = VECTOR('',#427,1.);
#427 = DIRECTION('',(-0.267261241912,0.534522483825,0.801783725737));
#428 = ORIENTED_EDGE('',*,*,#295,.T.);
#429 = ORIENTED_EDGE('',*,*,#141,.T.);
#430 = PLANE('',#431);
#431 = AXIS2_PLACEMENT_3D('',#432,#433,#434);
#432 = CARTESIAN_POINT('',(-0.14254,0.280175,0.3));
#433 = DIRECTION('',(-0.948683298051,-3.476378920807E-18,-0.316227766017
    ));
#434 = DIRECTION('',(-3.297982619864E-18,1.,-1.099327539955E-18));
#435 = ADVANCED_FACE('',(#436),#442,.F.);
#436 = FACE_BOUND('',#437,.F.);
#437 = EDGE_LOOP('',(#438,#439,#440,#441));
#438 = ORIENTED_EDGE('',*,*,#318,.T.);
#439 = ORIENTED_EDGE('',*,*,#359,.T.);
#440 = ORIENTED_EDGE('',*,*,#405,.F.);
#441 = ORIENTED_EDGE('',*,*,#237,.F.);
#442 = PLANE('',#443);
#443 = AXIS2_PLACEMENT_3D('',#444,#445,#446);
#444 = CARTESIAN_POINT('',(0.75,0.780175,5.));
#445 = DIRECTION('',(0.,-1.,0.));
#446 = DIRECTION('',(-1.,0.,0.));
#447 = ADVANCED_FACE('',(#448),#454,.T.);
#448 = FACE_BOUND('',#449,.T.);
#449 = EDGE_LOOP('',(#450,#451,#452,#453));
#450 = ORIENTED_EDGE('',*,*,#343,.F.);
#451 = ORIENTED_EDGE('',*,*,#391,.T.);
#452 = ORIENTED_EDGE('',*,*,#423,.T.);
#453 = ORIENTED_EDGE('',*,*,#251,.F.);
#454 = PLANE('',#455);
#455 = AXIS2_PLACEMENT_3D('',#456,#457,#458);
#456 = CARTESIAN_POINT('',(5.746E-02,8.0175E-02,0.3));
#457 = DIRECTION('',(6.956911635378E-18,0.832050294338,-0.554700196225)
  );
#458 = DIRECTION('',(-1.,5.788500373898E-18,-3.859000249265E-18));
#459 = ( GEOMETRIC_REPRESENTATION_CONTEXT(3) 
GLOBAL_UNCERTAINTY_ASSIGNED_CONTEXT((#463)) GLOBAL_UNIT_ASSIGNED_CONTEXT
((#460,#461,#462)) REPRESENTATION_CONTEXT('Context #1',
  '3D Context with UNIT and UNCERTAINTY') );
#460 = ( LENGTH_UNIT() NAMED_UNIT(*) SI_UNIT(.MILLI.,.METRE.) );
#461 = ( NAMED_UNIT(*) PLANE_ANGLE_UNIT() SI_UNIT($,.RADIAN.) );
#462 = ( NAMED_UNIT(*) SI_UNIT($,.STERADIAN.) SOLID_ANGLE_UNIT() );
#463 = UNCERTAINTY_MEASURE_WITH_UNIT(LENGTH_MEASURE(1.E-07),#460,
  'distance_accuracy_value','confusion accuracy');
#464 = PRODUCT_RELATED_PRODUCT_CATEGORY('part',$,(#7));
#465 = MECHANICAL_DESIGN_GEOMETRIC_PRESENTATION_REPRESENTATION('',(#466)
  ,#459);
#466 = STYLED_ITEM('color',(#467),#15);
#467 = PRESENTATION_STYLE_ASSIGNMENT((#468,#474));
#468 = SURFACE_STYLE_USAGE(.BOTH.,#469);
#469 = SURFACE_SIDE_STYLE('',(#470));
#470 = SURFACE_STYLE_FILL_AREA(#471);
#471 = FILL_AREA_STYLE('',(#472));
#472 = FILL_AREA_STYLE_COLOUR('',#473);
#473 = COLOUR_RGB('',0.678431390124,0.709803936702,0.741176476869);
#474 = CURVE_STYLE('',#475,POSITIVE_LENGTH_MEASURE(0.1),#476);
#475 = DRAUGHTING_PRE_DEFINED_CURVE_FONT('continuous');
#476 = COLOUR_RGB('',9.803921802644E-02,9.803921802644E-02,
  9.803921802644E-02);
ENDSEC;
END-ISO-10303-21;
